<svg id="svg" version="1.1" xmlns="http://www.w3.org/2000/svg" xmlns:xlink="http://www.w3.org/1999/xlink" width="400" height="400" viewBox="0, 0, 400,400"><g id="svgg"><path id="path0" d="M191.602 90.245 C 175.916 91.538,162.021 96.067,152.574 102.967 C 150.984 104.128,149.562 105.078,149.415 105.078 C 148.844 105.078,147.307 103.603,147.572 103.310 C 147.726 103.139,147.651 103.115,147.405 103.255 C 147.159 103.396,145.929 103.039,144.670 102.462 C 140.000 100.322,133.917 100.849,129.630 103.765 C 128.480 104.547,127.319 105.192,127.051 105.198 C 126.782 105.204,126.640 105.286,126.735 105.381 C 126.961 105.607,124.205 109.590,123.881 109.505 C 123.744 109.469,123.612 109.821,123.587 110.286 C 123.562 110.752,123.210 112.275,122.806 113.672 C 122.265 115.539,122.129 116.883,122.293 118.750 C 122.430 120.300,122.354 121.508,122.098 121.852 C 121.790 122.266,121.801 122.343,122.136 122.142 C 122.430 121.966,122.763 122.394,123.068 123.336 C 123.890 125.878,125.014 127.783,126.848 129.743 C 128.448 131.454,128.604 131.850,127.608 131.677 C 127.431 131.646,127.374 131.764,127.482 131.939 C 127.590 132.114,126.021 133.916,123.995 135.945 C 121.970 137.974,120.313 139.417,120.313 139.153 C 120.313 138.888,120.115 138.672,119.874 138.672 C 119.565 138.672,119.575 138.840,119.908 139.241 C 120.457 139.902,120.134 140.625,119.290 140.625 C 118.968 140.625,118.819 140.812,118.961 141.040 C 119.102 141.269,118.905 141.800,118.524 142.221 C 118.063 142.731,117.742 142.843,117.564 142.555 C 117.388 142.270,117.212 142.341,117.051 142.761 C 116.908 143.134,116.966 143.301,117.192 143.161 C 117.404 143.030,117.578 143.098,117.578 143.313 C 117.578 143.528,117.385 143.823,117.150 143.969 C 116.714 144.238,113.981 148.234,111.989 151.514 C 111.386 152.507,109.701 155.751,108.245 158.722 C 106.788 161.693,105.465 164.096,105.305 164.061 C 105.144 164.026,104.896 164.128,104.753 164.288 C 104.609 164.448,104.712 164.452,104.980 164.297 C 105.621 163.929,105.597 164.329,104.846 166.532 C 104.500 167.546,103.979 168.359,103.674 168.359 C 103.372 168.359,103.128 168.667,103.131 169.043 C 103.136 169.632,103.194 169.646,103.547 169.141 C 103.881 168.664,103.921 168.700,103.759 169.336 C 102.980 172.411,101.793 175.886,101.659 175.484 C 101.570 175.218,101.236 175.000,100.916 175.000 C 100.429 175.000,100.440 175.105,100.985 175.650 C 101.434 176.099,101.563 176.657,101.403 177.457 C 101.276 178.093,101.172 178.777,101.172 178.978 C 101.172 179.179,101.008 179.242,100.808 179.118 C 100.608 178.995,100.317 179.099,100.162 179.351 C 99.974 179.656,100.050 179.703,100.390 179.493 C 100.943 179.151,100.969 178.849,99.831 185.938 C 98.344 195.203,98.371 212.457,99.882 218.519 C 99.994 218.968,100.110 220.508,100.140 221.940 C 100.171 223.372,100.304 224.652,100.437 224.785 C 100.569 224.918,100.610 224.538,100.527 223.939 C 100.445 223.341,101.073 225.312,101.924 228.320 C 102.776 231.328,103.383 234.093,103.275 234.465 C 103.166 234.836,103.266 235.452,103.497 235.832 C 103.839 236.395,103.877 236.305,103.703 235.352 C 103.585 234.707,103.931 235.322,104.472 236.719 C 105.665 239.798,105.679 239.990,104.687 239.730 C 104.225 239.610,104.003 239.685,104.145 239.914 C 104.277 240.128,104.701 240.220,105.087 240.119 C 105.625 239.978,105.956 240.357,106.507 241.743 C 107.496 244.228,107.556 244.491,106.875 243.359 L 106.287 242.383 106.366 243.619 C 106.414 244.369,106.752 245.046,107.227 245.341 C 107.931 245.781,107.955 245.765,107.472 245.180 C 107.177 244.823,107.095 244.531,107.290 244.531 C 108.017 244.531,110.248 249.698,109.693 250.096 C 109.308 250.372,109.342 250.413,109.831 250.257 C 110.189 250.143,110.575 250.291,110.688 250.585 C 110.801 250.880,110.700 251.186,110.463 251.265 C 110.150 251.369,110.153 251.618,110.473 252.169 C 110.907 252.918,110.914 252.918,110.938 252.148 C 110.956 251.562,111.202 251.757,111.926 252.930 C 112.457 253.789,112.819 254.684,112.732 254.918 C 112.644 255.153,112.723 255.587,112.906 255.884 C 113.111 256.216,113.061 256.535,112.777 256.711 C 112.502 256.881,112.651 256.971,113.145 256.934 C 113.920 256.876,113.936 256.811,113.388 255.975 C 113.065 255.482,112.895 255.078,113.009 255.078 C 113.483 255.078,114.876 257.834,114.616 258.256 C 114.443 258.535,114.501 258.610,114.762 258.449 C 115.250 258.148,117.269 260.880,116.946 261.403 C 116.832 261.587,116.894 261.690,117.084 261.631 C 117.274 261.572,118.576 262.930,119.977 264.648 C 121.379 266.367,123.172 268.447,123.962 269.270 C 124.752 270.093,125.281 270.955,125.139 271.186 C 124.989 271.428,125.062 271.492,125.313 271.337 C 126.053 270.880,128.953 273.614,130.112 275.863 C 130.974 277.535,131.039 277.891,130.408 277.502 C 130.127 277.328,130.064 277.395,130.240 277.680 C 130.396 277.932,130.652 278.058,130.810 277.960 C 131.255 277.685,133.674 281.975,133.361 282.483 C 133.199 282.744,133.253 282.828,133.489 282.682 C 134.041 282.341,134.905 283.443,134.544 284.028 C 134.368 284.312,134.420 284.394,134.675 284.235 C 135.180 283.923,136.818 286.086,136.414 286.533 C 136.259 286.704,136.333 286.730,136.577 286.590 C 137.163 286.256,138.039 287.334,137.669 287.934 C 137.500 288.206,137.544 288.300,137.773 288.158 C 137.990 288.024,138.584 288.358,139.093 288.899 L 140.017 289.884 138.587 291.234 C 135.151 294.475,133.476 301.152,135.253 304.522 C 135.942 305.828,138.811 308.594,139.477 308.594 C 139.704 308.594,139.809 308.726,139.710 308.887 C 139.612 309.048,140.890 309.236,142.551 309.304 C 147.311 309.500,151.775 307.508,156.421 303.113 L 158.433 301.211 161.150 302.213 C 184.003 310.647,212.994 311.060,236.671 303.289 L 241.896 301.573 244.127 303.619 C 245.550 304.924,246.204 305.776,245.933 305.973 C 245.665 306.168,245.731 306.240,246.109 306.169 C 247.050 305.990,251.619 308.570,251.317 309.109 C 251.121 309.456,251.177 309.460,251.542 309.124 C 251.887 308.805,252.432 308.789,253.439 309.067 C 264.264 312.056,269.451 300.383,261.451 291.037 C 260.227 289.607,260.187 289.474,260.837 288.992 C 261.220 288.709,261.794 288.105,262.114 287.650 C 265.080 283.433,266.918 281.068,267.176 281.137 C 267.347 281.182,267.463 281.007,267.435 280.746 C 267.406 280.486,267.984 279.117,268.719 277.704 L 270.056 275.135 284.566 275.118 C 300.849 275.098,301.576 274.987,303.552 272.217 L 304.492 270.898 304.492 254.678 C 304.492 238.477,304.491 238.456,303.619 237.347 C 303.138 236.736,302.859 236.037,302.998 235.794 C 303.137 235.551,303.112 235.476,302.944 235.628 C 302.775 235.780,301.938 235.547,301.083 235.111 C 300.228 234.675,298.867 234.292,298.059 234.260 C 296.607 234.203,296.593 234.187,296.959 233.019 C 298.253 228.895,299.937 222.082,300.412 219.052 C 300.672 217.392,300.994 216.101,301.126 216.183 C 301.394 216.348,301.429 215.351,301.594 202.734 C 301.708 194.075,301.434 190.371,300.172 183.461 C 299.864 181.776,299.674 180.018,299.749 179.554 C 299.824 179.090,299.802 178.975,299.700 179.297 C 299.597 179.619,299.175 178.582,298.761 176.991 C 298.348 175.401,298.104 173.853,298.219 173.553 C 298.351 173.209,298.261 173.110,297.976 173.286 C 297.677 173.470,297.605 173.353,297.763 172.941 C 297.895 172.597,297.880 172.261,297.730 172.193 C 297.328 172.012,294.418 164.401,294.374 163.416 C 294.353 162.953,294.238 162.635,294.117 162.710 C 293.919 162.832,291.016 157.306,291.016 156.806 C 291.016 156.690,291.219 156.720,291.467 156.873 C 291.748 157.047,291.811 156.980,291.635 156.695 C 291.479 156.443,291.189 156.338,290.989 156.462 C 290.660 156.665,290.459 156.130,290.579 155.371 C 290.604 155.210,290.482 155.078,290.306 155.078 C 289.992 155.078,288.281 152.291,288.281 151.779 C 288.281 151.635,288.484 151.642,288.732 151.795 C 289.014 151.969,289.077 151.902,288.901 151.616 C 288.745 151.365,288.463 151.255,288.274 151.372 C 287.803 151.663,287.007 150.091,287.347 149.541 C 287.505 149.286,287.447 149.205,287.212 149.350 C 286.686 149.676,285.428 147.774,285.786 147.194 C 285.947 146.934,285.883 146.862,285.629 147.019 C 285.379 147.174,284.281 146.041,282.983 144.286 C 281.764 142.637,280.069 140.531,279.216 139.606 C 278.241 138.549,277.775 137.738,277.959 137.420 C 278.119 137.142,278.100 137.051,277.917 137.218 C 277.403 137.685,273.074 133.218,273.312 132.466 C 273.485 131.918,273.455 131.912,273.076 132.422 C 272.697 132.933,272.569 132.913,272.071 132.261 C 271.551 131.579,271.631 131.373,272.996 129.893 C 286.590 115.146,268.568 92.840,251.864 103.737 C 250.308 104.753,249.414 104.928,249.022 104.295 C 248.622 103.647,244.258 100.802,240.970 99.045 C 239.275 98.139,237.962 97.325,238.052 97.234 C 238.142 97.144,237.835 97.044,237.369 97.011 C 236.904 96.979,235.645 96.556,234.570 96.071 C 233.496 95.587,232.441 95.146,232.227 95.091 C 232.012 95.036,229.727 94.378,227.148 93.629 C 216.821 90.628,202.958 89.309,191.602 90.245 M210.772 95.337 C 229.767 97.184,245.953 104.839,251.602 114.648 C 253.053 117.168,253.058 117.153,250.879 116.704 C 248.036 116.118,229.375 116.135,224.805 116.728 C 212.610 118.310,208.748 120.028,207.252 124.534 L 206.643 126.367 199.829 126.367 L 193.016 126.367 192.538 124.662 C 191.411 120.635,188.330 118.924,179.492 117.415 C 171.142 115.990,158.096 115.708,149.609 116.768 C 146.477 117.160,146.571 117.269,147.910 114.788 C 155.340 101.026,182.584 92.596,210.772 95.337 M143.388 106.889 C 146.153 108.394,146.361 108.749,145.256 110.064 C 144.750 110.666,143.916 111.952,143.403 112.921 C 142.553 114.525,142.334 114.687,140.935 114.743 C 136.007 114.940,133.295 120.000,135.655 124.594 C 136.724 126.672,136.536 130.976,135.392 130.619 C 130.747 129.166,126.769 123.241,126.769 117.773 C 126.769 108.647,135.777 102.747,143.388 106.889 M265.236 106.091 C 271.910 108.073,275.405 116.870,272.104 123.375 C 270.442 126.649,265.114 131.651,264.230 130.767 C 263.561 130.097,263.228 125.706,263.799 125.075 C 267.217 121.298,264.540 115.197,259.271 114.755 C 257.527 114.609,257.365 114.491,255.880 112.281 C 255.022 111.005,254.045 109.589,253.710 109.135 C 252.009 106.831,260.329 104.634,265.236 106.091 M175.977 121.685 C 186.943 123.332,188.796 125.080,188.810 133.789 C 188.838 150.598,180.898 158.717,164.453 158.696 C 147.287 158.674,141.401 152.474,141.408 134.421 C 141.413 124.318,143.017 122.666,154.102 121.350 C 157.695 120.923,172.405 121.149,175.977 121.685 M247.276 121.502 C 257.645 122.782,259.563 125.558,258.604 137.891 C 257.378 153.641,251.807 158.708,235.742 158.682 C 219.313 158.656,211.483 151.021,211.214 134.766 C 211.055 125.157,212.726 123.352,223.309 121.706 C 227.512 121.052,242.590 120.924,247.276 121.502 M224.764 130.917 C 214.482 133.202,217.564 149.776,227.980 148.214 C 236.896 146.877,237.700 132.497,228.940 131.026 C 228.170 130.897,227.275 130.739,226.953 130.676 C 226.631 130.613,225.646 130.721,224.764 130.917 M169.886 131.761 C 165.339 134.141,163.867 140.601,166.950 144.648 C 172.639 152.116,184.048 146.826,182.116 137.617 C 180.945 132.034,174.897 129.138,169.886 131.761 M205.123 134.617 L 206.535 134.851 206.789 137.894 C 208.195 154.748,217.998 163.105,236.328 163.073 C 253.724 163.044,260.912 157.161,262.948 141.290 C 263.442 137.431,263.549 137.419,264.981 141.060 C 268.342 149.600,269.404 162.911,268.984 191.211 C 268.754 206.726,269.119 226.096,269.754 232.081 L 269.987 234.279 266.289 234.441 C 261.967 234.630,260.025 235.585,258.752 238.149 C 257.561 240.549,257.611 269.441,258.810 271.483 C 259.728 273.046,261.839 274.607,263.046 274.615 C 265.398 274.632,265.179 275.586,261.638 280.731 C 250.408 297.051,224.595 305.830,193.464 303.917 C 156.962 301.674,135.280 287.477,130.806 262.891 C 130.105 259.038,130.099 231.966,130.795 214.453 C 131.137 205.844,131.215 196.414,131.035 185.156 C 130.614 158.783,131.688 147.668,135.450 139.470 L 136.443 137.305 136.767 139.258 C 136.944 140.332,137.292 142.441,137.539 143.945 C 139.682 156.999,146.982 162.619,162.500 163.162 C 180.978 163.808,191.996 154.790,193.236 138.008 C 193.446 135.159,193.564 134.787,194.295 134.643 C 195.623 134.382,203.585 134.363,205.123 134.617 M177.020 137.365 C 178.240 138.469,177.687 140.234,176.122 140.234 C 174.475 140.234,173.833 138.667,175.000 137.500 C 175.947 136.553,176.110 136.542,177.020 137.365 M230.145 137.365 C 230.967 138.109,231.067 139.089,230.391 139.766 C 228.873 141.283,226.490 139.091,227.928 137.502 C 228.789 136.550,229.215 136.524,230.145 137.365 M195.313 148.810 C 191.874 149.991,189.073 153.613,189.065 156.890 C 189.063 157.532,188.752 157.784,187.723 157.977 C 175.718 160.229,173.290 174.427,184.140 178.924 L 186.219 179.786 186.435 183.350 C 186.986 192.476,193.330 197.863,198.790 193.843 C 199.797 193.101,199.817 193.103,201.563 194.040 C 208.016 197.506,213.614 191.210,213.669 180.424 C 213.671 180.039,214.351 179.534,215.419 179.127 C 226.292 174.974,224.814 160.755,213.266 158.418 C 210.789 157.917,210.547 157.778,210.547 156.859 C 210.547 150.453,202.660 146.287,195.313 148.810 M214.973 163.194 C 224.375 168.311,215.630 179.426,205.664 175.027 C 204.805 174.648,203.338 173.695,202.404 172.911 C 200.283 171.128,199.239 171.116,197.318 172.851 C 191.770 177.863,183.071 176.544,181.234 170.413 C 179.693 165.269,186.511 160.292,191.830 162.679 C 196.787 164.903,203.262 164.879,207.765 162.618 C 210.324 161.333,211.766 161.449,214.973 163.194 M197.086 190.190 C 194.299 192.978,190.924 189.197,190.372 182.667 L 190.120 179.688 191.251 179.674 C 191.874 179.666,193.525 179.271,194.922 178.795 L 197.461 177.930 197.569 183.765 C 197.658 188.555,197.572 189.705,197.086 190.190 M205.460 178.959 C 206.852 179.360,208.392 179.688,208.882 179.688 C 209.859 179.688,209.869 181.270,208.921 186.263 C 208.184 190.140,204.605 192.270,202.446 190.115 C 201.372 189.042,201.154 177.480,202.217 177.930 C 202.609 178.096,204.068 178.559,205.460 178.959 M194.408 202.519 C 189.509 204.266,189.354 210.888,194.106 215.405 C 195.909 217.119,195.865 217.482,192.415 229.297 C 190.687 235.215,188.893 243.122,188.225 247.764 L 187.731 251.192 191.229 254.739 C 199.713 263.342,199.876 263.344,208.146 254.975 L 212.191 250.881 211.531 246.672 C 210.685 241.276,208.639 232.927,206.459 225.977 C 203.826 217.582,203.812 217.201,206.032 214.827 C 210.297 210.268,210.113 204.172,205.664 202.654 C 203.227 201.822,196.585 201.743,194.408 202.519 M126.848 211.621 L 126.626 216.992 124.825 218.629 C 119.265 223.681,112.544 222.325,112.980 216.239 C 113.225 212.813,117.293 209.394,123.930 207.034 C 127.281 205.844,127.099 205.558,126.848 211.621 M275.164 207.444 C 285.608 211.351,290.598 220.764,284.415 224.895 C 281.838 226.616,279.957 225.990,276.338 222.207 C 272.715 218.421,272.746 218.502,272.433 212.207 C 272.122 205.963,271.960 206.245,275.164 207.444 M100.226 225.731 C 100.076 225.974,100.140 226.172,100.368 226.172 C 100.595 226.172,100.802 226.567,100.827 227.051 C 100.860 227.693,100.919 227.749,101.048 227.258 C 101.279 226.380,100.602 225.123,100.226 225.731 M286.719 233.203 L 286.719 234.375 281.348 234.374 L 275.977 234.373 275.895 233.202 L 275.813 232.031 281.266 232.031 L 286.719 232.031 286.719 233.203 M265.625 254.688 C 265.625 270.245,265.603 270.703,264.872 270.703 C 262.909 270.703,262.890 270.555,262.897 254.757 C 262.903 238.397,262.795 239.110,265.332 238.717 C 265.493 238.692,265.625 245.879,265.625 254.688 M299.609 239.453 C 300.303 240.147,300.391 240.755,300.391 244.876 C 300.391 250.360,300.866 249.938,294.336 250.257 L 290.039 250.466 289.364 249.240 C 287.619 246.069,281.979 246.161,279.859 249.395 C 279.137 250.498,278.035 250.616,272.949 250.136 L 270.313 249.887 270.313 244.748 C 270.313 241.272,270.464 239.458,270.781 239.141 C 271.714 238.208,298.656 238.500,299.609 239.453 M280.448 255.494 C 283.068 258.248,287.825 257.767,289.723 254.556 C 289.953 254.168,291.455 253.956,295.215 253.782 L 300.391 253.541 300.391 261.341 C 300.391 271.841,302.314 270.703,284.570 270.703 L 270.313 270.703 270.313 262.088 L 270.313 253.474 274.682 253.750 L 279.052 254.027 280.448 255.494 M134.434 285.137 C 134.601 285.640,135.137 285.731,135.186 285.264 C 135.202 285.108,135.004 284.910,134.746 284.824 C 134.488 284.738,134.348 284.879,134.434 285.137 M148.065 296.024 C 149.901 297.263,151.966 298.510,152.655 298.795 C 154.277 299.467,154.250 299.578,152.051 301.254 C 145.245 306.443,138.672 306.195,138.672 300.748 C 138.672 297.378,142.355 292.024,143.893 293.157 C 144.351 293.495,146.229 294.785,148.065 296.024 M260.409 297.543 C 264.148 305.186,256.222 307.563,247.974 301.273 C 245.616 299.475,245.503 299.748,249.521 297.549 C 251.396 296.523,253.809 294.992,254.883 294.148 L 256.836 292.611 258.113 294.035 C 258.815 294.818,259.848 296.397,260.409 297.543 " stroke="none" fill="#13181b" fill-rule="evenodd"></path><path id="path1" d="M153.537 121.507 C 142.883 122.833,141.599 124.259,141.606 134.766 C 141.616 152.725,147.154 158.531,164.321 158.580 C 180.813 158.627,188.746 150.564,188.642 133.861 C 188.591 125.639,187.225 124.028,178.757 122.193 C 174.648 121.303,158.670 120.869,153.537 121.507 M224.056 121.702 C 212.701 123.248,211.089 125.013,211.418 135.547 C 211.899 150.979,218.955 158.033,234.375 158.499 C 252.209 159.037,257.956 153.558,258.486 135.514 C 258.767 125.953,257.864 124.155,251.953 122.502 C 246.730 121.041,232.011 120.619,224.056 121.702 M176.610 131.071 C 182.764 133.243,184.426 141.429,179.636 145.979 C 173.847 151.480,164.720 146.832,165.309 138.683 C 165.719 133.019,171.360 129.219,176.610 131.071 M231.082 131.831 C 233.943 133.508,235.841 137.303,235.405 140.480 C 233.896 151.494,218.359 150.739,218.359 139.651 C 218.359 132.452,225.086 128.318,231.082 131.831 M174.759 137.672 C 174.173 139.200,175.603 140.784,176.855 139.995 C 178.331 139.066,177.694 137.109,175.916 137.109 C 175.399 137.109,174.878 137.363,174.759 137.672 M227.884 137.672 C 227.298 139.200,228.728 140.784,229.980 139.995 C 231.456 139.066,230.819 137.109,229.041 137.109 C 228.524 137.109,228.003 137.363,227.884 137.672 M187.891 162.084 C 181.940 163.901,179.493 168.551,182.387 172.546 C 185.496 176.837,192.703 176.887,197.529 172.649 C 199.233 171.153,200.513 171.168,202.267 172.708 C 208.631 178.295,218.750 175.931,218.750 168.856 C 218.750 164.513,212.132 160.350,208.569 162.450 C 204.165 165.046,195.469 165.061,191.091 162.480 C 189.704 161.663,189.396 161.624,187.891 162.084 M190.141 175.268 C 189.768 175.366,189.065 175.370,188.579 175.276 C 188.093 175.183,188.398 175.103,189.258 175.099 C 190.117 175.094,190.515 175.171,190.141 175.268 M197.070 178.069 C 196.521 178.597,192.657 179.688,191.335 179.688 C 190.054 179.688,190.039 179.787,190.657 184.233 C 191.422 189.732,194.418 192.474,196.924 189.969 C 197.775 189.118,197.921 177.252,197.070 178.069 M201.875 183.687 C 202.006 190.309,202.130 190.625,204.593 190.625 C 207.507 190.625,208.876 188.405,209.253 183.066 L 209.483 179.808 207.716 179.566 C 206.159 179.353,204.169 178.764,202.344 177.978 C 201.835 177.758,201.773 178.507,201.875 183.687 M123.026 207.547 C 114.894 210.643,111.126 215.423,113.650 219.443 C 115.666 222.653,121.846 221.919,125.506 218.035 C 126.520 216.960,127.614 206.228,126.707 206.263 C 126.520 206.270,124.864 206.848,123.026 207.547 M272.402 207.213 C 272.542 207.578,272.656 210.126,272.656 212.876 L 272.656 217.876 275.312 220.948 C 279.196 225.440,281.178 226.408,283.874 225.129 C 287.479 223.418,288.049 218.509,285.107 214.509 C 282.693 211.227,271.469 204.781,272.402 207.213 M141.623 294.284 C 134.217 303.322,141.651 308.683,151.589 301.470 C 154.364 299.456,154.361 299.657,151.639 298.325 C 150.415 297.727,147.967 296.199,146.199 294.931 L 142.983 292.624 141.623 294.284 M255.469 293.809 C 253.916 295.142,247.175 299.219,246.523 299.219 C 245.669 299.219,246.144 299.833,248.150 301.322 C 257.162 308.007,264.573 304.661,259.505 296.195 C 257.323 292.549,257.093 292.414,255.469 293.809 " stroke="none" fill="#f8eedd" fill-rule="evenodd"></path><path id="path2" d="M194.336 95.576 C 188.993 95.792,182.947 96.531,178.609 97.498 C 176.190 98.037,173.993 98.353,173.726 98.200 C 173.460 98.047,173.379 98.072,173.547 98.257 C 173.912 98.658,168.777 100.470,168.046 100.198 C 167.766 100.094,167.634 100.166,167.753 100.357 C 168.028 100.803,165.680 101.636,165.092 101.300 C 164.848 101.161,164.788 101.200,164.958 101.386 C 165.357 101.824,160.224 104.378,159.629 104.038 C 159.382 103.897,159.310 103.925,159.470 104.102 C 159.850 104.521,158.322 105.588,157.802 105.267 C 157.582 105.131,157.451 105.253,157.510 105.537 C 157.569 105.823,157.314 106.031,156.938 106.001 C 156.564 105.972,156.343 106.084,156.446 106.251 C 156.549 106.418,156.156 106.868,155.573 107.251 C 154.989 107.633,153.716 108.690,152.744 109.599 C 151.772 110.508,150.845 111.269,150.684 111.290 C 150.522 111.311,150.392 111.417,150.393 111.525 C 150.395 111.633,149.846 112.696,149.174 113.886 C 147.698 116.501,147.579 116.378,151.172 115.952 C 155.520 115.437,168.743 115.441,173.438 115.958 C 179.150 116.588,184.412 117.592,184.158 118.005 C 184.040 118.195,184.215 118.246,184.547 118.119 C 186.195 117.487,192.522 121.222,192.019 122.531 C 191.884 122.884,191.971 122.985,192.258 122.808 C 192.563 122.619,192.627 122.747,192.454 123.198 C 192.312 123.567,192.353 123.772,192.545 123.654 C 192.736 123.535,193.073 123.955,193.292 124.585 L 193.692 125.732 199.939 125.715 L 206.186 125.697 206.425 124.747 C 206.556 124.224,206.832 123.900,207.038 124.028 C 207.244 124.155,207.327 124.030,207.221 123.751 C 206.944 123.015,208.512 120.606,209.051 120.939 C 209.312 121.101,209.389 121.042,209.238 120.797 C 207.479 117.951,229.442 114.708,244.393 115.605 C 250.026 115.943,251.036 115.918,251.463 115.426 C 251.738 115.111,251.842 114.940,251.694 115.047 C 251.309 115.326,249.999 113.208,250.278 112.757 C 250.406 112.549,250.322 112.496,250.090 112.640 C 249.667 112.901,247.907 110.817,248.256 110.468 C 248.359 110.365,248.090 109.963,247.659 109.572 C 247.228 109.182,246.875 108.990,246.875 109.146 C 246.875 109.301,246.346 109.051,245.699 108.590 C 245.022 108.109,244.634 107.558,244.785 107.294 C 244.929 107.042,244.908 106.962,244.738 107.115 C 244.280 107.528,242.902 106.674,243.213 106.170 C 243.360 105.933,243.310 105.844,243.102 105.972 C 242.590 106.289,240.542 104.908,240.915 104.498 C 241.078 104.318,241.021 104.280,240.789 104.412 C 240.215 104.738,233.492 101.412,233.875 100.991 C 234.043 100.807,233.957 100.785,233.684 100.942 C 232.994 101.339,230.397 100.433,230.721 99.908 C 230.871 99.666,230.797 99.602,230.547 99.756 C 229.993 100.099,228.067 99.628,228.324 99.214 C 228.430 99.042,228.137 99.000,227.674 99.121 C 227.101 99.271,226.919 99.199,227.108 98.894 C 227.281 98.613,227.178 98.526,226.830 98.659 C 226.526 98.776,224.890 98.517,223.195 98.085 C 217.242 96.565,203.457 95.079,198.242 95.395 C 197.598 95.434,195.840 95.515,194.336 95.576 M135.448 106.406 C 135.570 106.603,135.291 106.665,134.826 106.543 C 134.363 106.422,134.070 106.464,134.177 106.636 C 134.437 107.057,133.241 107.492,132.717 107.167 C 132.472 107.016,132.416 107.096,132.580 107.362 C 132.833 107.771,132.346 107.994,131.514 107.849 C 131.337 107.818,131.287 107.948,131.404 108.137 C 131.658 108.547,129.940 110.250,129.561 109.965 C 129.416 109.855,129.371 109.869,129.462 109.996 C 129.553 110.123,129.202 111.028,128.681 112.008 C 128.160 112.987,127.734 114.036,127.734 114.339 C 127.734 114.642,127.603 114.808,127.441 114.709 C 127.280 114.609,127.148 115.988,127.148 117.773 C 127.148 119.559,127.262 120.949,127.400 120.864 C 127.771 120.634,128.194 122.620,127.881 123.125 C 127.734 123.363,127.780 123.456,127.983 123.330 C 128.311 123.127,130.664 126.364,130.664 127.018 C 130.664 127.409,131.210 127.878,131.760 127.959 C 132.028 127.998,132.946 128.505,133.800 129.084 L 135.352 130.139 135.622 128.283 C 135.774 127.236,135.724 126.112,135.506 125.705 C 135.294 125.308,135.243 124.785,135.394 124.541 C 135.550 124.289,135.495 124.205,135.265 124.347 C 134.673 124.712,133.848 121.358,134.143 119.786 C 134.440 118.204,136.018 115.779,136.659 115.918 C 136.907 115.972,137.065 115.796,137.012 115.527 C 136.956 115.249,137.283 115.051,137.774 115.068 C 138.246 115.084,138.526 114.924,138.396 114.713 C 138.255 114.486,138.501 114.419,139.002 114.550 C 139.466 114.672,139.746 114.612,139.626 114.417 C 139.506 114.222,140.036 114.063,140.806 114.063 C 141.914 114.063,142.296 113.862,142.644 113.098 C 142.885 112.568,143.213 112.214,143.372 112.313 C 143.532 112.411,143.638 112.186,143.608 111.812 C 143.579 111.439,143.754 111.170,143.997 111.215 C 144.240 111.260,144.416 110.997,144.388 110.629 C 144.359 110.262,144.519 109.993,144.743 110.032 C 146.153 110.276,145.067 108.481,143.238 107.544 C 141.198 106.499,134.940 105.584,135.448 106.406 M258.106 106.409 C 258.227 106.604,257.946 106.665,257.482 106.543 C 257.019 106.422,256.722 106.457,256.823 106.620 C 257.083 107.040,255.107 107.877,254.598 107.562 C 254.359 107.414,254.288 107.482,254.434 107.719 C 254.576 107.948,254.495 108.202,254.255 108.282 C 253.998 108.368,254.251 108.944,254.866 109.675 C 255.443 110.360,255.802 111.105,255.663 111.330 C 255.524 111.554,255.643 111.690,255.928 111.631 C 256.214 111.571,256.421 111.827,256.392 112.203 C 256.361 112.589,256.516 112.772,256.751 112.627 C 257.011 112.466,257.069 112.620,256.907 113.042 C 256.754 113.440,256.806 113.616,257.036 113.474 C 257.248 113.343,257.422 113.421,257.422 113.649 C 257.422 113.876,258.131 114.063,258.997 114.063 C 261.037 114.063,263.439 115.041,263.051 115.714 C 262.894 115.988,262.909 116.081,263.085 115.921 C 263.496 115.549,264.515 116.380,264.224 116.851 C 264.103 117.047,264.237 117.159,264.522 117.100 C 264.833 117.035,265.028 117.335,265.010 117.852 C 264.994 118.324,265.105 118.635,265.256 118.542 C 265.677 118.281,266.025 120.560,265.763 121.869 C 265.635 122.510,265.392 122.949,265.223 122.845 C 265.055 122.740,265.016 123.034,265.137 123.498 C 265.301 124.126,265.227 124.260,264.845 124.024 C 264.499 123.810,264.426 123.859,264.622 124.176 C 264.781 124.433,264.706 124.890,264.456 125.192 C 264.153 125.557,264.091 126.459,264.270 127.895 L 264.540 130.050 266.011 129.299 C 266.819 128.887,267.619 128.673,267.788 128.825 C 267.956 128.977,267.984 128.909,267.850 128.673 C 267.543 128.133,269.664 126.055,270.109 126.459 C 270.290 126.624,270.332 126.571,270.202 126.343 C 269.891 125.795,271.253 123.736,271.674 124.118 C 271.853 124.281,271.894 124.226,271.763 123.997 C 271.633 123.768,271.803 122.801,272.140 121.849 C 272.802 119.982,273.087 113.991,272.497 114.356 C 272.302 114.477,272.242 114.196,272.363 113.732 C 272.506 113.187,272.435 112.981,272.163 113.149 C 271.894 113.315,271.835 113.167,271.999 112.739 C 272.173 112.287,272.109 112.160,271.804 112.348 C 271.503 112.535,271.434 112.413,271.599 111.983 C 271.752 111.585,271.665 111.373,271.373 111.430 C 271.112 111.482,270.923 111.218,270.952 110.844 C 270.981 110.470,270.876 110.245,270.718 110.342 C 270.380 110.551,268.524 108.535,268.658 108.105 C 268.709 107.944,268.618 107.833,268.457 107.859 C 267.638 107.988,267.171 107.764,267.420 107.362 C 267.583 107.098,267.528 107.016,267.288 107.164 C 266.866 107.426,264.306 106.527,264.609 106.224 C 264.702 106.131,263.228 106.055,261.333 106.055 C 259.369 106.055,257.981 106.207,258.106 106.409 M126.653 117.578 C 126.653 118.330,126.734 118.638,126.832 118.262 C 126.930 117.886,126.930 117.271,126.832 116.895 C 126.734 116.519,126.653 116.826,126.653 117.578 M194.217 135.449 C 194.541 136.690,192.673 145.808,192.160 145.491 C 191.965 145.370,191.914 145.554,192.046 145.898 C 192.540 147.184,187.348 155.984,186.227 155.761 C 185.961 155.708,185.782 155.872,185.831 156.125 C 185.953 156.763,183.624 158.659,183.110 158.341 C 182.880 158.199,182.798 158.255,182.929 158.466 C 183.292 159.053,188.261 157.358,188.279 156.641 C 188.292 156.120,188.337 156.120,188.690 156.641 C 188.986 157.078,189.025 156.962,188.844 156.181 C 188.560 154.956,188.960 153.406,189.477 153.726 C 189.674 153.848,189.719 153.646,189.578 153.277 C 189.416 152.855,189.473 152.701,189.733 152.861 C 189.967 153.006,190.123 152.826,190.093 152.447 C 190.063 152.078,190.259 151.772,190.527 151.767 C 190.796 151.762,190.972 151.653,190.918 151.525 C 190.730 151.077,191.889 150.011,192.292 150.260 C 192.522 150.402,192.583 150.323,192.432 150.080 C 192.102 149.546,193.601 148.690,194.209 149.066 C 194.475 149.230,194.544 149.165,194.382 148.903 C 193.915 148.147,198.250 147.144,201.021 147.366 C 203.655 147.577,207.201 149.019,206.777 149.705 C 206.630 149.942,206.704 150.007,206.948 149.856 C 207.450 149.546,209.056 151.131,208.747 151.631 C 208.631 151.819,208.768 151.924,209.053 151.865 C 209.339 151.806,209.546 152.061,209.517 152.437 C 209.487 152.811,209.606 153.028,209.782 152.920 C 210.217 152.651,210.665 154.180,210.316 154.744 C 210.152 155.010,210.205 155.094,210.444 154.947 C 210.684 154.798,210.957 155.255,211.108 156.058 C 211.266 156.903,211.589 157.422,211.955 157.422 C 212.280 157.422,212.453 157.572,212.340 157.756 C 212.226 157.940,212.593 158.002,213.156 157.895 C 213.812 157.769,214.088 157.846,213.925 158.110 C 213.764 158.371,213.979 158.440,214.514 158.300 C 214.977 158.179,215.258 158.240,215.137 158.435 C 215.017 158.630,215.340 158.789,215.855 158.789 L 216.792 158.789 215.916 158.114 C 215.434 157.743,215.198 157.435,215.393 157.431 C 215.587 157.426,215.434 157.077,215.053 156.656 C 214.672 156.235,214.180 155.927,213.959 155.973 C 212.754 156.219,207.692 147.476,207.643 145.062 C 207.629 144.383,207.503 143.897,207.364 143.983 C 207.077 144.158,206.253 139.791,206.245 138.054 C 206.231 135.070,206.418 135.156,199.954 135.156 C 196.757 135.156,194.175 135.288,194.217 135.449 M135.792 140.142 C 135.626 140.629,135.371 140.953,135.226 140.863 C 135.080 140.773,134.940 141.078,134.914 141.541 C 134.827 143.102,132.944 149.611,132.661 149.328 C 132.507 149.173,132.487 149.324,132.616 149.662 C 132.746 150.000,132.642 152.016,132.386 154.142 C 132.087 156.619,131.820 169.161,131.642 189.063 C 131.489 206.143,131.137 227.061,130.858 235.547 C 130.438 248.361,130.441 251.970,130.875 256.836 C 131.163 260.059,131.409 263.338,131.422 264.123 C 131.435 264.908,131.603 265.453,131.795 265.334 C 131.987 265.215,132.057 265.579,131.949 266.141 C 131.841 266.704,131.874 267.089,132.022 266.998 C 132.430 266.746,133.676 271.030,133.357 271.585 C 133.203 271.852,133.217 271.944,133.388 271.790 C 133.762 271.453,136.779 277.322,136.480 277.805 C 136.364 277.992,136.503 278.096,136.787 278.037 C 137.073 277.978,137.281 278.233,137.251 278.609 C 137.222 278.983,137.345 279.198,137.525 279.086 C 137.955 278.820,138.726 280.276,138.365 280.675 C 138.212 280.845,138.297 280.864,138.555 280.716 C 139.083 280.413,139.976 281.769,139.537 282.208 C 139.383 282.361,139.452 282.428,139.689 282.357 C 139.926 282.285,140.953 283.149,141.971 284.277 C 142.989 285.405,143.697 286.328,143.543 286.328 C 143.389 286.328,143.481 286.590,143.746 286.910 C 144.012 287.230,144.364 287.408,144.530 287.306 C 144.976 287.030,146.920 288.674,146.654 289.103 C 146.529 289.306,146.576 289.424,146.758 289.365 C 147.266 289.201,151.918 292.319,151.698 292.675 C 151.591 292.847,151.649 292.949,151.826 292.901 C 152.446 292.733,153.916 293.419,153.696 293.774 C 153.574 293.971,153.776 294.016,154.145 293.874 C 154.636 293.686,154.730 293.756,154.496 294.135 C 154.291 294.466,154.328 294.558,154.598 294.391 C 155.130 294.062,157.077 294.922,156.803 295.365 C 156.692 295.546,156.902 295.578,157.270 295.437 C 157.761 295.249,157.855 295.318,157.621 295.697 C 157.422 296.019,157.453 296.121,157.703 295.966 C 158.309 295.591,161.765 296.875,161.463 297.363 C 161.313 297.607,161.393 297.662,161.660 297.497 C 162.174 297.180,168.792 299.226,168.544 299.626 C 168.456 299.770,168.843 299.799,169.406 299.692 C 170.175 299.544,170.351 299.622,170.115 300.004 C 169.907 300.341,169.955 300.416,170.258 300.229 C 170.789 299.901,175.052 300.772,174.812 301.160 C 174.723 301.304,175.194 301.341,175.857 301.244 C 176.771 301.110,176.989 301.189,176.753 301.570 C 176.544 301.908,176.596 301.978,176.911 301.784 C 177.614 301.350,181.302 301.943,180.995 302.441 C 180.847 302.680,180.924 302.741,181.178 302.584 C 181.420 302.434,184.655 302.604,188.367 302.961 C 193.802 303.483,196.982 303.551,204.688 303.311 C 209.951 303.147,215.164 302.994,216.271 302.971 C 217.379 302.948,218.226 302.834,218.154 302.718 C 217.940 302.372,226.134 301.103,226.624 301.405 C 226.920 301.588,226.967 301.510,226.760 301.176 C 226.524 300.794,226.700 300.716,227.469 300.863 C 228.032 300.971,228.411 300.928,228.312 300.768 C 228.066 300.370,230.762 299.894,231.317 300.237 C 231.571 300.394,231.655 300.339,231.513 300.109 C 231.199 299.601,234.526 298.634,235.186 299.042 C 235.516 299.246,235.568 299.178,235.351 298.827 C 235.115 298.445,235.249 298.371,235.877 298.535 C 236.341 298.656,236.640 298.627,236.543 298.469 C 236.294 298.066,242.573 295.654,243.071 295.961 C 243.328 296.121,243.362 296.023,243.160 295.697 C 242.926 295.318,243.020 295.249,243.511 295.437 C 243.963 295.610,244.090 295.547,243.902 295.242 C 243.708 294.929,243.849 294.876,244.358 295.071 C 244.762 295.227,244.966 295.227,244.811 295.072 C 244.429 294.689,247.553 292.859,248.057 293.171 C 248.277 293.306,248.409 293.185,248.350 292.900 C 248.290 292.616,248.543 292.406,248.910 292.435 C 249.278 292.463,249.542 292.287,249.496 292.044 C 249.451 291.801,249.720 291.626,250.093 291.655 C 250.467 291.685,250.694 291.581,250.597 291.424 C 250.404 291.112,252.542 289.412,253.261 289.307 C 253.509 289.270,253.711 289.118,253.711 288.968 C 253.711 288.446,258.731 283.633,259.062 283.837 C 259.245 283.950,259.353 283.898,259.302 283.720 C 259.154 283.208,260.164 281.599,260.501 281.808 C 260.670 281.912,260.809 281.785,260.812 281.526 C 260.818 280.783,263.934 276.173,264.229 276.469 C 264.375 276.615,264.378 276.432,264.237 276.062 C 264.095 275.693,263.724 275.391,263.412 275.391 C 263.100 275.391,262.943 275.231,263.063 275.036 C 263.184 274.842,262.974 274.758,262.598 274.851 C 261.739 275.063,259.251 273.563,259.580 273.031 C 259.714 272.814,259.591 272.685,259.306 272.744 C 259.020 272.804,258.813 272.548,258.843 272.172 C 258.873 271.786,258.718 271.603,258.483 271.748 C 258.223 271.909,258.166 271.755,258.328 271.333 C 258.500 270.885,258.437 270.754,258.137 270.939 C 257.833 271.127,257.760 270.946,257.910 270.373 C 258.031 269.909,257.971 269.629,257.776 269.749 C 257.567 269.879,257.422 263.806,257.422 254.883 C 257.422 245.960,257.567 239.887,257.776 240.017 C 257.971 240.137,258.040 239.891,257.930 239.469 C 257.532 237.948,260.673 234.315,261.790 235.005 C 262.043 235.161,262.122 235.103,261.977 234.867 C 261.620 234.290,262.422 234.059,265.866 233.747 C 268.091 233.546,268.797 233.592,268.591 233.925 C 268.438 234.173,268.488 234.375,268.701 234.375 C 268.934 234.375,269.027 233.326,268.934 231.738 C 268.849 230.288,268.619 213.545,268.422 194.531 C 268.130 166.261,267.945 158.972,267.409 154.537 C 267.049 151.553,266.850 148.864,266.966 148.559 C 267.084 148.254,267.006 148.113,266.792 148.245 C 266.580 148.376,266.406 148.210,266.406 147.875 C 266.406 147.540,265.888 145.653,265.254 143.682 C 264.620 141.710,264.206 139.908,264.334 139.678 C 264.489 139.399,264.439 139.389,264.185 139.648 C 263.974 139.863,263.510 141.742,263.154 143.824 C 262.442 147.987,261.079 152.087,260.522 151.742 C 260.326 151.621,260.281 151.824,260.422 152.192 C 260.596 152.644,260.532 152.771,260.227 152.583 C 259.922 152.394,259.858 152.522,260.032 152.973 C 260.194 153.395,260.136 153.549,259.876 153.389 C 259.641 153.243,259.486 153.426,259.517 153.813 C 259.546 154.189,259.339 154.444,259.053 154.385 C 258.768 154.326,258.652 154.465,258.794 154.695 C 259.093 155.179,258.261 156.332,257.813 156.055 C 257.646 155.952,257.271 156.174,256.978 156.547 C 256.485 157.175,256.504 157.183,257.227 156.647 C 257.997 156.076,257.998 156.080,257.278 156.925 C 256.876 157.396,256.349 157.745,256.106 157.699 C 255.863 157.654,255.705 157.827,255.755 158.084 C 255.879 158.727,253.627 160.271,253.067 159.925 C 252.814 159.769,252.718 159.814,252.850 160.027 C 253.642 161.309,245.093 163.592,238.281 163.919 C 231.757 164.231,222.188 162.793,222.919 161.609 C 223.063 161.377,222.976 161.326,222.713 161.488 C 222.074 161.883,220.637 161.361,220.953 160.849 C 221.108 160.599,221.032 160.539,220.768 160.702 C 220.444 160.903,220.481 161.222,220.904 161.868 C 221.225 162.357,221.355 162.904,221.193 163.082 C 221.031 163.261,221.122 163.277,221.396 163.120 C 222.116 162.705,223.474 166.001,223.518 168.271 C 223.566 170.708,223.098 172.734,222.564 172.404 C 222.328 172.258,222.257 172.327,222.402 172.561 C 222.740 173.107,222.283 174.275,221.839 174.001 C 221.649 173.884,221.585 174.027,221.698 174.320 C 221.943 174.960,219.249 177.847,218.715 177.517 C 218.509 177.390,218.388 177.518,218.447 177.803 C 218.507 178.089,218.251 178.296,217.875 178.267 C 217.502 178.237,217.281 178.351,217.385 178.519 C 217.641 178.934,216.439 179.363,215.920 179.042 C 215.679 178.893,215.618 178.970,215.776 179.225 C 215.940 179.491,215.655 179.763,215.055 179.914 C 214.140 180.143,214.062 180.334,214.058 182.367 C 214.053 185.215,213.663 187.541,213.236 187.277 C 213.051 187.162,213.005 187.345,213.135 187.682 C 213.424 188.436,212.539 190.695,212.069 190.404 C 211.881 190.289,211.827 190.453,211.949 190.770 C 212.246 191.543,209.121 194.667,208.348 194.371 C 208.031 194.249,207.871 194.309,207.991 194.504 C 208.112 194.699,207.590 195.064,206.831 195.314 C 205.254 195.835,202.193 195.482,202.598 194.827 C 202.751 194.579,202.670 194.525,202.397 194.694 C 202.145 194.849,201.321 194.595,200.565 194.128 C 199.631 193.550,199.227 193.448,199.303 193.808 C 199.366 194.105,199.118 194.313,198.735 194.282 C 198.361 194.253,198.146 194.375,198.256 194.554 C 198.455 194.876,196.057 195.699,194.922 195.699 C 193.787 195.699,191.389 194.876,191.587 194.554 C 191.698 194.375,191.483 194.253,191.109 194.282 C 190.733 194.312,190.478 194.105,190.537 193.819 C 190.596 193.534,190.475 193.406,190.268 193.534 C 189.749 193.854,187.836 191.722,188.077 191.093 C 188.185 190.813,188.117 190.680,187.927 190.798 C 187.483 191.072,187.026 189.904,187.364 189.358 C 187.507 189.126,187.438 189.055,187.208 189.197 C 186.718 189.500,186.075 186.885,185.710 183.100 C 185.569 181.647,185.297 180.360,185.104 180.241 C 184.911 180.122,184.853 179.863,184.975 179.665 C 185.097 179.467,184.933 179.407,184.611 179.531 C 182.673 180.274,177.248 174.509,176.665 171.087 C 176.310 169.002,176.476 166.306,176.941 166.594 C 177.122 166.706,177.172 166.419,177.050 165.955 C 176.886 165.327,176.961 165.193,177.343 165.429 C 177.685 165.641,177.761 165.594,177.572 165.288 C 177.277 164.811,178.758 162.060,179.226 162.216 C 179.372 162.265,179.551 162.129,179.623 161.914 C 179.695 161.699,179.936 161.304,180.159 161.035 C 180.437 160.700,180.114 160.735,179.132 161.145 C 178.345 161.474,177.505 161.623,177.266 161.476 C 176.985 161.302,176.944 161.388,177.149 161.720 C 177.385 162.102,177.251 162.176,176.623 162.012 C 176.083 161.871,175.872 161.941,176.037 162.207 C 176.202 162.474,175.991 162.544,175.451 162.403 C 174.988 162.281,174.695 162.322,174.800 162.493 C 175.548 163.702,160.359 164.360,155.687 163.321 C 151.499 162.389,149.572 161.705,149.853 161.249 C 150.008 160.999,149.943 160.926,149.699 161.077 C 149.167 161.406,147.220 160.547,147.493 160.104 C 147.605 159.923,147.395 159.890,147.027 160.032 C 146.575 160.205,146.447 160.141,146.636 159.836 C 146.810 159.555,146.716 159.461,146.389 159.586 C 145.655 159.868,140.914 155.516,141.185 154.810 C 141.302 154.506,141.249 154.348,141.067 154.460 C 140.589 154.756,138.560 150.854,138.828 150.156 C 138.973 149.779,138.893 149.668,138.606 149.845 C 138.301 150.034,138.229 149.853,138.379 149.279 C 138.520 148.739,138.450 148.529,138.183 148.693 C 137.917 148.858,137.847 148.648,137.988 148.107 C 138.109 147.644,138.058 147.358,137.874 147.471 C 137.433 147.744,136.950 145.118,137.282 144.253 C 137.425 143.882,137.400 143.721,137.228 143.895 C 137.055 144.069,136.729 143.096,136.503 141.734 C 136.178 139.772,136.030 139.442,135.792 140.142 M131.009 173.242 C 131.009 175.820,131.072 176.824,131.149 175.473 C 131.225 174.122,131.225 172.012,131.148 170.785 C 131.070 169.559,131.008 170.664,131.009 173.242 M268.905 179.297 C 268.905 182.412,268.966 183.687,269.040 182.129 C 269.114 180.571,269.114 178.022,269.040 176.465 C 268.966 174.907,268.905 176.182,268.905 179.297 M203.606 201.421 C 204.458 201.562,204.960 201.829,204.815 202.063 C 204.671 202.295,204.759 202.346,205.021 202.184 C 205.614 201.817,207.108 202.294,206.821 202.758 C 206.700 202.955,206.845 203.022,207.144 202.907 C 207.833 202.643,208.756 203.719,208.372 204.340 C 208.175 204.658,208.249 204.705,208.600 204.488 C 208.979 204.254,209.048 204.348,208.860 204.839 C 208.715 205.218,208.762 205.411,208.969 205.283 C 210.026 204.630,209.887 209.986,208.792 212.104 C 207.937 213.756,206.223 215.655,205.814 215.402 C 205.614 215.278,205.498 215.409,205.557 215.694 C 205.616 215.978,205.475 216.177,205.244 216.136 C 204.951 216.084,204.924 216.798,205.153 218.473 C 205.334 219.799,205.394 221.117,205.285 221.400 C 205.176 221.684,205.235 221.824,205.415 221.713 C 205.877 221.427,207.196 225.981,206.825 226.581 C 206.614 226.922,206.677 226.977,207.032 226.757 C 207.414 226.521,207.489 226.655,207.325 227.283 C 207.183 227.823,207.253 228.034,207.520 227.869 C 207.786 227.705,207.856 227.915,207.715 228.455 C 207.594 228.919,207.640 229.208,207.817 229.099 C 208.247 228.833,208.729 231.105,208.367 231.691 C 208.193 231.973,208.250 232.048,208.514 231.885 C 209.035 231.563,209.594 234.095,209.158 234.801 C 208.978 235.092,209.027 235.176,209.282 235.018 C 209.805 234.695,211.482 241.618,211.506 244.201 C 211.516 245.201,211.630 245.847,211.759 245.637 C 212.021 245.215,212.500 248.197,212.500 250.244 C 212.500 251.635,203.702 260.812,202.487 260.689 C 202.198 260.659,202.042 260.765,202.140 260.924 C 202.369 261.295,200.598 262.109,199.565 262.109 C 198.427 262.109,197.199 261.361,197.510 260.858 C 197.664 260.609,197.599 260.536,197.359 260.684 C 196.805 261.027,194.456 259.031,194.786 258.498 C 194.927 258.269,194.870 258.189,194.660 258.319 C 194.234 258.582,188.913 253.405,189.256 253.062 C 189.375 252.943,189.160 252.601,188.779 252.302 C 188.137 251.798,188.127 251.815,188.648 252.539 C 188.968 252.983,188.728 252.866,188.093 252.268 L 186.976 251.216 187.681 247.102 C 188.069 244.839,188.506 243.062,188.654 243.153 C 188.801 243.244,188.841 242.775,188.744 242.111 C 188.647 241.448,188.722 240.999,188.912 241.115 C 189.102 241.231,189.280 240.596,189.306 239.706 C 189.376 237.355,191.806 228.475,192.296 228.778 C 192.538 228.927,192.580 228.834,192.401 228.545 C 192.044 227.967,192.935 224.542,193.372 224.812 C 193.540 224.916,193.578 224.622,193.457 224.158 C 193.293 223.530,193.367 223.396,193.749 223.632 C 194.070 223.831,194.167 223.796,194.007 223.538 C 193.704 223.047,194.129 220.651,194.481 220.866 C 195.691 221.604,194.575 216.682,193.217 215.290 C 192.267 214.317,191.819 213.562,192.008 213.256 C 192.184 212.971,192.148 212.869,191.922 213.009 C 191.191 213.460,190.234 210.603,190.234 207.972 C 190.234 206.547,190.391 205.519,190.589 205.642 C 190.783 205.762,190.860 205.544,190.759 205.157 C 190.328 203.509,194.178 201.248,196.617 201.715 C 197.500 201.885,197.685 201.843,197.266 201.568 C 196.591 201.126,201.177 201.020,203.606 201.421 M130.169 236.328 C 130.169 237.080,130.249 237.388,130.347 237.012 C 130.446 236.636,130.446 236.021,130.347 235.645 C 130.249 235.269,130.169 235.576,130.169 236.328 M208.182 254.980 L 206.836 256.445 208.301 255.099 C 209.664 253.846,209.945 253.516,209.647 253.516 C 209.582 253.516,208.922 254.175,208.182 254.980 " stroke="none" fill="#56d4eb" fill-rule="evenodd"></path><path id="path3" d="M190.039 95.346 C 171.117 96.874,153.452 104.950,148.290 114.434 C 146.905 116.979,146.798 116.914,151.558 116.425 C 160.254 115.533,173.276 116.036,181.250 117.573 C 188.501 118.970,191.638 120.854,192.683 124.438 L 193.202 126.217 199.896 126.292 L 206.591 126.367 206.815 125.169 C 208.033 118.672,216.797 116.208,238.672 116.214 C 245.225 116.216,251.057 116.348,251.633 116.508 L 252.680 116.798 251.678 115.005 C 244.020 101.303,218.213 93.073,190.039 95.346 M206.009 95.706 C 227.583 96.959,245.721 104.659,251.195 114.888 C 251.824 116.062,251.884 116.055,244.561 115.616 C 236.766 115.148,227.838 115.580,220.500 116.780 C 211.509 118.251,208.714 119.656,206.990 123.572 L 206.055 125.696 199.903 125.714 L 193.751 125.732 192.914 123.787 C 190.819 118.918,184.398 116.722,169.096 115.642 C 163.747 115.264,150.627 115.653,148.730 116.245 C 145.869 117.139,151.603 110.014,156.430 106.677 C 166.931 99.417,178.642 96.252,198.242 95.376 C 198.887 95.347,202.382 95.496,206.009 95.706 M259.766 105.722 C 257.889 106.068,255.266 107.054,254.350 107.759 L 253.426 108.470 255.229 110.918 C 256.220 112.265,257.031 113.612,257.031 113.910 C 257.031 114.287,257.539 114.456,258.691 114.462 C 264.120 114.490,267.292 120.451,264.199 124.813 C 263.439 125.885,263.409 126.166,263.816 128.380 L 264.258 130.783 265.792 129.995 C 278.280 123.580,273.231 103.242,259.766 105.722 M134.570 106.339 C 126.546 109.199,124.338 119.921,130.388 126.644 C 132.019 128.457,134.638 130.469,135.365 130.469 C 136.357 130.469,136.459 126.447,135.513 124.631 C 133.013 119.836,135.967 114.453,141.098 114.453 C 141.912 114.453,142.578 114.291,142.578 114.093 C 142.578 113.895,143.354 112.575,144.303 111.161 L 146.028 108.588 144.401 107.638 C 141.254 105.802,137.477 105.303,134.570 106.339 M142.871 107.406 C 145.243 108.528,145.744 109.062,144.907 109.579 C 144.684 109.717,143.964 110.782,143.307 111.946 C 142.314 113.706,141.932 114.063,141.037 114.063 C 135.669 114.063,132.798 118.894,134.924 124.347 C 135.647 126.203,135.805 127.149,135.608 128.458 L 135.352 130.157 133.398 128.816 C 121.073 120.348,129.581 101.118,142.871 107.406 M266.211 107.174 C 274.989 111.294,274.848 124.791,265.979 129.316 L 264.540 130.050 264.276 127.940 C 264.081 126.380,264.163 125.595,264.592 124.927 C 267.688 120.097,264.595 114.063,259.023 114.063 C 257.822 114.063,257.419 113.889,257.229 113.289 C 257.094 112.863,256.285 111.588,255.432 110.456 L 253.880 108.398 256.139 107.325 C 259.189 105.877,263.315 105.815,266.211 107.174 M195.844 134.636 L 193.837 134.803 193.568 137.421 C 192.730 145.596,189.945 151.882,185.033 156.690 C 183.919 157.780,183.380 158.485,183.835 158.256 C 188.113 156.106,192.804 146.994,193.835 138.829 L 194.299 135.156 200.061 135.156 L 205.824 135.156 206.007 136.426 C 206.107 137.124,206.379 139.077,206.612 140.766 C 207.476 147.044,209.884 152.056,214.063 156.274 L 216.602 158.836 214.011 158.064 L 211.420 157.292 210.813 155.108 C 207.820 144.344,190.513 144.928,188.529 155.859 C 188.297 157.141,184.642 159.013,183.080 158.651 C 182.905 158.610,182.290 158.899,181.713 159.293 C 173.931 164.611,156.812 165.005,147.571 160.079 C 141.403 156.792,137.644 149.939,136.862 140.559 C 136.701 138.631,136.476 137.643,136.271 137.962 C 135.462 139.220,133.609 144.596,133.051 147.302 C 131.687 153.924,131.547 157.063,131.263 187.305 C 131.106 204.063,130.740 225.202,130.450 234.281 C 129.846 253.133,130.132 259.941,131.802 266.515 C 138.064 291.158,164.609 304.751,204.599 303.793 C 233.975 303.090,255.581 293.306,263.866 276.955 L 264.808 275.096 263.409 274.869 C 258.168 274.019,257.811 272.739,257.821 254.857 C 257.832 235.894,258.239 234.768,265.198 234.439 C 266.829 234.362,268.340 234.118,268.555 233.898 C 269.405 233.025,262.774 233.984,261.069 234.980 C 257.590 237.013,257.633 236.785,257.502 254.097 C 257.362 272.666,257.578 273.572,262.518 275.051 C 264.467 275.635,264.494 275.477,261.754 279.564 C 251.216 295.283,230.056 303.544,200.432 303.508 C 160.997 303.459,135.703 288.385,131.329 262.325 C 130.559 257.739,130.503 236.751,131.220 221.484 C 131.447 216.650,131.635 201.533,131.638 187.891 C 131.645 156.603,132.188 149.557,135.202 141.598 L 136.088 139.258 136.765 143.164 C 138.388 152.534,141.585 157.488,148.134 160.786 C 155.867 164.680,168.935 165.109,177.579 161.752 L 180.480 160.626 179.246 162.031 C 174.283 167.685,176.300 175.872,183.499 179.290 L 185.433 180.208 185.850 184.045 C 186.838 193.139,192.738 198.061,198.544 194.636 L 200.000 193.776 201.434 194.623 C 207.488 198.194,214.040 191.883,214.069 182.454 L 214.076 180.273 216.165 179.369 C 223.201 176.325,225.694 168.115,221.323 162.383 L 220.340 161.095 223.549 162.164 C 232.395 165.112,245.215 164.461,252.371 160.701 C 258.626 157.414,263.382 148.985,263.699 140.625 C 263.824 137.322,266.633 147.784,267.421 154.492 C 267.942 158.914,268.130 166.576,268.407 194.531 C 268.595 213.545,268.912 230.332,269.110 231.836 C 269.439 234.329,269.453 234.209,269.276 230.469 C 269.170 228.213,268.938 211.162,268.761 192.578 C 268.386 153.208,268.104 149.385,264.986 141.464 C 263.584 137.900,263.433 137.855,263.149 140.914 C 261.833 155.067,255.121 161.760,240.685 163.314 C 220.979 165.435,206.698 154.553,206.635 137.368 C 206.631 136.474,206.494 135.531,206.330 135.272 C 206.003 134.757,199.280 134.350,195.844 134.636 M204.983 148.825 C 208.151 150.187,210.398 153.224,210.614 156.435 C 210.696 157.656,210.816 157.764,212.329 157.991 C 224.592 159.830,226.950 175.155,215.590 179.190 L 213.778 179.833 213.552 183.323 C 212.955 192.535,206.831 197.746,201.051 193.958 C 200.096 193.333,199.916 193.324,199.086 193.869 C 192.703 198.051,187.063 193.071,186.120 182.418 L 185.895 179.875 184.179 179.165 C 173.636 174.804,175.006 161.640,186.352 158.297 L 188.587 157.638 189.041 155.606 C 190.479 149.182,198.190 145.902,204.983 148.825 M195.406 201.562 C 189.196 202.876,188.186 210.042,193.445 215.490 L 195.011 217.112 194.389 219.982 C 194.047 221.560,193.059 225.137,192.195 227.930 C 190.491 233.435,189.199 238.892,187.823 246.395 L 186.944 251.188 190.835 255.127 C 199.653 264.054,199.646 264.054,207.775 256.147 C 212.153 251.889,212.500 251.444,212.499 250.092 C 212.496 246.452,210.076 235.609,207.202 226.350 C 204.624 218.049,204.577 217.232,206.554 215.088 C 210.919 210.353,210.828 204.244,206.363 202.266 C 204.250 201.329,198.308 200.947,195.406 201.562 M206.116 202.599 C 210.443 204.750,210.350 210.261,205.903 215.184 C 203.942 217.354,203.931 217.257,207.527 228.911 C 209.273 234.570,211.620 245.036,211.953 248.650 L 212.207 251.401 206.916 256.349 C 199.518 263.269,199.901 263.279,192.380 255.944 L 187.461 251.145 188.276 246.373 C 189.259 240.624,191.223 232.502,193.320 225.516 C 195.764 217.374,195.772 217.096,193.622 214.907 C 189.796 211.012,189.451 204.749,192.963 202.933 C 195.945 201.391,203.309 201.204,206.116 202.599 " stroke="none" fill="#8ef7f7" fill-rule="evenodd"></path><path id="path4" d="M188.579 175.276 C 189.065 175.370,189.768 175.366,190.141 175.268 C 190.515 175.171,190.117 175.094,189.258 175.099 C 188.398 175.103,188.093 175.183,188.579 175.276 M188.770 176.051 C 189.146 176.149,189.761 176.149,190.137 176.051 C 190.513 175.952,190.205 175.872,189.453 175.872 C 188.701 175.872,188.394 175.952,188.770 176.051 M209.673 176.058 C 210.158 176.151,210.862 176.147,211.235 176.050 C 211.608 175.952,211.211 175.875,210.352 175.880 C 209.492 175.884,209.187 175.964,209.673 176.058 M272.397 210.156 C 272.397 211.768,272.466 212.427,272.550 211.621 C 272.634 210.815,272.634 209.497,272.550 208.691 C 272.466 207.886,272.397 208.545,272.397 210.156 M126.653 212.891 C 126.653 213.643,126.734 213.950,126.832 213.574 C 126.930 213.198,126.930 212.583,126.832 212.207 C 126.734 211.831,126.653 212.139,126.653 212.891 M275.895 233.202 L 275.977 234.373 281.348 234.374 L 286.719 234.375 286.719 233.203 L 286.719 232.031 281.266 232.031 L 275.813 232.031 275.895 233.202 M264.258 238.958 C 262.932 239.289,262.903 239.631,262.897 254.757 C 262.890 270.555,262.909 270.703,264.872 270.703 C 265.603 270.703,265.625 270.245,265.625 254.688 C 265.625 245.879,265.493 238.692,265.332 238.717 C 265.171 238.742,264.688 238.850,264.258 238.958 M270.781 239.141 C 270.464 239.458,270.313 241.272,270.313 244.748 L 270.313 249.887 272.949 250.136 C 278.035 250.616,279.137 250.498,279.859 249.395 C 281.979 246.161,287.619 246.069,289.364 249.240 L 290.039 250.466 294.336 250.257 C 300.866 249.938,300.391 250.360,300.391 244.876 C 300.391 238.087,301.839 238.672,285.039 238.672 C 274.835 238.672,271.128 238.794,270.781 239.141 M304.816 243.945 C 304.817 245.449,304.888 246.017,304.973 245.206 C 305.057 244.396,305.056 243.165,304.969 242.472 C 304.883 241.778,304.814 242.441,304.816 243.945 M304.824 253.125 C 304.824 254.951,304.891 255.698,304.974 254.785 C 305.056 253.872,305.056 252.378,304.974 251.465 C 304.891 250.552,304.824 251.299,304.824 253.125 M270.313 262.088 L 270.313 270.703 284.570 270.703 C 302.314 270.703,300.391 271.841,300.391 261.341 L 300.391 253.541 295.215 253.782 C 291.455 253.956,289.953 254.168,289.723 254.556 C 287.825 257.767,283.068 258.248,280.448 255.494 L 279.052 254.027 274.682 253.750 L 270.313 253.474 270.313 262.088 M304.844 263.086 C 304.844 266.309,304.905 267.575,304.978 265.900 C 305.052 264.225,305.051 261.589,304.977 260.041 C 304.903 258.493,304.843 259.863,304.844 263.086 " stroke="none" fill="#99723f" fill-rule="evenodd"></path><path id="path5" d="M163.184 158.869 C 163.667 158.963,164.458 158.963,164.941 158.869 C 165.425 158.776,165.029 158.700,164.063 158.700 C 163.096 158.700,162.700 158.776,163.184 158.869 M163.770 163.551 C 164.146 163.649,164.761 163.649,165.137 163.551 C 165.513 163.452,165.205 163.372,164.453 163.372 C 163.701 163.372,163.394 163.452,163.770 163.551 " stroke="none" fill="#3c7f90" fill-rule="evenodd"></path><path id="path6" d="M277.841 117.578 C 277.841 118.545,277.917 118.940,278.010 118.457 C 278.103 117.974,278.103 117.183,278.010 116.699 C 277.917 116.216,277.841 116.611,277.841 117.578 M123.232 125.408 C 123.093 125.632,123.177 126.053,123.418 126.343 C 123.658 126.633,123.805 127.087,123.744 127.351 C 123.683 127.616,123.815 127.900,124.037 127.983 C 124.260 128.066,124.442 127.781,124.442 127.348 C 124.442 126.916,124.293 126.563,124.112 126.563 C 123.931 126.563,123.891 126.387,124.023 126.172 C 124.156 125.957,124.068 125.781,123.828 125.781 C 123.588 125.781,123.500 125.605,123.633 125.391 C 123.766 125.176,123.786 125.000,123.679 125.000 C 123.571 125.000,123.370 125.183,123.232 125.408 M125.781 129.730 C 125.280 130.091,125.290 130.122,125.850 129.943 C 126.542 129.722,127.518 130.555,127.080 130.993 C 126.939 131.134,127.147 131.250,127.542 131.250 C 128.188 131.250,128.167 131.150,127.344 130.273 C 126.839 129.736,126.413 129.300,126.397 129.303 C 126.380 129.306,126.104 129.499,125.781 129.730 M258.711 133.203 C 258.711 134.385,258.784 134.868,258.874 134.277 C 258.963 133.687,258.963 132.720,258.874 132.129 C 258.784 131.538,258.711 132.021,258.711 133.203 M188.789 133.984 C 188.789 135.166,188.862 135.649,188.952 135.059 C 189.041 134.468,189.041 133.501,188.952 132.910 C 188.862 132.319,188.789 132.803,188.789 133.984 M130.984 184.766 C 130.984 186.162,131.055 186.733,131.142 186.035 C 131.229 185.337,131.229 184.194,131.142 183.496 C 131.055 182.798,130.984 183.369,130.984 184.766 M268.841 193.750 C 268.841 194.502,268.921 194.810,269.019 194.434 C 269.118 194.058,269.118 193.442,269.019 193.066 C 268.921 192.690,268.841 192.998,268.841 193.750 M130.950 208.984 C 130.950 209.736,131.030 210.044,131.129 209.668 C 131.227 209.292,131.227 208.677,131.129 208.301 C 131.030 207.925,130.950 208.232,130.950 208.984 M268.841 214.063 C 268.841 214.814,268.921 215.122,269.019 214.746 C 269.118 214.370,269.118 213.755,269.019 213.379 C 268.921 213.003,268.841 213.311,268.841 214.063 M130.169 231.641 C 130.169 232.393,130.249 232.700,130.347 232.324 C 130.446 231.948,130.446 231.333,130.347 230.957 C 130.249 230.581,130.169 230.889,130.169 231.641 M123.343 268.786 C 123.606 269.128,123.731 269.498,123.620 269.609 C 123.509 269.720,123.657 270.009,123.949 270.251 C 124.355 270.588,124.479 270.555,124.479 270.113 C 124.479 269.795,124.116 269.226,123.672 268.849 C 123.069 268.337,122.986 268.321,123.343 268.786 M136.523 286.719 C 136.391 286.934,136.336 287.123,136.403 287.139 C 137.689 287.458,137.908 287.405,137.474 286.883 C 136.927 286.223,136.839 286.208,136.523 286.719 M139.196 289.717 C 139.341 289.862,139.063 290.434,138.578 290.987 L 137.695 291.992 138.757 291.057 C 139.686 290.238,139.888 289.453,139.170 289.453 C 139.039 289.453,139.051 289.572,139.196 289.717 M198.744 304.195 C 199.879 304.274,201.637 304.273,202.650 304.193 C 203.663 304.113,202.734 304.048,200.586 304.049 C 198.438 304.050,197.608 304.116,198.744 304.195 M135.312 305.957 C 135.157 306.226,135.179 306.310,135.361 306.145 C 135.542 305.981,136.318 306.420,137.084 307.122 L 138.477 308.398 137.130 306.934 C 135.595 305.263,135.684 305.311,135.312 305.957 M193.657 308.870 C 194.143 308.963,194.846 308.960,195.219 308.862 C 195.593 308.764,195.195 308.688,194.336 308.692 C 193.477 308.697,193.171 308.777,193.657 308.870 " stroke="none" fill="#28647c" fill-rule="evenodd"></path><path id="path7" d="M130.966 179.297 C 130.966 180.264,131.042 180.659,131.135 180.176 C 131.228 179.692,131.228 178.901,131.135 178.418 C 131.042 177.935,130.966 178.330,130.966 179.297 M268.856 187.891 C 268.856 188.857,268.933 189.253,269.026 188.770 C 269.119 188.286,269.119 187.495,269.026 187.012 C 268.933 186.528,268.856 186.924,268.856 187.891 " stroke="none" fill="#3c9fb2" fill-rule="evenodd"></path><path id="path8" d="M235.254 163.551 C 235.630 163.649,236.245 163.649,236.621 163.551 C 236.997 163.452,236.689 163.372,235.938 163.372 C 235.186 163.372,234.878 163.452,235.254 163.551 M201.661 179.883 C 201.665 180.742,201.745 181.048,201.839 180.562 C 201.932 180.076,201.929 179.373,201.831 178.999 C 201.733 178.626,201.657 179.023,201.661 179.883 M201.699 184.766 C 201.699 186.592,201.766 187.339,201.849 186.426 C 201.931 185.513,201.931 184.019,201.849 183.105 C 201.766 182.192,201.699 182.939,201.699 184.766 " stroke="none" fill="#449ca4" fill-rule="evenodd"></path></g></svg>