<svg id="svg" version="1.1" xmlns="http://www.w3.org/2000/svg" xmlns:xlink="http://www.w3.org/1999/xlink" width="400" height="400" viewBox="0, 0, 400,400"><g id="svgg"><path id="path0" d="M183.377 27.541 C 161.335 30.076,143.346 38.247,129.590 51.973 C 124.614 56.938,124.590 57.009,128.027 56.505 C 133.051 55.770,164.000 55.958,169.336 56.756 C 181.814 58.624,185.933 60.667,188.317 66.173 L 189.258 68.346 198.047 68.351 L 206.836 68.356 207.550 66.621 C 209.835 61.063,215.820 58.050,227.927 56.360 C 233.410 55.595,256.224 55.437,261.523 56.127 C 263.242 56.351,264.695 56.497,264.751 56.452 C 265.596 55.778,256.068 46.314,250.586 42.382 C 234.658 30.957,206.924 24.833,183.377 27.541 M112.220 35.567 C 105.873 38.079,102.454 46.596,105.443 52.447 C 107.141 55.769,111.444 59.534,112.775 58.861 C 113.376 58.558,114.754 58.019,115.838 57.665 C 117.384 57.160,118.111 56.617,119.208 55.148 C 120.802 53.013,120.802 53.013,117.843 50.634 C 115.723 48.930,115.023 47.608,115.636 46.463 C 116.601 44.660,119.165 45.294,122.070 48.054 L 123.633 49.538 127.271 46.120 L 130.910 42.702 127.936 39.926 C 122.725 35.059,117.302 33.555,112.220 35.567 M270.209 36.083 C 267.980 36.913,264.626 39.047,262.371 41.069 L 260.352 42.881 262.698 45.366 C 263.988 46.733,265.606 48.507,266.293 49.309 L 267.541 50.766 269.493 48.865 C 272.908 45.539,276.499 44.438,277.158 46.513 C 277.630 48.002,276.966 49.163,274.604 50.980 C 270.907 53.825,270.301 56.589,273.242 57.190 C 273.672 57.277,275.848 57.773,278.077 58.291 L 282.131 59.233 283.087 58.230 C 288.909 52.115,289.020 44.286,283.359 39.068 C 280.022 35.992,274.076 34.642,270.209 36.083 M136.328 62.161 C 120.192 63.624,116.740 69.171,119.325 89.479 C 121.668 107.890,127.561 113.995,144.586 115.650 C 158.836 117.035,169.200 114.167,174.607 107.343 C 175.729 105.926,175.511 106.061,173.211 108.203 C 153.295 126.753,123.303 100.854,138.254 78.017 C 151.403 57.935,182.389 67.986,181.131 91.924 C 180.897 96.394,181.058 96.541,181.804 92.538 C 185.005 75.361,183.126 67.473,175.110 64.447 C 169.143 62.195,149.034 61.010,136.328 62.161 M235.954 62.119 C 223.042 62.852,217.314 65.054,214.416 70.399 L 213.086 72.852 213.107 79.297 C 213.130 86.023,213.915 92.642,215.032 95.508 C 215.367 96.367,215.536 96.631,215.408 96.094 C 209.339 70.678,243.131 56.148,257.449 78.017 C 270.376 97.762,250.430 120.926,227.930 112.298 C 227.230 112.030,227.210 112.062,227.734 112.605 C 231.316 116.316,253.022 116.519,261.161 112.918 C 269.944 109.033,274.373 98.987,274.889 81.780 C 275.430 63.736,268.566 60.269,235.954 62.119 M193.888 77.770 C 191.370 78.500,190.432 79.907,189.879 83.789 C 189.180 88.693,187.944 94.370,187.078 96.656 C 186.172 99.047,185.886 98.941,190.039 97.761 C 194.798 96.409,201.443 96.327,206.041 97.564 C 209.760 98.564,209.556 98.696,208.600 95.917 C 207.626 93.087,206.385 86.707,206.019 82.656 C 205.690 79.003,205.231 78.390,202.366 77.776 C 199.997 77.268,195.633 77.265,193.888 77.770 M113.185 89.453 C 113.050 89.775,112.405 93.115,111.753 96.875 C 109.370 110.601,108.949 116.221,108.588 139.063 C 108.420 149.697,108.152 159.004,107.992 159.745 C 107.688 161.154,105.564 163.672,104.681 163.672 C 101.693 163.672,83.528 175.441,78.667 180.526 C 66.138 193.632,82.567 195.316,103.465 183.069 C 105.387 181.942,106.062 181.721,106.640 182.031 C 107.141 182.299,107.456 182.293,107.629 182.012 C 108.361 180.828,108.666 182.379,108.829 188.096 C 110.221 237.068,119.282 258.282,143.945 270.316 C 172.195 284.099,219.939 284.480,248.204 271.147 C 259.835 265.661,267.456 258.295,273.811 246.397 L 275.839 242.600 275.564 232.140 C 275.223 219.170,275.716 217.615,280.926 215.222 C 283.628 213.981,283.410 214.554,283.941 207.297 C 286.387 173.918,285.079 117.184,281.375 95.983 L 280.298 89.817 279.791 92.858 C 277.527 106.444,273.367 113.333,264.962 117.418 C 257.017 121.280,243.001 122.551,233.028 120.315 C 231.105 119.884,229.498 119.531,229.457 119.531 C 229.416 119.531,229.317 120.806,229.237 122.363 C 228.920 128.555,224.419 133.060,217.714 133.898 L 215.458 134.180 214.998 137.695 C 214.069 144.802,213.210 146.947,210.584 148.717 C 207.802 150.592,203.224 150.959,199.990 149.568 C 198.163 148.782,197.993 148.773,196.234 149.372 C 187.875 152.221,182.499 148.576,181.096 139.108 C 180.388 134.330,180.742 134.862,177.917 134.340 C 171.052 133.071,167.188 128.672,167.188 122.126 C 167.188 119.363,167.119 119.083,166.504 119.321 C 161.175 121.378,147.517 122.188,140.035 120.890 C 122.324 117.817,115.705 110.106,113.556 90.039 C 113.475 89.285,113.342 89.076,113.185 89.453 M208.956 160.923 C 211.111 162.075,210.910 163.215,207.242 170.650 L 203.823 177.580 208.357 197.091 C 210.851 207.822,212.989 216.960,213.110 217.397 C 213.430 218.560,212.419 219.659,204.997 226.221 C 197.380 232.956,196.964 233.217,195.449 232.224 C 193.232 230.772,180.921 219.420,180.718 218.641 C 180.533 217.934,184.256 201.014,188.487 183.328 L 189.812 177.789 186.508 170.945 C 182.949 163.574,182.756 162.830,184.052 161.451 L 184.902 160.547 196.578 160.547 C 203.306 160.547,208.552 160.706,208.956 160.923 M290.102 174.320 C 289.645 188.434,289.681 189.168,290.880 190.264 C 291.941 191.234,296.051 197.393,298.364 201.478 C 302.323 208.470,308.452 206.763,307.648 198.893 C 306.923 191.803,301.563 180.661,294.245 171.032 C 290.042 165.503,290.397 165.221,290.102 174.320 " stroke="none" fill="#5ac3da" fill-rule="evenodd"></path><path id="path1" d="M189.648 22.116 C 167.693 23.899,151.185 28.909,138.259 37.710 L 135.263 39.751 131.746 36.326 C 128.970 33.623,127.504 32.543,124.788 31.197 L 121.348 29.492 116.806 29.492 C 100.364 29.492,92.836 48.578,104.583 60.482 C 106.466 62.390,106.947 63.105,106.687 63.607 C 104.849 67.156,106.242 73.006,109.312 74.637 C 110.029 75.018,110.682 75.395,110.762 75.476 C 110.843 75.556,110.650 76.482,110.334 77.533 C 109.239 81.170,107.068 92.021,106.072 98.828 C 104.162 111.888,103.846 116.993,103.630 138.281 L 103.426 158.398 96.973 161.914 C 77.409 172.572,69.351 180.150,69.353 187.891 C 69.356 198.893,80.914 200.006,100.071 190.848 C 104.019 188.961,103.906 188.888,103.907 193.294 C 103.911 224.654,111.133 248.478,125.213 263.581 L 128.587 267.201 126.182 270.914 C 121.815 277.655,120.866 281.690,122.666 285.873 C 126.977 295.895,146.191 293.707,152.626 282.461 C 153.192 281.473,153.699 280.603,153.754 280.528 C 153.808 280.453,155.930 280.927,158.469 281.580 C 180.543 287.264,210.616 287.506,232.935 282.178 C 235.259 281.624,237.206 281.232,237.262 281.308 C 237.318 281.383,237.966 282.303,238.702 283.351 C 244.020 290.930,255.614 294.620,263.288 291.177 C 270.993 287.719,271.607 279.960,264.880 271.072 L 262.942 268.511 266.725 264.620 C 268.805 262.481,271.646 259.100,273.037 257.109 C 275.907 252.998,276.099 253.036,276.144 257.727 C 276.196 263.043,276.683 263.561,283.584 265.637 C 289.982 267.561,289.481 267.566,306.716 265.431 C 337.018 261.677,336.734 261.747,339.395 257.408 L 340.704 255.273 340.466 244.336 C 339.778 212.705,338.745 210.069,327.051 210.098 C 323.007 210.107,322.656 210.050,322.656 209.374 C 322.656 204.679,317.786 198.179,313.250 196.820 C 311.892 196.413,311.822 196.296,310.827 192.756 C 308.115 183.106,301.828 172.250,293.457 162.762 L 289.844 158.667 289.839 151.892 C 289.817 122.942,286.364 84.864,282.955 75.981 C 282.795 75.563,282.984 75.391,283.604 75.391 C 287.339 75.391,289.301 69.499,287.351 64.141 L 286.740 62.463 288.487 60.318 C 294.884 52.464,294.497 42.443,287.530 35.542 C 278.906 27.000,268.240 27.676,258.158 37.404 L 255.964 39.520 253.896 37.955 C 239.633 27.160,211.856 20.312,189.648 22.116 M204.883 27.381 C 231.544 29.748,251.106 38.733,263.308 54.217 C 265.286 56.726,265.363 56.638,261.523 56.253 C 255.011 55.599,244.123 55.410,236.676 55.821 C 218.241 56.840,210.297 59.902,207.441 67.090 L 206.936 68.359 198.053 68.359 L 189.169 68.359 188.510 66.634 C 185.396 58.480,175.842 56.026,147.461 56.090 C 138.863 56.110,130.343 56.315,128.516 56.546 C 124.304 57.079,124.300 57.330,128.573 52.908 C 143.764 37.183,164.120 28.548,190.039 26.832 C 192.672 26.658,199.633 26.915,204.883 27.381 M122.851 35.958 C 123.925 36.474,126.175 38.206,127.851 39.807 L 130.898 42.719 127.469 46.164 C 123.581 50.071,123.721 50.007,122.419 48.459 C 119.879 45.440,115.937 44.686,115.698 47.173 C 115.566 48.537,116.193 49.333,119.340 51.796 L 120.887 53.006 119.245 55.180 C 118.042 56.774,117.262 57.428,116.322 57.632 C 115.616 57.785,114.291 58.259,113.377 58.686 L 111.715 59.463 110.057 58.006 C 105.817 54.283,104.306 51.543,104.301 47.563 C 104.287 37.974,114.171 31.791,122.851 35.958 M279.577 36.525 C 288.299 40.462,290.223 50.345,283.704 57.728 L 282.227 59.401 278.368 58.412 C 276.246 57.867,274.105 57.422,273.611 57.422 C 272.659 57.422,271.094 55.775,271.094 54.774 C 271.094 54.215,273.567 51.597,275.869 49.719 C 277.944 48.026,277.628 45.703,275.323 45.703 C 273.726 45.703,272.068 46.648,269.641 48.943 L 267.558 50.914 265.532 48.602 C 264.418 47.330,262.733 45.560,261.786 44.669 L 260.065 43.049 261.724 41.544 C 268.412 35.475,273.859 33.944,279.577 36.525 M162.129 62.138 C 181.677 63.696,184.852 67.561,182.644 87.109 C 182.044 92.417,181.445 95.478,180.817 96.450 C 180.502 96.935,180.465 96.858,180.645 96.094 C 183.597 83.572,175.255 70.412,162.695 67.775 C 145.887 64.246,130.882 79.969,135.147 96.642 C 140.153 116.218,165.677 120.721,176.753 103.984 C 178.140 101.887,178.409 101.872,177.258 103.955 C 172.069 113.345,160.436 117.382,143.578 115.644 C 126.133 113.845,120.311 106.419,118.724 83.943 C 117.755 70.219,120.707 64.653,129.883 62.905 C 136.010 61.738,152.265 61.351,162.129 62.138 M263.143 62.644 C 274.011 64.912,276.917 72.104,274.357 90.406 C 271.896 108.010,265.531 114.123,248.086 115.637 C 240.052 116.335,228.002 114.389,227.186 112.261 C 226.962 111.679,227.553 111.501,227.892 112.048 C 228.589 113.177,234.154 114.151,238.817 113.960 C 262.238 113.003,269.799 82.523,249.575 70.593 C 232.033 60.245,210.467 76.216,215.570 95.776 C 216.423 99.044,215.911 98.871,214.884 95.545 C 213.596 91.377,213.090 86.847,213.088 79.492 L 213.086 72.461 214.237 70.383 C 218.037 63.523,226.088 61.608,249.805 61.922 C 257.152 62.020,261.198 62.239,263.143 62.644 M163.366 73.041 C 178.388 77.681,181.226 97.654,168.142 106.656 C 157.143 114.224,141.488 107.166,139.402 93.698 C 137.317 80.245,150.342 69.018,163.366 73.041 M243.324 73.006 C 254.483 76.479,259.905 89.591,254.382 99.744 C 246.387 114.438,224.315 111.951,220.130 95.885 C 216.419 81.637,229.524 68.711,243.324 73.006 M204.408 78.412 C 205.623 79.121,205.648 79.200,206.301 84.194 C 207.055 89.964,207.822 93.519,208.958 96.510 C 209.825 98.792,209.792 99.076,208.725 98.513 C 205.037 96.567,196.306 96.222,190.493 97.791 C 185.644 99.100,185.846 99.135,186.735 97.124 C 187.673 95.005,188.801 90.192,189.678 84.570 C 190.380 80.071,190.778 79.251,192.757 78.228 C 195.310 76.907,202.013 77.013,204.408 78.412 M159.478 82.640 C 153.775 86.058,154.261 96.013,160.277 99.011 C 165.919 101.822,171.875 97.613,171.875 90.814 C 171.875 83.843,165.016 79.321,159.478 82.640 M234.704 82.408 C 226.809 86.700,229.513 99.983,238.281 99.983 C 249.021 99.983,249.261 82.277,238.529 81.749 C 236.713 81.660,235.787 81.819,234.704 82.408 M167.560 85.721 C 168.307 86.620,167.908 88.067,166.873 88.214 C 165.145 88.459,164.274 86.954,165.458 85.770 C 166.223 85.005,166.952 84.988,167.560 85.721 M242.563 86.114 C 243.605 87.370,242.067 89.053,240.597 88.266 C 239.872 87.878,239.565 86.346,240.104 85.807 C 240.568 85.343,242.079 85.532,242.563 86.114 M115.587 100.755 C 116.690 104.972,118.588 109.024,120.670 111.608 C 127.989 120.693,147.406 123.936,166.602 119.280 C 167.335 119.102,167.384 119.291,167.397 122.338 C 167.427 128.991,171.508 133.433,178.374 134.286 C 180.650 134.569,180.665 134.579,180.767 135.938 C 181.568 146.632,184.730 150.373,192.578 149.915 C 194.189 149.821,196.021 149.473,196.649 149.142 C 197.706 148.585,197.923 148.602,199.579 149.362 C 202.211 150.571,206.944 150.527,209.498 149.269 C 212.709 147.688,213.994 144.935,214.925 137.643 L 215.381 134.075 217.448 133.832 C 224.456 133.008,228.786 128.696,229.208 122.121 L 229.389 119.302 232.175 120.010 C 242.424 122.613,256.582 121.380,265.234 117.131 C 273.087 113.275,277.153 106.676,279.465 94.037 L 280.322 89.349 281.370 95.358 C 285.081 116.652,286.540 173.996,284.175 205.614 C 283.855 209.883,283.594 213.605,283.594 213.884 C 283.594 214.163,283.080 214.504,282.452 214.642 C 276.329 215.987,275.046 219.693,275.690 234.180 L 276.038 241.992 274.189 245.720 C 264.815 264.619,247.554 275.364,220.313 279.261 C 182.128 284.722,146.030 277.041,128.887 259.807 C 115.392 246.239,110.194 228.002,108.744 189.130 C 108.484 182.168,108.455 181.976,107.677 182.180 C 107.237 182.295,106.683 182.229,106.447 182.032 C 106.170 181.803,104.911 182.310,102.911 183.459 C 83.366 194.678,68.049 194.090,76.794 182.457 C 80.536 177.478,102.865 162.350,104.751 163.516 C 105.071 163.714,107.447 161.242,107.492 160.665 C 107.505 160.492,107.650 159.996,107.815 159.563 C 107.980 159.129,108.233 151.394,108.377 142.375 C 108.766 117.911,109.372 109.625,111.749 96.289 C 113.282 87.686,113.266 87.709,114.053 92.969 C 114.422 95.439,115.112 98.943,115.587 100.755 M204.140 103.700 C 207.222 105.720,203.235 109.379,197.962 109.371 C 191.326 109.361,187.944 104.316,193.737 103.068 C 196.040 102.572,203.070 102.999,204.140 103.700 M220.063 110.991 C 223.770 114.363,224.805 116.537,224.805 120.959 C 224.805 126.941,221.827 129.492,214.844 129.492 L 211.133 129.492 205.664 126.922 L 200.195 124.352 200.195 121.700 L 200.195 119.048 202.734 118.408 C 208.409 116.978,212.302 113.161,213.460 107.890 L 213.736 106.632 215.689 107.710 C 216.763 108.304,218.732 109.780,220.063 110.991 M183.279 109.682 C 184.751 113.627,188.898 117.064,193.750 118.361 C 195.922 118.942,196.080 119.184,196.088 121.942 L 196.094 124.158 190.723 126.984 C 172.994 136.312,163.900 121.908,179.551 109.291 C 182.278 107.093,182.315 107.097,183.279 109.682 M196.094 136.345 L 196.094 142.956 194.954 144.232 C 193.883 145.431,193.657 145.508,191.213 145.508 C 187.526 145.508,186.316 144.200,185.403 139.223 C 184.513 134.377,184.450 134.598,187.012 133.639 C 188.247 133.177,190.664 132.046,192.383 131.125 C 196.355 128.997,196.094 128.630,196.094 136.345 M204.681 131.285 C 206.901 132.378,209.325 133.371,210.068 133.491 L 211.418 133.710 211.162 136.300 C 210.459 143.438,209.097 145.695,205.302 146.010 C 200.250 146.429,199.609 145.319,199.609 136.152 C 199.609 128.126,199.154 128.563,204.681 131.285 M184.118 161.549 C 182.772 162.896,182.902 163.375,186.723 171.156 L 189.906 177.637 185.548 196.338 C 183.151 206.624,181.095 215.923,180.979 217.002 L 180.768 218.966 183.060 221.158 C 190.363 228.143,195.527 232.410,196.680 232.413 C 198.275 232.415,212.629 219.872,212.813 218.315 C 212.906 217.518,206.250 187.854,204.188 179.883 L 203.683 177.930 206.920 171.143 C 212.141 160.193,212.482 160.547,196.734 160.547 L 185.121 160.547 184.118 161.549 M293.945 170.508 C 307.231 187.523,312.417 207.581,303.046 205.707 C 300.916 205.281,299.492 203.756,296.760 198.978 C 295.300 196.425,293.146 193.149,291.975 191.699 L 289.844 189.062 289.844 177.478 L 289.844 165.895 290.674 166.639 C 291.131 167.048,292.603 168.789,293.945 170.508 M291.987 200.347 L 294.094 203.912 293.265 205.765 C 292.809 206.784,292.144 208.848,291.787 210.352 C 291.159 213.001,291.099 213.090,289.857 213.212 L 288.575 213.338 288.827 207.548 C 289.126 200.663,289.472 196.373,289.708 196.609 C 289.803 196.704,290.828 198.385,291.987 200.347 M314.622 202.246 C 316.192 203.811,317.088 205.343,318.305 208.545 L 319.066 210.547 317.976 210.547 C 317.006 210.547,316.814 210.322,316.225 208.496 C 315.483 206.198,314.028 203.516,313.108 202.753 C 312.471 202.224,312.264 200.781,312.826 200.781 C 313.005 200.781,313.813 201.440,314.622 202.246 M312.663 210.401 C 312.909 211.219,303.947 212.919,301.884 212.446 C 300.128 212.043,301.877 210.547,304.105 210.547 C 306.692 210.547,308.951 209.527,310.245 207.775 L 311.133 206.571 311.773 208.071 C 312.126 208.896,312.526 209.944,312.663 210.401 M297.842 208.187 C 298.289 208.911,296.849 212.416,296.015 212.634 C 295.289 212.824,295.241 212.711,295.464 211.316 C 295.914 208.506,297.086 206.964,297.842 208.187 M332.007 215.026 C 334.273 216.199,334.838 218.182,335.346 226.768 L 335.601 231.075 334.097 231.921 C 332.326 232.917,326.824 234.560,323.966 234.946 L 321.956 235.218 321.485 233.790 C 320.534 230.909,318.511 230.436,311.439 231.441 C 306.188 232.188,304.688 233.321,304.688 236.542 L 304.688 237.614 299.902 237.371 C 295.654 237.156,290.527 236.361,290.003 235.836 C 289.899 235.732,289.653 232.944,289.457 229.640 C 289.081 223.316,288.796 221.836,287.546 219.717 L 286.778 218.415 289.385 218.165 C 292.827 217.835,324.025 214.536,325.781 214.317 C 327.957 214.045,330.717 214.359,332.007 215.026 M283.603 221.582 C 285.174 224.143,285.261 225.151,285.507 243.555 C 285.639 253.437,285.746 261.549,285.745 261.580 C 285.743 261.611,284.666 261.304,283.350 260.897 L 280.959 260.158 280.708 249.122 C 280.570 243.052,280.339 234.922,280.193 231.055 C 279.857 222.109,279.838 222.376,280.888 221.259 C 282.075 219.995,282.673 220.066,283.603 221.582 M317.794 239.518 L 318.070 243.275 316.945 243.496 C 310.002 244.857,308.984 244.378,308.984 239.749 C 308.984 235.848,309.189 235.644,313.477 235.261 C 317.664 234.887,317.437 234.663,317.794 239.518 M335.939 237.207 C 335.940 237.905,336.055 242.025,336.195 246.363 C 336.575 258.168,338.421 257.028,313.856 260.155 C 305.269 261.248,296.723 262.336,294.866 262.574 C 289.930 263.206,290.385 264.246,290.053 251.569 C 289.724 238.987,289.522 240.089,292.010 240.871 C 293.180 241.239,296.147 241.563,299.512 241.692 L 305.078 241.905 305.078 243.452 C 305.078 248.139,307.176 249.038,315.394 247.874 C 320.713 247.120,322.169 245.830,322.249 241.797 L 322.276 240.430 325.824 239.549 C 327.776 239.064,330.718 238.069,332.362 237.338 C 336.087 235.681,335.937 235.687,335.939 237.207 M136.260 272.224 C 139.024 273.837,145.694 276.916,148.145 277.711 C 150.081 278.339,150.060 278.400,146.777 281.732 C 143.559 284.998,140.419 286.829,136.946 287.465 C 134.175 287.973,134.169 287.969,134.938 286.127 C 136.498 282.395,135.090 281.336,132.526 284.312 C 130.529 286.630,129.805 286.771,128.034 285.188 C 125.540 282.958,126.331 279.552,130.701 273.702 C 133.320 270.195,132.950 270.293,136.260 272.224 M261.713 275.394 C 264.591 279.608,265.105 282.944,263.243 285.312 C 262.169 286.676,261.992 286.630,259.607 284.375 C 256.308 281.255,255.068 282.172,257.418 285.992 L 258.587 287.891 256.625 287.891 C 252.652 287.891,248.376 285.860,244.434 282.101 C 241.669 279.465,241.663 279.583,244.629 278.502 C 248.028 277.262,254.537 274.147,256.641 272.753 L 258.398 271.588 259.321 272.415 C 259.828 272.870,260.904 274.210,261.713 275.394 M73.047 307.457 C 54.466 309.170,44.313 327.650,52.547 344.770 C 60.032 360.330,83.168 363.704,96.957 351.246 L 98.437 349.909 98.438 340.189 L 98.438 330.469 87.682 330.469 L 76.926 330.469 77.037 334.473 L 77.148 338.477 82.324 338.586 L 87.500 338.695 87.500 342.400 L 87.500 346.105 86.230 346.889 C 72.689 355.254,57.601 342.535,62.485 326.872 C 65.697 316.574,78.518 313.822,87.310 321.542 L 88.652 322.720 92.561 319.270 C 97.128 315.239,97.080 315.390,94.434 313.258 C 88.992 308.874,81.049 306.719,73.047 307.457 M147.656 332.422 L 147.656 357.445 152.832 357.336 L 158.008 357.227 158.008 332.422 L 158.008 307.617 152.832 307.508 L 147.656 307.399 147.656 332.422 M118.501 319.724 C 99.387 323.881,97.737 351.179,116.226 357.354 C 127.642 361.167,139.986 354.371,142.205 343.050 C 145.022 328.671,132.776 316.620,118.501 319.724 M176.321 319.531 C 173.600 319.930,169.459 321.346,167.892 322.413 L 166.602 323.292 166.678 326.925 C 166.772 331.368,166.636 331.238,169.646 329.756 C 177.755 325.764,186.000 327.596,186.961 333.603 L 187.225 335.257 182.773 334.984 C 169.257 334.153,163.079 337.763,163.091 346.484 C 163.105 357.010,175.259 362.167,184.718 355.660 C 187.123 354.006,186.914 353.996,186.914 355.761 L 186.914 357.227 191.797 357.227 L 196.680 357.227 196.680 343.750 C 196.680 328.140,196.594 327.637,193.343 324.080 C 189.720 320.116,183.561 318.470,176.321 319.531 M221.359 319.703 C 218.808 320.438,216.529 322.014,215.500 323.754 L 214.648 325.195 214.453 322.656 L 214.258 320.117 209.375 320.117 L 204.492 320.117 204.391 338.770 L 204.289 357.422 209.371 357.422 L 214.453 357.422 214.462 345.996 C 214.473 331.222,215.228 329.327,221.238 329.004 C 227.670 328.657,228.516 330.607,228.516 345.786 L 228.516 357.422 233.594 357.422 L 238.672 357.422 238.666 344.824 C 238.659 328.624,238.166 326.285,233.956 322.482 C 230.774 319.607,225.630 318.472,221.359 319.703 M256.641 319.659 C 239.105 323.761,239.570 352.219,257.227 355.508 C 262.079 356.412,268.308 354.887,270.524 352.253 L 271.484 351.112 271.484 353.219 C 271.484 363.389,260.193 366.563,249.913 359.283 C 248.995 358.633,248.746 358.967,247.109 363.052 C 245.444 367.205,245.404 367.115,249.805 369.179 C 260.431 374.162,273.289 372.244,278.554 364.891 C 281.750 360.428,281.836 359.745,281.836 338.672 L 281.836 320.117 277.400 320.006 C 272.213 319.877,271.692 320.102,271.993 322.347 C 272.235 324.151,272.347 324.156,270.375 322.281 C 267.675 319.712,261.475 318.528,256.641 319.659 M301.214 319.563 C 281.594 323.416,281.766 354.163,301.428 357.865 C 307.637 359.033,321.484 355.673,321.484 352.998 C 321.484 352.435,317.894 346.830,317.626 346.974 C 311.039 350.529,306.063 351.124,301.670 348.883 C 299.227 347.637,296.094 343.628,296.094 341.749 C 296.094 341.559,302.120 341.406,309.626 341.406 L 323.159 341.406 322.938 337.402 C 322.250 324.917,312.928 317.263,301.214 319.563 M344.839 319.595 C 343.147 320.059,340.111 322.601,339.147 324.361 L 338.477 325.586 338.281 322.852 L 338.086 320.117 333.203 320.117 L 328.320 320.117 328.320 338.672 L 328.320 357.227 333.301 357.336 L 338.281 357.445 338.281 346.761 L 338.281 336.078 339.355 333.959 C 341.059 330.600,342.963 329.504,347.201 329.445 L 350.586 329.397 350.697 324.790 C 350.757 322.255,350.670 320.054,350.501 319.896 C 349.951 319.382,346.322 319.190,344.839 319.595 M308.320 327.974 C 310.862 329.256,312.891 331.786,312.891 333.672 L 312.891 334.570 304.590 334.484 C 295.327 334.387,295.772 334.560,297.265 331.649 C 299.197 327.883,304.587 326.091,308.320 327.974 M126.981 329.199 C 134.774 333.146,133.996 346.711,125.837 349.156 C 118.947 351.220,113.327 346.108,113.744 338.157 C 114.157 330.295,120.572 325.953,126.981 329.199 M267.411 329.216 C 274.175 332.683,273.620 344.168,266.576 346.493 C 260.206 348.595,254.480 344.331,254.501 337.500 C 254.524 330.202,261.102 325.981,267.411 329.216 M186.948 343.990 C 186.629 347.508,186.065 348.508,183.774 349.617 C 178.558 352.142,173.047 350.278,173.047 345.989 C 173.047 342.579,176.008 341.036,182.573 341.024 L 187.217 341.016 186.948 343.990 " stroke="none" fill="#152a40" fill-rule="evenodd"></path><path id="path2" d="M0.000 200.000 L 0.000 400.000 200.000 400.000 L 400.000 400.000 400.000 200.000 L 400.000 0.000 200.000 0.000 L 0.000 0.000 0.000 200.000 M213.281 22.839 C 229.499 25.102,243.885 30.350,253.726 37.593 L 256.000 39.267 258.371 36.994 C 266.690 29.020,275.116 27.393,283.543 32.134 C 294.088 38.067,296.360 53.018,287.943 61.083 C 286.801 62.177,286.796 62.199,287.413 63.613 C 289.624 68.685,287.783 74.440,283.489 75.881 C 283.324 75.936,283.709 78.441,284.344 81.448 C 287.582 96.763,289.126 114.148,289.843 143.346 L 290.232 159.152 292.131 161.119 C 300.931 170.232,311.719 189.152,311.719 195.472 C 311.719 195.827,312.026 196.214,312.402 196.332 C 317.724 197.996,320.982 201.841,322.635 208.411 L 323.031 209.986 327.638 209.974 C 337.577 209.946,339.000 212.123,340.016 228.906 C 341.926 260.438,341.727 260.934,326.367 263.067 C 291.099 267.965,290.285 268.002,281.460 265.133 C 276.544 263.534,276.193 263.049,275.883 257.430 L 275.669 253.536 273.674 256.435 C 270.863 260.520,267.464 264.512,265.015 266.605 L 262.921 268.394 264.808 270.735 C 273.944 282.073,269.791 292.612,256.187 292.610 C 249.559 292.609,241.274 288.092,237.906 282.642 L 237.112 281.358 233.302 282.287 C 211.127 287.694,181.030 287.535,158.988 281.895 L 153.978 280.612 152.358 283.075 C 143.742 296.180,121.659 295.428,121.698 282.031 C 121.708 278.556,122.600 276.231,125.820 271.285 L 128.569 267.061 125.280 263.706 C 111.323 249.470,105.876 232.608,103.883 197.461 C 103.640 193.164,103.398 189.603,103.345 189.548 C 103.293 189.493,101.244 190.397,98.793 191.557 C 80.453 200.234,69.141 198.786,69.141 187.760 C 69.141 180.253,76.828 172.974,96.067 162.264 L 103.268 158.255 103.177 146.218 C 102.970 118.553,105.996 89.298,110.339 76.989 C 110.738 75.858,110.772 75.391,110.456 75.391 C 107.224 75.391,104.910 69.255,106.281 64.319 L 106.698 62.817 104.188 60.217 C 93.957 49.620,98.917 32.632,113.168 29.461 C 119.822 27.981,126.031 30.318,132.321 36.671 C 135.602 39.984,134.833 39.899,138.543 37.359 C 145.027 32.921,152.651 29.422,161.571 26.792 C 168.855 24.644,174.253 23.655,187.109 22.113 C 190.360 21.724,208.990 22.240,213.281 22.839 M154.492 72.672 C 132.515 77.177,135.582 109.512,157.979 109.431 C 168.468 109.393,176.283 101.442,176.272 90.820 C 176.260 79.249,165.627 70.389,154.492 72.672 M233.725 72.821 C 219.699 76.223,214.788 94.640,225.316 104.353 C 237.164 115.284,256.214 107.211,256.321 91.213 C 256.402 79.086,245.266 70.022,233.725 72.821 M165.750 81.669 C 170.668 83.034,173.742 90.332,171.332 94.922 C 166.760 103.629,155.458 100.588,155.364 90.625 C 155.303 84.211,160.078 80.094,165.750 81.669 M240.430 81.682 C 242.762 82.320,245.501 85.318,246.318 88.127 C 248.617 96.036,240.957 103.016,234.277 99.101 C 225.490 93.951,230.758 79.036,240.430 81.682 M165.513 85.789 C 164.917 86.385,165.247 87.842,166.034 88.092 C 167.060 88.418,168.040 87.608,167.890 86.558 C 167.773 85.737,166.104 85.198,165.513 85.789 M240.223 86.147 C 239.513 87.002,240.198 88.086,241.449 88.086 C 242.226 88.086,242.383 87.889,242.383 86.914 C 242.383 85.542,241.102 85.087,240.223 86.147 M177.344 111.523 C 176.395 112.490,175.706 113.281,175.814 113.281 C 175.921 113.281,176.786 112.490,177.734 111.523 C 178.683 110.557,179.372 109.766,179.264 109.766 C 179.157 109.766,178.293 110.557,177.344 111.523 M185.742 114.453 C 186.581 115.313,187.356 116.016,187.463 116.016 C 187.571 116.016,186.972 115.313,186.133 114.453 C 185.294 113.594,184.519 112.891,184.412 112.891 C 184.304 112.891,184.903 113.594,185.742 114.453 M209.936 114.941 L 208.789 116.211 210.059 115.064 C 210.757 114.433,211.328 113.861,211.328 113.794 C 211.328 113.492,211.006 113.758,209.936 114.941 M194.336 119.108 C 194.967 119.352,195.161 119.893,195.343 121.912 L 195.568 124.414 195.636 121.819 C 195.704 119.209,195.428 118.692,194.011 118.777 C 193.760 118.793,193.906 118.941,194.336 119.108 M171.966 121.094 C 171.966 121.846,172.046 122.153,172.144 121.777 C 172.243 121.401,172.243 120.786,172.144 120.410 C 172.046 120.034,171.966 120.342,171.966 121.094 M223.091 125.805 C 222.605 126.462,221.649 127.340,220.967 127.756 C 220.285 128.172,219.940 128.513,220.201 128.514 C 220.797 128.516,223.336 126.309,223.857 125.337 C 224.443 124.242,224.085 124.461,223.091 125.805 M174.609 127.926 C 174.609 128.193,177.001 129.379,177.180 129.200 C 177.265 129.116,176.721 128.754,175.972 128.397 C 175.222 128.039,174.609 127.828,174.609 127.926 M200.000 136.446 C 200.000 144.425,200.135 144.910,202.580 145.717 C 206.887 147.138,209.669 144.941,210.514 139.453 C 210.762 137.842,211.049 135.981,211.152 135.317 C 211.328 134.185,211.238 134.081,209.674 133.612 C 208.757 133.338,206.626 132.419,204.937 131.570 C 203.248 130.721,201.447 129.866,200.933 129.671 L 200.000 129.316 200.000 136.446 M181.348 129.957 C 181.724 130.055,182.339 130.055,182.715 129.957 C 183.091 129.859,182.783 129.778,182.031 129.778 C 181.279 129.778,180.972 129.859,181.348 129.957 M191.795 131.641 C 189.754 132.666,187.334 133.729,186.419 134.003 C 184.538 134.567,184.590 134.079,185.779 140.039 C 186.693 144.617,189.029 146.361,192.826 145.298 C 195.604 144.520,195.738 144.093,195.615 136.427 L 195.508 129.777 191.795 131.641 M289.148 204.808 C 288.657 213.935,288.607 213.410,289.923 213.080 C 290.730 212.878,291.027 212.325,291.871 209.448 C 292.419 207.582,293.084 205.527,293.350 204.883 C 293.803 203.783,293.702 203.491,291.712 200.137 L 289.591 196.562 289.148 204.808 M310.359 207.942 C 309.321 209.526,306.838 210.656,304.297 210.703 C 302.577 210.734,302.088 210.890,301.847 211.482 C 301.418 212.538,301.271 212.528,307.144 211.818 C 313.075 211.101,312.977 211.174,311.757 208.408 L 311.071 206.854 310.359 207.942 M316.250 235.455 C 316.486 235.613,316.780 236.006,316.903 236.328 C 317.052 236.720,317.136 236.622,317.157 236.035 C 317.177 235.445,316.963 235.158,316.504 235.162 C 316.082 235.166,315.985 235.278,316.250 235.455 M317.188 240.599 C 317.188 242.828,317.146 242.923,316.113 243.080 C 315.113 243.231,315.127 243.246,316.309 243.301 L 317.578 243.359 317.578 240.820 C 317.578 239.424,317.490 238.281,317.383 238.281 C 317.275 238.281,317.188 239.324,317.188 240.599 M312.598 243.629 C 312.974 243.727,313.589 243.727,313.965 243.629 C 314.341 243.530,314.033 243.450,313.281 243.450 C 312.529 243.450,312.222 243.530,312.598 243.629 M137.891 273.629 C 137.891 273.896,140.282 275.082,140.461 274.904 C 140.546 274.819,140.002 274.457,139.253 274.100 C 138.504 273.742,137.891 273.531,137.891 273.629 M252.637 275.223 C 251.176 276.016,251.265 276.346,252.734 275.586 C 253.379 275.253,253.906 274.897,253.906 274.795 C 253.906 274.543,253.864 274.557,252.637 275.223 M148.645 278.536 C 148.785 278.761,147.533 280.290,145.864 281.932 C 144.195 283.574,143.369 284.534,144.028 284.064 C 146.607 282.228,149.907 278.125,148.805 278.125 C 148.578 278.125,148.506 278.310,148.645 278.536 M244.336 281.641 C 245.612 282.930,246.743 283.984,246.849 283.984 C 246.956 283.984,246.122 283.051,244.996 281.911 C 243.870 280.771,243.070 279.716,243.219 279.567 C 243.368 279.419,243.158 279.297,242.753 279.297 C 242.207 279.297,242.617 279.904,244.336 281.641 M263.784 281.836 C 263.787 282.910,263.862 283.303,263.952 282.709 C 264.042 282.116,264.040 281.237,263.947 280.756 C 263.854 280.276,263.781 280.762,263.784 281.836 M127.021 282.055 C 126.958 283.701,127.895 285.547,128.794 285.547 C 128.931 285.547,128.672 285.151,128.219 284.668 C 127.711 284.126,127.337 283.115,127.243 282.031 L 127.090 280.273 127.021 282.055 M259.556 283.887 C 260.622 285.015,261.693 285.938,261.936 285.938 C 262.445 285.938,263.672 284.680,263.672 284.160 C 263.672 283.968,263.398 284.201,263.064 284.679 C 262.207 285.903,261.807 285.789,259.584 283.691 L 257.617 281.836 259.556 283.887 M131.660 284.550 C 131.166 285.075,130.389 285.579,129.932 285.668 C 129.222 285.807,129.244 285.836,130.078 285.863 C 130.717 285.883,131.369 285.497,131.963 284.744 C 133.066 283.348,132.893 283.237,131.660 284.550 M141.016 285.547 C 140.264 285.959,139.789 286.303,139.961 286.312 C 140.375 286.333,142.578 285.188,142.578 284.951 C 142.578 284.695,142.555 284.704,141.016 285.547 M84.759 308.198 C 88.578 309.295,92.611 311.440,95.020 313.655 L 96.952 315.431 93.300 318.776 C 88.522 323.151,89.031 322.993,86.318 320.953 C 74.732 312.244,61.920 318.779,61.915 333.398 C 61.912 346.048,73.191 352.810,85.059 347.274 L 87.500 346.135 87.500 342.403 L 87.500 338.672 82.213 338.672 L 76.927 338.672 77.038 334.473 L 77.148 330.273 87.695 330.273 L 98.242 330.273 98.346 340.098 L 98.451 349.922 96.073 352.075 C 83.983 363.015,61.572 360.399,53.568 347.113 C 40.581 325.554,60.159 301.129,84.759 308.198 M158.008 332.422 L 158.008 357.617 153.180 357.727 C 149.954 357.801,148.172 357.688,147.809 357.386 C 147.054 356.760,146.993 308.242,147.745 307.489 C 148.086 307.148,149.644 307.041,153.116 307.118 L 158.008 307.227 158.008 332.422 M127.945 319.739 C 147.730 324.823,147.661 352.852,127.850 358.012 C 117.413 360.731,106.365 354.461,103.724 344.322 C 99.813 329.309,113.021 315.904,127.945 319.739 M186.119 319.739 C 191.328 321.096,194.752 324.067,196.087 328.389 C 196.854 330.874,197.370 356.304,196.676 357.427 C 196.420 357.842,188.365 357.970,187.337 357.575 C 186.920 357.415,186.719 356.844,186.719 355.820 L 186.719 354.302 184.981 355.629 C 176.955 361.755,164.909 358.145,163.016 349.045 C 161.017 339.439,167.238 334.522,180.998 334.831 L 186.800 334.961 186.620 333.093 C 186.095 327.635,176.584 326.057,169.075 330.180 C 166.674 331.499,166.360 331.074,166.490 326.671 L 166.602 322.859 169.141 321.575 C 173.724 319.257,181.175 318.452,186.119 319.739 M229.380 319.673 C 237.236 322.038,238.722 326.024,238.580 344.356 L 238.477 357.617 233.844 357.728 C 227.559 357.877,228.125 359.113,228.125 345.245 C 228.125 332.574,228.067 332.183,225.933 330.505 C 222.663 327.932,217.860 328.846,215.657 332.460 C 214.885 333.726,214.847 334.339,214.845 345.362 C 214.843 359.096,215.407 357.877,209.124 357.728 L 204.492 357.617 204.391 338.758 L 204.289 319.899 209.469 320.008 L 214.648 320.117 214.763 322.079 L 214.878 324.042 216.795 322.195 C 219.742 319.353,224.890 318.322,229.380 319.673 M267.669 320.398 C 268.900 320.968,270.341 321.868,270.871 322.398 L 271.834 323.361 271.952 321.739 L 272.070 320.117 276.953 320.117 L 281.836 320.117 281.951 337.891 C 282.095 360.071,281.850 361.597,277.351 366.520 C 271.493 372.929,258.882 374.008,248.855 368.959 C 245.338 367.188,245.339 367.190,247.076 362.708 C 248.836 358.165,248.629 358.295,251.423 359.980 C 261.139 365.842,270.433 363.096,271.319 354.102 L 271.589 351.367 270.462 352.499 C 265.755 357.232,254.912 356.910,249.401 351.874 C 240.575 343.807,242.276 326.262,252.387 321.065 C 256.873 318.759,263.505 318.470,267.669 320.398 M310.183 319.770 C 318.108 322.119,322.499 328.130,323.275 337.691 C 323.636 342.140,324.681 341.837,309.391 341.710 L 296.425 341.602 296.651 342.729 C 297.934 349.136,307.131 351.995,314.593 348.307 C 318.205 346.523,317.649 346.360,319.936 349.865 C 322.251 353.411,322.233 353.461,317.838 355.597 C 302.071 363.257,286.319 354.679,286.297 338.419 C 286.280 325.492,298.171 316.208,310.183 319.770 M350.830 319.815 C 351.032 320.017,351.148 322.277,351.087 324.837 L 350.977 329.492 348.536 329.379 C 344.116 329.174,341.129 330.700,339.430 334.029 C 338.734 335.394,338.672 336.395,338.672 346.226 C 338.672 358.971,339.216 357.877,332.952 357.728 L 328.320 357.617 328.320 338.867 L 328.320 320.117 333.203 320.117 L 338.086 320.117 338.281 322.841 C 338.454 325.256,338.526 325.453,338.917 324.588 C 340.779 320.459,348.415 317.400,350.830 319.815 M301.563 327.967 C 299.298 328.947,296.484 332.273,296.484 333.969 C 296.484 334.237,299.272 334.375,304.695 334.375 L 312.906 334.375 312.648 333.301 C 311.531 328.643,306.069 326.015,301.563 327.967 M120.217 328.749 C 112.785 331.035,111.383 343.453,118.053 347.911 C 124.483 352.208,132.177 347.499,132.185 339.262 C 132.193 331.541,126.733 326.746,120.217 328.749 M259.822 328.934 C 252.556 331.844,253.122 344.479,260.610 346.503 C 268.654 348.677,274.822 340.418,270.824 332.826 C 268.949 329.265,263.663 327.395,259.822 328.934 M177.630 341.441 C 170.700 343.073,171.898 350.505,179.084 350.464 C 184.365 350.433,186.719 348.414,186.719 343.915 L 186.719 341.016 182.910 341.055 C 180.815 341.076,178.439 341.250,177.630 341.441 " stroke="none" fill="#fbf5eb" fill-rule="evenodd"></path><path id="path3" d="M312.500 201.515 C 312.500 201.918,312.774 202.475,313.108 202.753 C 314.028 203.516,315.483 206.198,316.225 208.496 C 316.814 210.322,317.006 210.547,317.976 210.547 L 319.066 210.547 318.305 208.545 C 316.450 203.663,312.500 198.879,312.500 201.515 M296.159 208.802 C 295.205 210.896,295.131 212.865,296.015 212.634 C 296.849 212.416,298.289 208.911,297.842 208.187 C 297.420 207.505,296.616 207.798,296.159 208.802 M325.781 214.317 C 324.025 214.536,292.827 217.835,289.385 218.165 L 286.778 218.415 287.546 219.717 C 288.796 221.836,289.081 223.316,289.457 229.640 C 289.653 232.944,289.899 235.732,290.003 235.836 C 290.527 236.361,295.654 237.156,299.902 237.371 L 304.688 237.614 304.688 236.542 C 304.688 233.321,306.188 232.188,311.439 231.441 C 318.511 230.436,320.534 230.909,321.485 233.790 L 321.956 235.218 323.966 234.946 C 326.824 234.560,332.326 232.917,334.097 231.921 L 335.601 231.075 335.346 226.768 C 334.668 215.319,333.187 213.391,325.781 214.317 M280.888 221.259 C 279.838 222.376,279.857 222.109,280.193 231.055 C 280.339 234.922,280.570 243.052,280.708 249.122 L 280.959 260.158 283.350 260.897 C 284.666 261.304,285.743 261.611,285.745 261.580 C 285.938 257.466,285.143 225.202,284.824 224.219 C 283.652 220.598,282.396 219.654,280.888 221.259 M332.362 237.338 C 330.718 238.069,327.776 239.064,325.824 239.549 L 322.276 240.430 322.249 241.797 C 322.169 245.830,320.713 247.120,315.394 247.874 C 307.176 249.038,305.078 248.139,305.078 243.452 L 305.078 241.905 299.512 241.692 C 296.147 241.563,293.180 241.239,292.010 240.871 C 289.522 240.089,289.724 238.987,290.053 251.569 C 290.385 264.246,289.930 263.206,294.866 262.574 C 296.723 262.336,305.269 261.248,313.856 260.155 C 338.421 257.028,336.575 258.168,336.195 246.363 C 336.055 242.025,335.940 237.905,335.939 237.207 C 335.937 235.687,336.087 235.681,332.362 237.338 " stroke="none" fill="#80513c" fill-rule="evenodd"></path><path id="path4" d="M213.820 108.171 C 213.668 108.511,213.507 108.921,213.461 109.082 C 213.416 109.243,213.336 109.507,213.284 109.668 C 213.232 109.829,213.215 110.108,213.246 110.287 C 213.336 110.798,211.700 113.281,211.273 113.281 C 211.063 113.281,210.983 113.430,211.096 113.612 C 211.208 113.794,210.779 114.442,210.142 115.052 C 209.505 115.663,208.984 116.022,208.984 115.850 C 208.984 115.679,208.677 115.919,208.300 116.383 C 207.924 116.848,207.353 117.273,207.031 117.327 C 205.993 117.502,203.334 118.451,202.882 118.808 C 202.640 118.998,202.157 119.044,201.807 118.910 C 201.386 118.749,201.172 118.874,201.172 119.282 C 201.172 119.620,200.952 119.813,200.684 119.710 C 200.325 119.572,200.197 120.164,200.202 121.937 C 200.209 124.211,200.264 124.354,201.159 124.420 C 201.681 124.459,202.177 124.694,202.260 124.943 C 202.343 125.192,202.571 125.296,202.768 125.175 C 202.964 125.053,203.125 125.140,203.125 125.368 C 203.125 125.595,203.257 125.745,203.418 125.701 C 203.979 125.548,206.641 126.626,206.641 127.006 C 206.641 127.217,206.816 127.281,207.031 127.148 C 207.246 127.016,207.422 127.104,207.422 127.344 C 207.422 127.584,207.598 127.672,207.813 127.539 C 208.027 127.406,208.203 127.494,208.203 127.734 C 208.203 127.975,208.379 128.062,208.594 127.930 C 208.809 127.797,208.984 127.869,208.984 128.090 C 208.984 128.310,209.230 128.397,209.530 128.282 C 209.830 128.166,210.309 128.321,210.593 128.625 C 210.877 128.930,211.423 129.097,211.805 128.997 C 212.187 128.897,212.500 128.998,212.500 129.222 C 212.500 129.665,215.761 129.587,216.876 129.117 C 217.242 128.963,217.725 128.951,217.950 129.090 C 218.175 129.229,218.359 129.136,218.359 128.884 C 218.359 128.617,218.687 128.510,219.141 128.629 C 219.570 128.741,219.922 128.702,219.922 128.542 C 219.922 128.271,221.743 127.239,222.331 127.176 C 222.701 127.137,223.233 126.561,223.291 126.139 C 223.318 125.942,223.362 125.595,223.389 125.368 C 223.416 125.140,223.576 125.039,223.745 125.144 C 223.915 125.249,224.091 124.873,224.138 124.310 C 224.184 123.747,224.363 123.188,224.535 123.069 C 225.018 122.734,225.018 119.438,224.536 118.857 C 224.300 118.573,224.219 118.229,224.355 118.093 C 224.491 117.957,224.407 117.609,224.168 117.321 C 223.928 117.033,223.854 116.797,224.002 116.797 C 224.151 116.797,223.896 116.270,223.438 115.625 C 222.979 114.980,222.706 114.453,222.831 114.453 C 222.957 114.453,222.485 113.903,221.784 113.230 C 221.082 112.558,220.859 112.243,221.289 112.532 C 221.750 112.841,221.606 112.548,220.936 111.815 C 220.313 111.133,219.665 110.659,219.498 110.763 C 219.331 110.866,218.947 110.597,218.644 110.165 C 218.342 109.733,217.982 109.492,217.845 109.629 C 217.708 109.766,217.486 109.590,217.351 109.238 C 217.216 108.886,216.947 108.696,216.753 108.816 C 216.559 108.936,216.296 108.760,216.167 108.425 C 216.039 108.091,215.776 107.914,215.584 108.033 C 215.392 108.152,215.234 108.092,215.234 107.901 C 215.234 107.304,214.111 107.519,213.820 108.171 M180.423 109.070 C 180.198 109.490,179.940 109.758,179.848 109.666 C 179.639 109.457,175.242 113.751,175.215 114.192 C 175.204 114.370,174.890 114.739,174.518 115.012 C 174.145 115.284,173.955 115.621,174.095 115.761 C 174.235 115.901,174.134 116.016,173.870 116.016 C 173.607 116.016,173.501 116.193,173.635 116.409 C 173.768 116.625,173.604 116.907,173.269 117.036 C 172.935 117.164,172.758 117.427,172.877 117.619 C 172.996 117.811,172.912 117.969,172.692 117.969 C 172.471 117.969,172.391 118.232,172.515 118.555 C 172.639 118.877,172.589 119.141,172.405 119.141 C 172.221 119.141,172.070 120.371,172.070 121.875 C 172.070 123.379,172.221 124.609,172.405 124.609 C 172.589 124.609,172.644 124.858,172.527 125.163 C 172.411 125.467,172.579 125.818,172.901 125.941 C 173.223 126.065,173.416 126.299,173.329 126.462 C 173.177 126.746,174.401 128.125,174.805 128.125 C 174.912 128.125,175.186 128.125,175.414 128.125 C 175.641 128.125,175.702 128.328,175.549 128.576 C 175.378 128.852,175.441 128.921,175.713 128.753 C 175.956 128.603,176.555 128.698,177.043 128.966 C 177.531 129.234,178.325 129.405,178.809 129.347 C 179.292 129.289,179.688 129.395,179.688 129.583 C 179.688 129.770,180.654 129.915,181.836 129.903 C 183.017 129.892,183.984 129.730,183.984 129.544 C 183.984 129.358,184.336 129.298,184.766 129.410 C 185.195 129.522,185.547 129.445,185.547 129.237 C 185.547 129.030,185.723 128.969,185.938 129.102 C 186.152 129.234,186.328 129.146,186.328 128.906 C 186.328 128.666,186.504 128.578,186.719 128.711 C 186.934 128.844,187.109 128.737,187.109 128.474 C 187.109 128.210,187.212 128.097,187.337 128.223 C 187.463 128.348,187.908 128.107,188.328 127.688 C 188.748 127.268,189.260 127.029,189.467 127.157 C 189.674 127.285,189.844 127.193,189.844 126.953 C 189.844 126.713,190.020 126.625,190.234 126.758 C 190.449 126.891,190.625 126.803,190.625 126.563 C 190.625 126.322,190.801 126.234,191.016 126.367 C 191.230 126.500,191.406 126.412,191.406 126.172 C 191.406 125.932,191.582 125.844,191.797 125.977 C 192.012 126.109,192.188 126.021,192.188 125.781 C 192.188 125.541,192.363 125.453,192.578 125.586 C 192.793 125.719,192.969 125.631,192.969 125.391 C 192.969 125.150,193.145 125.063,193.359 125.195 C 193.574 125.328,193.750 125.240,193.750 125.000 C 193.750 124.760,193.926 124.672,194.141 124.805 C 194.355 124.937,194.531 124.850,194.531 124.609 C 194.531 124.369,194.717 124.287,194.943 124.427 C 195.221 124.599,195.330 123.729,195.278 121.767 C 195.209 119.138,195.130 118.871,194.476 119.042 C 194.077 119.146,193.750 119.079,193.750 118.893 C 193.750 118.707,193.287 118.528,192.722 118.495 C 192.157 118.462,191.586 118.287,191.453 118.105 C 191.320 117.922,190.947 117.716,190.625 117.646 C 190.303 117.577,189.980 117.356,189.908 117.156 C 189.836 116.956,189.616 116.891,189.420 117.013 C 189.223 117.134,189.063 117.037,189.063 116.797 C 189.063 116.557,188.885 116.470,188.669 116.603 C 188.453 116.737,188.171 116.573,188.042 116.238 C 187.914 115.903,187.680 115.709,187.523 115.806 C 187.365 115.904,186.549 115.262,185.708 114.380 C 184.867 113.498,184.443 112.903,184.766 113.058 C 185.088 113.212,185.010 113.062,184.593 112.724 C 184.176 112.386,183.957 112.109,184.105 112.109 C 184.254 112.109,184.010 111.744,183.564 111.298 C 183.117 110.852,182.848 110.236,182.965 109.931 C 183.083 109.625,183.008 109.375,182.800 109.375 C 182.592 109.375,182.466 109.162,182.520 108.903 C 182.686 108.099,180.865 108.244,180.423 109.070 M314.063 235.557 C 313.740 235.771,312.835 235.844,312.052 235.719 C 311.205 235.584,310.521 235.664,310.365 235.916 C 310.220 236.150,309.976 236.263,309.822 236.168 C 309.525 235.984,309.494 236.131,309.133 239.405 C 308.985 240.750,309.057 241.600,309.332 241.770 C 309.568 241.916,309.802 242.519,309.851 243.109 C 309.930 244.064,310.048 244.149,310.927 243.880 C 311.470 243.714,312.661 243.578,313.574 243.577 C 314.487 243.576,315.234 243.439,315.234 243.272 C 315.234 243.105,315.651 242.969,316.160 242.969 C 317.119 242.969,318.045 237.127,317.140 236.784 C 316.951 236.712,316.797 236.423,316.797 236.142 C 316.797 235.236,315.095 234.872,314.063 235.557 M132.287 271.970 C 131.824 272.380,131.709 272.600,132.031 272.459 C 132.354 272.318,132.124 272.656,131.521 273.211 C 130.918 273.765,130.567 274.225,130.740 274.232 C 130.913 274.239,130.667 274.569,130.192 274.965 C 129.718 275.360,129.436 275.790,129.565 275.919 C 129.694 276.048,129.511 276.264,129.160 276.399 C 128.808 276.534,128.617 276.802,128.736 276.994 C 128.855 277.186,128.756 277.344,128.516 277.344 C 128.275 277.344,128.179 277.505,128.301 277.703 C 128.423 277.900,128.287 278.297,128.000 278.585 C 127.712 278.873,127.549 279.327,127.638 279.593 C 127.727 279.860,127.599 280.078,127.353 280.078 C 127.108 280.078,126.995 280.221,127.103 280.395 C 127.210 280.569,127.340 281.613,127.390 282.716 C 127.443 283.885,127.656 284.689,127.901 284.645 C 128.132 284.604,128.272 284.803,128.213 285.088 C 128.154 285.372,128.286 285.494,128.506 285.358 C 128.726 285.221,128.906 285.284,128.906 285.497 C 128.906 285.741,129.340 285.758,130.085 285.545 C 131.701 285.082,131.850 285.003,131.741 284.675 C 131.688 284.518,132.082 284.104,132.616 283.754 C 133.150 283.404,133.474 282.934,133.335 282.709 C 133.188 282.472,133.271 282.418,133.533 282.580 C 133.781 282.733,133.984 282.683,133.984 282.467 C 133.984 281.934,135.608 282.283,136.000 282.901 C 136.434 283.585,136.407 284.375,135.950 284.375 C 135.742 284.375,135.664 284.616,135.777 284.911 C 135.890 285.205,135.725 285.704,135.409 286.019 C 135.094 286.334,134.952 286.753,135.094 286.950 C 135.492 287.503,137.500 287.625,137.500 287.096 C 137.500 286.842,137.758 286.734,138.073 286.855 C 138.389 286.976,138.753 286.904,138.882 286.695 C 139.011 286.486,139.280 286.417,139.480 286.540 C 139.680 286.664,139.844 286.600,139.844 286.399 C 139.844 286.031,142.050 284.954,142.272 285.213 C 142.337 285.289,143.754 284.022,145.422 282.397 C 147.089 280.773,148.509 279.498,148.576 279.565 C 148.643 279.633,148.698 279.400,148.698 279.048 C 148.698 278.696,148.376 278.324,147.982 278.221 C 147.588 278.118,147.266 277.884,147.266 277.701 C 147.266 277.518,147.025 277.461,146.730 277.574 C 146.435 277.687,145.908 277.493,145.558 277.143 C 145.208 276.793,144.922 276.598,144.922 276.710 C 144.922 276.821,144.395 276.729,143.750 276.504 C 143.105 276.279,142.578 275.926,142.578 275.720 C 142.578 275.513,142.402 275.453,142.188 275.586 C 141.973 275.719,141.797 275.631,141.797 275.391 C 141.797 275.150,141.621 275.063,141.406 275.195 C 141.191 275.328,141.016 275.256,141.016 275.035 C 141.016 274.815,140.723 274.746,140.366 274.883 C 139.932 275.050,139.808 274.982,139.995 274.680 C 140.175 274.390,140.069 274.307,139.699 274.449 C 139.382 274.570,138.772 274.319,138.344 273.891 C 137.916 273.462,137.463 273.215,137.337 273.340 C 137.212 273.465,137.109 273.352,137.109 273.089 C 137.109 272.826,136.934 272.719,136.719 272.852 C 136.504 272.984,136.328 272.896,136.328 272.656 C 136.328 272.416,136.151 272.329,135.935 272.463 C 135.718 272.596,135.436 272.432,135.308 272.097 C 135.179 271.763,134.917 271.586,134.725 271.705 C 134.532 271.824,134.375 271.764,134.375 271.573 C 134.375 270.965,133.161 271.196,132.287 271.970 M258.281 272.344 C 258.023 272.602,257.813 272.689,257.813 272.539 C 257.813 272.389,257.455 272.624,257.017 273.061 C 256.579 273.499,256.052 273.752,255.845 273.624 C 255.638 273.496,255.469 273.588,255.469 273.828 C 255.469 274.068,255.293 274.156,255.078 274.023 C 254.863 273.891,254.688 273.936,254.688 274.124 C 254.688 274.312,253.984 274.861,253.125 275.344 C 252.266 275.827,251.563 276.110,251.563 275.974 C 251.563 275.837,251.276 276.012,250.926 276.362 C 250.576 276.712,250.049 276.906,249.754 276.793 C 249.460 276.680,249.219 276.768,249.219 276.988 C 249.219 277.209,249.043 277.281,248.828 277.148 C 248.613 277.016,248.438 277.104,248.438 277.344 C 248.438 277.584,248.262 277.672,248.047 277.539 C 247.832 277.406,247.656 277.503,247.656 277.753 C 247.656 278.004,247.404 278.112,247.096 277.993 C 246.787 277.875,246.477 277.952,246.406 278.164 C 246.335 278.377,245.885 278.580,245.404 278.616 C 244.924 278.652,244.531 278.839,244.531 279.031 C 244.531 279.223,244.282 279.285,243.978 279.168 C 243.273 278.897,242.889 279.842,243.468 280.421 C 243.709 280.662,243.753 280.859,243.565 280.859 C 243.377 280.859,243.631 281.293,244.129 281.824 C 244.628 282.354,245.172 282.704,245.338 282.601 C 245.504 282.499,245.983 282.850,246.401 283.381 C 246.820 283.913,247.246 284.265,247.348 284.163 C 247.450 284.060,247.990 284.399,248.547 284.916 C 249.105 285.433,249.660 285.757,249.781 285.636 C 249.901 285.515,250.000 285.632,250.000 285.895 C 250.000 286.159,250.176 286.266,250.391 286.133 C 250.605 286.000,250.781 286.072,250.781 286.293 C 250.781 286.514,251.045 286.593,251.367 286.469 C 251.689 286.346,251.953 286.450,251.953 286.700 C 251.953 286.951,252.129 287.047,252.344 286.914 C 252.559 286.781,252.951 286.807,253.216 286.970 C 253.724 287.284,253.983 287.347,256.387 287.740 C 257.826 287.975,257.872 287.950,257.447 287.157 C 257.203 286.701,257.098 286.328,257.213 286.328 C 257.328 286.328,257.064 285.970,256.626 285.533 C 256.189 285.095,255.936 284.568,256.063 284.361 C 256.191 284.154,256.110 283.984,255.882 283.984 C 255.210 283.984,255.408 283.290,256.324 282.437 C 256.972 281.834,257.255 281.758,257.490 282.128 C 257.661 282.397,257.803 282.448,257.807 282.241 C 257.810 282.034,258.647 282.680,259.668 283.676 C 261.740 285.698,262.932 286.156,263.113 285.000 C 263.177 284.592,263.373 284.152,263.548 284.023 C 263.974 283.710,263.960 279.686,263.532 279.687 C 263.348 279.687,263.299 279.424,263.423 279.102 C 263.546 278.779,263.448 278.516,263.204 278.516 C 262.960 278.516,262.863 278.413,262.989 278.287 C 263.114 278.162,262.966 277.766,262.660 277.408 C 262.354 277.051,262.112 276.616,262.123 276.444 C 262.135 276.271,261.740 275.774,261.248 275.340 C 260.755 274.905,260.615 274.674,260.938 274.826 C 261.260 274.979,260.908 274.540,260.156 273.853 C 259.404 273.165,259.053 272.736,259.375 272.900 C 259.879 273.156,259.886 273.105,259.425 272.536 C 258.786 271.749,258.863 271.762,258.281 272.344 " stroke="none" fill="#e5caa5" fill-rule="evenodd"></path><path id="path5" d="M139.153 91.016 C 139.153 91.768,139.234 92.075,139.332 91.699 C 139.430 91.323,139.430 90.708,139.332 90.332 C 139.234 89.956,139.153 90.264,139.153 91.016 M203.711 103.982 C 204.141 104.226,204.621 104.616,204.779 104.849 C 204.977 105.141,205.068 105.126,205.072 104.799 C 205.075 104.538,204.738 104.142,204.323 103.920 C 203.294 103.370,202.732 103.427,203.711 103.982 M191.056 105.339 C 190.991 106.711,191.424 107.414,192.723 108.041 C 193.814 108.568,193.866 108.568,193.206 108.041 C 192.800 107.716,192.302 107.395,192.101 107.328 C 191.899 107.261,191.590 106.595,191.415 105.849 C 191.212 104.986,191.081 104.800,191.056 105.339 M199.767 136.719 C 199.767 140.049,199.827 141.411,199.900 139.746 C 199.973 138.081,199.973 135.356,199.900 133.691 C 199.827 132.026,199.767 133.389,199.767 136.719 M103.216 152.734 C 103.216 153.486,103.296 153.794,103.394 153.418 C 103.493 153.042,103.493 152.427,103.394 152.051 C 103.296 151.675,103.216 151.982,103.216 152.734 M289.950 157.031 C 289.950 157.998,290.026 158.394,290.119 157.910 C 290.213 157.427,290.213 156.636,290.119 156.152 C 290.026 155.669,289.950 156.064,289.950 157.031 M350.779 324.530 L 350.973 329.492 351.085 324.837 C 351.147 322.277,351.060 320.044,350.892 319.875 C 350.724 319.706,350.673 321.801,350.779 324.530 M214.544 322.656 C 214.544 323.408,214.624 323.716,214.722 323.340 C 214.821 322.964,214.821 322.349,214.722 321.973 C 214.624 321.597,214.544 321.904,214.544 322.656 M228.297 345.703 C 228.297 351.826,228.351 354.331,228.417 351.270 C 228.483 348.208,228.483 343.198,228.417 340.137 C 228.351 337.075,228.297 339.580,228.297 345.703 M338.406 339.063 C 338.406 340.459,338.477 341.030,338.564 340.332 C 338.650 339.634,338.650 338.491,338.564 337.793 C 338.477 337.095,338.406 337.666,338.406 339.063 M338.433 351.758 C 338.434 354.551,338.496 355.642,338.571 354.183 C 338.647 352.724,338.646 350.439,338.570 349.105 C 338.494 347.771,338.432 348.965,338.433 351.758 M151.074 357.708 C 151.987 357.790,153.481 357.790,154.395 357.708 C 155.308 357.626,154.561 357.558,152.734 357.558 C 150.908 357.558,150.161 357.626,151.074 357.708 M207.728 357.710 C 208.863 357.789,210.621 357.789,211.634 357.708 C 212.647 357.628,211.719 357.564,209.570 357.565 C 207.422 357.566,206.593 357.631,207.728 357.710 M232.324 357.710 C 233.452 357.789,235.298 357.789,236.426 357.710 C 237.554 357.631,236.631 357.566,234.375 357.566 C 232.119 357.566,231.196 357.631,232.324 357.710 M331.168 357.711 C 332.519 357.788,334.628 357.787,335.855 357.710 C 337.082 357.633,335.977 357.570,333.398 357.571 C 330.820 357.572,329.816 357.635,331.168 357.711 " stroke="none" fill="#98a6aa" fill-rule="evenodd"></path><path id="path6" d="M293.059 48.047 C 293.059 48.799,293.140 49.106,293.238 48.730 C 293.336 48.354,293.336 47.739,293.238 47.363 C 293.140 46.987,293.059 47.295,293.059 48.047 M103.224 131.445 C 103.228 132.305,103.308 132.610,103.401 132.124 C 103.495 131.638,103.491 130.935,103.393 130.562 C 103.296 130.188,103.219 130.586,103.224 131.445 M289.942 154.102 C 289.947 154.961,290.027 155.267,290.120 154.781 C 290.213 154.295,290.210 153.592,290.112 153.218 C 290.014 152.845,289.938 153.242,289.942 154.102 M150.884 307.312 C 151.478 307.401,152.357 307.399,152.837 307.306 C 153.318 307.214,152.832 307.140,151.758 307.143 C 150.684 307.146,150.291 307.222,150.884 307.312 M147.449 332.422 C 147.449 345.635,147.498 351.040,147.558 344.434 C 147.618 337.827,147.618 327.017,147.558 320.410 C 147.498 313.804,147.449 319.209,147.449 332.422 M82.887 330.370 C 85.614 330.437,90.184 330.437,93.043 330.370 C 95.903 330.303,93.672 330.249,88.086 330.248 C 82.500 330.248,80.161 330.303,82.887 330.370 M214.625 346.289 C 214.625 352.305,214.679 354.711,214.745 351.637 C 214.811 348.562,214.811 343.640,214.745 340.699 C 214.679 337.758,214.625 340.273,214.625 346.289 M142.669 339.063 C 142.669 339.814,142.749 340.122,142.847 339.746 C 142.946 339.370,142.946 338.755,142.847 338.379 C 142.749 338.003,142.669 338.311,142.669 339.063 M303.223 341.699 C 306.821 341.763,312.710 341.763,316.309 341.699 C 319.907 341.634,316.963 341.581,309.766 341.581 C 302.568 341.581,299.624 341.634,303.223 341.699 " stroke="none" fill="#c4c7c8" fill-rule="evenodd"></path><path id="path7" d="M192.480 26.838 C 192.964 26.931,193.755 26.931,194.238 26.838 C 194.722 26.745,194.326 26.669,193.359 26.669 C 192.393 26.669,191.997 26.745,192.480 26.838 M273.535 35.426 C 273.911 35.524,274.526 35.524,274.902 35.426 C 275.278 35.327,274.971 35.247,274.219 35.247 C 273.467 35.247,273.159 35.327,273.535 35.426 M125.768 47.559 L 123.633 49.805 125.879 47.670 C 127.114 46.495,128.125 45.485,128.125 45.424 C 128.125 45.134,127.751 45.472,125.768 47.559 M238.188 55.745 C 238.674 55.838,239.377 55.835,239.751 55.737 C 240.124 55.639,239.727 55.563,238.867 55.567 C 238.008 55.572,237.702 55.652,238.188 55.745 M252.051 55.738 C 252.427 55.836,253.042 55.836,253.418 55.738 C 253.794 55.640,253.486 55.559,252.734 55.559 C 251.982 55.559,251.675 55.640,252.051 55.738 M239.751 61.995 C 240.237 62.088,240.940 62.085,241.313 61.987 C 241.687 61.889,241.289 61.813,240.430 61.817 C 239.570 61.822,239.265 61.902,239.751 61.995 M118.484 78.906 C 118.484 80.303,118.555 80.874,118.642 80.176 C 118.729 79.478,118.729 78.335,118.642 77.637 C 118.555 76.938,118.484 77.510,118.484 78.906 M275.128 79.102 C 275.130 80.605,275.201 81.173,275.285 80.362 C 275.370 79.552,275.368 78.321,275.282 77.628 C 275.196 76.935,275.126 77.598,275.128 79.102 M176.661 104.081 C 175.987 105.036,175.646 105.736,175.902 105.636 C 176.322 105.473,178.331 102.344,178.017 102.344 C 177.944 102.344,177.334 103.125,176.661 104.081 M194.922 103.174 C 194.922 103.454,194.497 103.528,193.750 103.379 C 193.105 103.250,192.578 103.304,192.578 103.499 C 192.578 103.694,192.271 103.951,191.895 104.071 C 191.419 104.221,191.211 104.694,191.211 105.622 C 191.211 106.356,191.343 106.875,191.504 106.776 C 191.665 106.676,191.798 106.737,191.799 106.911 C 191.803 107.432,194.281 108.737,195.062 108.630 C 195.462 108.575,195.693 108.685,195.576 108.873 C 195.460 109.062,196.566 109.208,198.035 109.198 C 199.530 109.188,200.610 109.024,200.487 108.825 C 200.367 108.630,200.648 108.570,201.111 108.691 C 201.657 108.834,201.862 108.763,201.694 108.491 C 201.530 108.225,201.673 108.162,202.084 108.320 C 203.122 108.718,205.213 106.449,204.912 105.251 C 204.780 104.726,204.490 104.297,204.266 104.297 C 204.043 104.297,203.968 104.123,204.099 103.911 C 204.241 103.681,204.065 103.629,203.667 103.782 C 203.176 103.970,203.082 103.901,203.317 103.521 C 203.567 103.116,203.371 103.056,202.420 103.247 C 201.750 103.380,201.097 103.320,200.969 103.112 C 200.631 102.565,194.922 102.623,194.922 103.174 M271.264 112.988 L 270.117 114.258 271.387 113.111 C 272.085 112.479,272.656 111.908,272.656 111.841 C 272.656 111.539,272.334 111.805,271.264 112.988 M236.628 114.346 C 237.330 114.433,238.385 114.431,238.972 114.342 C 239.559 114.252,238.984 114.181,237.695 114.184 C 236.406 114.186,235.926 114.259,236.628 114.346 M242.487 115.908 C 243.190 115.995,244.244 115.993,244.831 115.904 C 245.418 115.815,244.844 115.744,243.555 115.746 C 242.266 115.748,241.785 115.821,242.487 115.908 M195.828 121.875 C 195.828 123.271,195.899 123.843,195.986 123.145 C 196.072 122.446,196.072 121.304,195.986 120.605 C 195.899 119.907,195.828 120.479,195.828 121.875 M195.702 136.249 L 195.896 143.164 196.005 136.553 C 196.064 132.916,195.977 129.805,195.811 129.638 C 195.644 129.471,195.595 132.446,195.702 136.249 M284.474 133.008 C 284.478 133.867,284.558 134.173,284.651 133.687 C 284.745 133.201,284.741 132.498,284.643 132.124 C 284.546 131.751,284.469 132.148,284.474 133.008 M103.291 143.164 C 103.292 147.891,103.348 149.771,103.417 147.342 C 103.485 144.913,103.485 141.046,103.416 138.748 C 103.347 136.450,103.291 138.438,103.291 143.164 M289.544 139.844 C 289.544 140.596,289.624 140.903,289.722 140.527 C 289.821 140.151,289.821 139.536,289.722 139.160 C 289.624 138.784,289.544 139.092,289.544 139.844 M108.362 150.781 C 108.362 154.326,108.421 155.776,108.494 154.004 C 108.566 152.231,108.566 149.331,108.494 147.559 C 108.421 145.786,108.362 147.236,108.362 150.781 M284.877 151.758 C 284.880 152.832,284.956 153.225,285.046 152.631 C 285.136 152.038,285.133 151.159,285.041 150.678 C 284.948 150.198,284.874 150.684,284.877 151.758 M289.993 171.289 C 289.994 173.867,290.057 174.871,290.133 173.520 C 290.210 172.169,290.209 170.059,290.132 168.832 C 290.055 167.605,289.992 168.711,289.993 171.289 M285.309 173.438 C 285.309 176.338,285.371 177.524,285.446 176.074 C 285.521 174.624,285.521 172.251,285.446 170.801 C 285.371 169.351,285.309 170.537,285.309 173.438 M78.885 179.980 L 77.539 181.445 79.004 180.099 C 80.367 178.846,80.648 178.516,80.350 178.516 C 80.285 178.516,79.626 179.175,78.885 179.980 M275.481 232.031 C 275.481 232.783,275.562 233.091,275.660 232.715 C 275.758 232.339,275.758 231.724,275.660 231.348 C 275.562 230.972,275.481 231.279,275.481 232.031 M317.695 241.406 C 317.695 242.588,317.768 243.071,317.858 242.480 C 317.947 241.890,317.947 240.923,317.858 240.332 C 317.768 239.741,317.695 240.225,317.695 241.406 M340.724 252.148 C 340.728 253.008,340.808 253.313,340.901 252.827 C 340.995 252.342,340.991 251.638,340.893 251.265 C 340.796 250.892,340.719 251.289,340.724 252.148 M195.020 286.226 C 196.255 286.304,198.276 286.304,199.512 286.226 C 200.747 286.149,199.736 286.085,197.266 286.085 C 194.795 286.085,193.784 286.149,195.020 286.226 M73.926 307.301 C 74.302 307.399,74.917 307.399,75.293 307.301 C 75.669 307.202,75.361 307.122,74.609 307.122 C 73.857 307.122,73.550 307.202,73.926 307.301 M271.974 337.305 C 271.978 338.164,272.058 338.470,272.151 337.984 C 272.245 337.498,272.241 336.795,272.143 336.421 C 272.046 336.048,271.969 336.445,271.974 337.305 M186.830 342.773 C 186.833 343.848,186.909 344.241,186.999 343.647 C 187.089 343.053,187.086 342.174,186.994 341.694 C 186.901 341.213,186.828 341.699,186.830 342.773 M174.712 358.483 C 175.306 358.573,176.185 358.571,176.666 358.478 C 177.146 358.385,176.660 358.312,175.586 358.315 C 174.512 358.318,174.119 358.394,174.712 358.483 M75.684 358.876 C 76.382 358.963,77.524 358.963,78.223 358.876 C 78.921 358.790,78.350 358.719,76.953 358.719 C 75.557 358.719,74.985 358.790,75.684 358.876 M260.840 363.166 C 261.323 363.259,262.114 363.259,262.598 363.166 C 263.081 363.073,262.686 362.997,261.719 362.997 C 260.752 362.997,260.356 363.073,260.840 363.166 " stroke="none" fill="#7c7c74" fill-rule="evenodd"></path><path id="path8" d="" stroke="none" fill="#c0ac94" fill-rule="evenodd"></path></g></svg>