<svg id="svg" version="1.1" xmlns="http://www.w3.org/2000/svg" xmlns:xlink="http://www.w3.org/1999/xlink" width="400" height="400" viewBox="0, 0, 400,400"><g id="svgg"><path id="path0" d="M143.945 94.949 C 124.771 96.315,123.168 97.985,124.259 115.451 C 125.332 132.613,131.502 139.056,148.404 140.667 C 164.301 142.182,176.011 137.661,180.487 128.283 C 184.517 119.838,185.215 104.087,181.742 99.960 C 178.398 95.986,161.266 93.714,143.945 94.949 M236.133 94.920 C 217.642 96.232,214.384 99.225,215.618 113.762 C 216.543 124.664,218.614 130.144,223.469 134.537 C 233.286 143.420,260.570 142.997,269.747 133.820 C 277.290 126.276,278.925 100.740,272.074 97.489 C 267.733 95.429,248.413 94.048,236.133 94.920 M169.730 107.074 C 173.525 108.858,175.764 112.611,175.764 117.188 C 175.764 131.503,155.290 132.438,154.392 118.164 C 153.851 109.567,162.196 103.533,169.730 107.074 M240.100 107.019 C 245.405 109.363,247.983 116.480,245.480 121.875 C 240.367 132.899,225.227 129.396,225.217 117.188 C 225.211 109.121,232.927 103.849,240.100 107.019 M166.584 114.240 C 166.056 114.767,165.625 115.566,165.625 116.016 C 165.625 116.465,166.056 117.264,166.584 117.791 C 167.111 118.319,167.910 118.750,168.359 118.750 C 168.809 118.750,169.608 118.319,170.135 117.791 C 170.662 117.264,171.094 116.465,171.094 116.016 C 171.094 113.775,168.192 112.632,166.584 114.240 M237.287 114.240 C 234.905 116.622,237.780 120.074,240.538 118.142 C 242.016 117.107,241.697 114.641,239.967 113.730 C 238.748 113.089,238.366 113.161,237.287 114.240 M185.451 143.392 C 178.964 144.922,173.060 151.416,174.038 155.947 C 175.756 163.908,184.529 165.155,196.743 159.174 C 200.771 157.202,201.217 157.125,202.674 158.153 C 208.503 162.263,217.336 163.976,221.537 161.811 C 229.469 157.722,225.127 146.647,214.384 143.566 L 212.167 142.930 210.283 144.376 C 203.993 149.203,194.968 149.102,189.318 144.141 C 187.895 142.892,187.718 142.858,185.451 143.392 M189.461 144.928 C 195.141 149.427,203.531 149.628,209.687 145.414 C 212.565 143.443,213.361 143.418,217.089 145.181 C 227.954 150.317,227.483 162.426,216.425 162.249 C 213.092 162.196,208.636 160.885,205.078 158.910 C 200.314 156.266,201.057 156.343,197.688 158.138 C 185.244 164.769,174.609 163.313,174.609 154.979 C 174.609 148.379,184.967 141.369,189.461 144.928 M202.344 171.196 C 202.344 179.821,202.489 180.469,204.429 180.469 C 209.086 180.469,213.281 175.197,213.281 169.347 L 213.281 167.350 210.535 166.706 C 209.025 166.351,206.564 165.470,205.066 164.748 L 202.344 163.435 202.344 171.196 M195.898 164.600 C 193.564 165.706,189.051 167.188,188.018 167.188 C 184.966 167.188,188.234 176.920,192.033 179.146 C 197.033 182.076,197.709 181.111,197.567 171.243 L 197.461 163.860 195.898 164.600 M102.344 205.228 C 90.907 210.011,85.928 216.158,89.942 220.538 C 92.377 223.195,95.845 222.729,100.639 219.100 C 102.016 218.058,103.481 217.024,103.896 216.802 C 104.608 216.422,105.379 204.252,104.688 204.313 C 104.580 204.322,103.525 204.734,102.344 205.228 M296.271 212.159 L 296.558 219.719 297.687 220.895 C 298.308 221.541,299.479 223.030,300.290 224.202 C 305.455 231.673,312.345 229.849,312.815 220.886 C 313.192 213.701,307.666 208.138,296.917 204.883 L 295.983 204.600 296.271 212.159 M104.297 210.533 C 104.297 215.775,104.263 216.006,103.426 216.454 C 102.947 216.710,101.673 217.621,100.594 218.478 C 93.302 224.271,86.064 220.732,90.594 213.589 C 92.108 211.202,101.652 205.150,104.004 205.086 C 104.165 205.082,104.297 207.533,104.297 210.533 M302.539 207.803 C 309.863 211.421,312.307 214.455,312.301 219.922 C 312.291 228.726,306.433 231.212,301.296 224.594 C 300.385 223.421,299.062 221.776,298.355 220.940 L 297.070 219.418 296.875 212.425 L 296.680 205.432 297.656 205.653 C 298.193 205.774,300.391 206.742,302.539 207.803 M123.516 322.126 C 118.336 326.469,116.738 331.720,119.604 334.985 C 122.646 338.448,129.375 337.076,136.264 331.587 L 138.739 329.615 135.588 327.836 C 133.855 326.857,130.851 324.852,128.912 323.380 C 126.973 321.908,125.344 320.707,125.291 320.711 C 125.238 320.715,124.440 321.352,123.516 322.126 M269.531 323.449 C 267.490 324.934,264.450 326.926,262.776 327.873 L 259.731 329.597 261.408 331.042 C 267.090 335.938,274.228 338.169,277.694 336.131 C 282.215 333.473,281.622 328.020,276.265 323.009 C 273.296 320.232,274.015 320.185,269.531 323.449 M128.418 323.619 C 129.868 324.794,132.497 326.596,134.260 327.623 C 136.024 328.651,137.474 329.624,137.483 329.786 C 137.514 330.329,132.642 333.694,130.078 334.902 C 119.891 339.699,114.513 331.127,122.900 323.461 C 125.546 321.042,125.223 321.033,128.418 323.619 M275.264 322.654 C 279.790 325.982,281.443 332.020,278.605 334.856 C 275.824 337.634,269.444 336.392,263.379 331.892 C 260.353 329.646,260.312 329.865,264.169 327.623 C 265.936 326.596,268.613 324.809,270.117 323.654 C 273.372 321.154,273.256 321.177,275.264 322.654 " stroke="none" fill="#f2edde" fill-rule="evenodd"></path><path id="path1" d="M186.328 56.704 C 168.811 58.179,150.732 63.834,139.937 71.216 L 136.711 73.423 134.664 72.144 C 119.873 62.903,100.412 69.818,96.682 85.641 C 94.310 95.701,98.853 106.220,107.524 110.742 C 109.003 111.514,109.701 112.098,109.566 112.452 C 108.932 114.118,106.968 122.727,106.301 126.758 C 104.553 137.320,104.492 138.779,104.508 168.965 L 104.523 197.891 101.335 198.911 C 86.499 203.656,79.039 213.125,83.186 221.948 C 86.414 228.814,94.657 230.466,102.001 225.719 L 104.371 224.188 104.144 225.668 C 98.279 263.906,103.006 295.517,117.270 313.457 L 119.739 316.562 117.157 319.144 C 111.266 325.036,109.730 333.554,113.658 338.548 C 114.090 339.096,114.344 339.704,114.223 339.899 C 114.103 340.094,114.149 340.212,114.326 340.161 C 115.094 339.940,116.523 341.091,115.971 341.485 C 115.555 341.781,115.593 341.818,116.136 341.642 C 116.524 341.516,117.579 341.807,118.480 342.289 C 122.410 344.390,130.183 343.370,135.739 340.024 C 137.001 339.265,138.221 338.713,138.450 338.799 C 138.680 338.884,139.219 338.799,139.648 338.610 C 140.365 338.294,140.357 338.279,139.551 338.432 C 138.286 338.672,138.360 338.566,141.699 335.344 C 144.451 332.688,145.806 331.698,145.080 332.873 C 144.917 333.136,144.972 333.218,145.211 333.070 C 145.437 332.931,146.740 333.238,148.106 333.752 C 175.557 344.085,223.966 344.026,250.956 333.627 C 253.923 332.484,255.155 332.522,254.406 333.733 C 254.280 333.938,254.349 333.998,254.560 333.868 C 254.771 333.737,255.985 334.684,257.257 335.971 C 262.037 340.809,267.604 343.359,273.381 343.359 C 287.500 343.359,292.346 329.308,281.754 319.082 L 279.094 316.514 280.972 314.214 C 282.005 312.949,283.852 310.420,285.077 308.594 C 286.302 306.768,287.452 305.166,287.631 305.034 C 287.811 304.903,287.975 304.639,287.998 304.449 C 288.020 304.258,288.971 302.137,290.113 299.737 C 291.254 297.336,292.188 295.095,292.188 294.756 C 292.188 294.213,293.290 294.141,301.563 294.141 C 307.552 294.141,310.938 294.282,310.938 294.531 C 310.938 294.746,311.124 294.922,311.351 294.922 C 311.579 294.922,311.656 294.746,311.523 294.531 C 311.370 294.283,312.431 294.141,314.430 294.141 C 316.685 294.141,317.580 294.279,317.584 294.629 C 317.588 294.963,317.681 294.983,317.877 294.691 C 318.052 294.432,319.915 294.243,322.656 294.207 C 325.127 294.175,327.763 293.971,328.513 293.754 C 330.305 293.236,330.971 293.254,330.627 293.810 C 330.449 294.099,330.520 294.155,330.825 293.967 C 331.087 293.804,331.207 293.577,331.091 293.461 C 330.975 293.345,331.622 292.778,332.530 292.201 C 333.437 291.624,334.768 290.481,335.488 289.659 C 336.531 288.469,336.873 288.277,337.174 288.712 C 337.457 289.121,337.498 289.063,337.337 288.477 C 337.219 288.047,337.384 286.832,337.702 285.778 C 338.157 284.272,338.281 281.408,338.281 272.431 C 338.281 263.654,338.395 260.957,338.770 260.806 C 339.160 260.648,339.160 260.602,338.770 260.578 C 337.998 260.529,338.095 255.469,338.867 255.469 C 339.189 255.469,339.453 255.645,339.453 255.859 C 339.453 256.074,339.650 256.250,339.892 256.250 C 340.211 256.250,340.214 256.110,339.901 255.733 C 339.648 255.428,339.615 255.067,339.820 254.854 C 340.027 254.640,339.925 254.270,339.571 253.947 C 339.048 253.469,339.007 253.506,339.240 254.240 C 339.428 254.834,339.341 255.078,338.940 255.078 C 338.499 255.078,338.339 254.285,338.214 251.465 C 337.891 244.204,333.556 239.881,326.563 239.846 C 322.932 239.828,322.963 239.850,321.891 236.523 C 321.406 235.020,320.404 232.354,319.664 230.600 L 318.318 227.411 318.969 225.173 C 321.052 218.005,318.726 210.754,312.742 205.762 C 311.427 204.665,310.393 203.630,310.445 203.460 C 310.496 203.291,310.299 203.245,310.007 203.357 C 309.715 203.469,309.196 203.280,308.853 202.938 C 308.511 202.596,308.141 202.313,308.031 202.310 C 307.921 202.307,306.728 201.797,305.380 201.178 C 304.032 200.559,301.371 199.557,299.465 198.952 L 296.001 197.852 296.218 177.708 C 296.584 143.852,294.849 122.944,290.797 112.384 C 290.635 111.962,291.239 111.437,292.918 110.543 C 301.133 106.164,305.927 95.052,303.692 85.568 C 299.937 69.639,279.022 62.530,265.709 72.657 L 263.644 74.228 260.240 71.980 C 242.203 60.074,214.445 54.337,186.328 56.704 M150.491 62.923 C 151.044 63.245,151.096 63.490,150.762 64.181 C 150.365 65.003,150.373 65.008,150.948 64.290 C 151.577 63.506,151.174 62.487,150.245 62.512 C 150.003 62.518,150.113 62.704,150.491 62.923 M208.830 62.896 C 235.549 64.995,256.146 73.416,266.472 86.461 C 268.378 88.868,268.355 89.006,266.113 88.657 C 261.245 87.899,249.719 87.404,241.842 87.614 C 221.351 88.160,212.453 91.061,209.397 98.191 L 208.675 99.875 205.607 99.372 C 200.756 98.577,197.296 98.693,191.895 99.830 C 190.901 100.040,190.625 99.968,190.625 99.502 C 190.625 98.482,187.771 94.613,186.133 93.413 C 178.933 88.141,157.634 86.165,133.425 88.523 L 130.717 88.787 132.625 86.358 C 143.083 73.048,162.313 65.035,189.258 62.763 C 192.923 62.454,204.179 62.530,208.830 62.896 M144.047 66.332 C 143.900 66.895,144.017 67.071,144.481 66.981 C 144.831 66.912,145.249 66.843,145.410 66.827 C 145.571 66.810,145.703 66.611,145.703 66.383 C 145.703 66.156,145.508 66.090,145.269 66.238 C 145.030 66.386,144.703 66.293,144.542 66.033 C 144.339 65.705,144.187 65.798,144.047 66.332 M126.953 75.353 C 128.135 75.800,129.675 76.517,130.376 76.947 L 131.651 77.729 129.399 80.415 C 127.508 82.672,124.522 87.177,124.121 88.379 C 124.060 88.562,122.958 88.226,121.673 87.632 C 118.328 86.086,114.920 86.076,113.389 87.607 C 111.281 89.715,112.291 95.041,115.235 97.345 L 116.429 98.280 115.279 100.816 C 114.646 102.212,114.006 104.005,113.857 104.802 C 113.535 106.519,113.269 106.557,110.662 105.258 C 104.997 102.435,101.480 94.970,102.699 88.355 C 104.631 77.872,116.619 71.445,126.953 75.353 M284.947 74.818 C 299.358 78.571,302.277 98.810,289.338 105.258 C 286.794 106.525,286.477 106.505,286.188 105.060 C 286.057 104.405,285.425 102.674,284.783 101.212 L 283.616 98.554 285.328 96.767 C 291.467 90.360,286.170 83.743,278.183 87.841 C 276.819 88.541,275.672 89.058,275.636 88.990 C 275.599 88.923,275.153 88.076,274.643 87.109 C 273.550 85.036,271.065 81.559,269.432 79.819 C 268.024 78.319,268.169 78.039,271.132 76.543 C 275.691 74.242,280.453 73.647,284.947 74.818 M93.945 87.891 C 93.813 88.105,94.022 88.294,94.411 88.309 C 95.041 88.333,95.033 88.372,94.336 88.672 C 93.906 88.857,93.785 89.020,94.066 89.035 C 94.347 89.050,94.466 89.282,94.330 89.551 C 94.194 89.819,94.333 89.734,94.639 89.362 C 94.944 88.989,95.351 88.813,95.542 88.971 C 95.734 89.129,95.557 88.862,95.150 88.379 C 94.305 87.375,94.272 87.362,93.945 87.891 M169.428 95.499 C 182.247 97.262,184.285 99.493,183.863 111.301 C 183.109 132.344,174.463 141.031,154.297 141.007 C 132.900 140.981,125.026 133.992,124.015 114.128 C 123.389 101.830,125.428 97.200,131.946 96.113 C 141.554 94.512,160.044 94.209,169.428 95.499 M261.914 95.299 C 275.217 96.701,276.464 98.304,276.061 113.477 C 275.522 133.740,267.359 141.016,245.163 141.016 C 224.818 141.016,216.444 132.778,215.382 111.719 C 214.752 99.240,217.795 96.501,234.024 94.937 C 238.532 94.503,256.585 94.737,261.914 95.299 M161.107 106.988 C 153.850 110.285,152.040 119.669,157.592 125.221 C 164.551 132.180,175.794 127.111,175.777 117.020 C 175.765 109.361,167.830 103.935,161.107 106.988 M231.344 107.253 C 223.252 111.286,223.141 123.283,231.160 127.221 C 240.268 131.694,249.522 122.131,245.311 112.598 C 242.883 107.101,236.529 104.669,231.344 107.253 M204.548 107.656 C 208.390 108.438,208.064 107.979,208.587 113.352 C 210.851 136.621,220.900 146.497,242.987 147.161 C 269.728 147.964,281.193 138.762,282.762 115.234 L 283.036 111.133 284.450 115.430 C 286.492 121.637,287.734 128.335,288.696 138.335 C 288.910 140.561,289.248 155.039,289.448 170.508 C 289.647 185.977,289.934 203.959,290.085 210.469 C 290.275 218.635,290.203 224.949,289.854 230.829 L 289.348 239.352 287.264 239.819 C 282.443 240.898,278.543 243.810,276.834 247.608 C 276.091 249.259,275.743 269.944,276.149 288.365 C 276.200 290.691,279.342 292.967,283.327 293.564 C 285.447 293.882,285.440 293.736,283.541 297.968 C 272.783 321.946,244.047 334.560,200.195 334.555 C 128.470 334.545,102.245 306.996,109.106 238.867 C 110.371 226.307,110.560 220.446,110.456 196.875 C 110.195 137.704,110.602 131.184,115.535 115.625 L 116.959 111.133 117.258 114.804 C 119.180 138.427,129.127 147.266,153.790 147.266 C 177.909 147.266,191.016 134.341,191.016 110.556 C 191.016 108.334,191.031 108.321,194.242 107.623 C 197.565 106.901,200.892 106.912,204.548 107.656 M291.948 112.181 C 291.835 112.363,291.552 112.395,291.319 112.251 C 291.060 112.091,291.008 112.171,291.185 112.459 C 291.389 112.789,291.622 112.808,291.965 112.522 C 292.234 112.299,292.553 112.214,292.673 112.334 C 292.792 112.454,292.988 112.394,293.108 112.200 C 293.227 112.007,293.061 111.849,292.739 111.849 C 292.417 111.849,292.061 111.998,291.948 112.181 M170.284 114.310 C 171.329 115.639,171.313 116.953,170.239 117.954 C 168.459 119.611,165.625 118.421,165.625 116.016 C 165.625 113.458,168.722 112.325,170.284 114.310 M240.565 113.965 C 241.811 115.019,241.982 116.456,241.009 117.693 C 239.427 119.705,236.328 118.595,236.328 116.016 C 236.328 113.714,238.834 112.500,240.565 113.965 M193.714 128.065 C 189.522 129.745,186.170 133.246,184.811 137.363 C 184.393 138.630,184.016 139.032,182.869 139.432 C 166.710 145.067,164.746 164.548,180.065 167.246 L 182.422 167.662 182.422 169.922 C 182.422 179.716,191.814 187.878,199.158 184.467 C 200.368 183.905,200.556 183.914,201.697 184.590 C 208.118 188.394,217.969 179.371,217.969 169.685 L 217.969 167.188 219.126 167.188 C 222.709 167.188,227.366 163.961,229.154 160.240 C 232.850 152.549,227.127 143.263,216.350 139.469 C 214.103 138.677,214.076 138.647,213.078 135.814 C 210.817 129.393,200.602 125.305,193.714 128.065 M193.359 146.615 C 198.126 148.800,207.328 147.313,210.678 143.817 L 211.779 142.668 214.045 143.354 C 220.807 145.402,225.751 150.391,225.773 155.191 C 225.811 163.602,214.861 165.486,203.838 158.964 C 200.688 157.101,200.984 157.111,197.963 158.769 C 187.897 164.293,178.460 164.466,175.199 159.187 C 171.573 153.317,176.354 145.852,185.342 143.349 L 187.676 142.699 189.639 144.254 C 190.718 145.109,192.393 146.172,193.359 146.615 M205.044 164.606 C 206.564 165.334,209.039 166.232,210.544 166.601 L 213.281 167.272 213.281 169.866 C 213.280 176.190,206.057 183.300,202.945 180.041 C 202.427 179.498,201.584 163.281,202.074 163.281 C 202.187 163.281,203.524 163.877,205.044 164.606 M197.260 179.698 C 196.460 181.193,193.141 180.453,190.586 178.210 C 188.518 176.394,187.390 173.775,187.191 170.326 L 187.020 167.383 189.702 166.683 C 191.176 166.298,193.525 165.501,194.922 164.912 L 197.461 163.842 197.567 171.384 C 197.634 176.140,197.520 179.212,197.260 179.698 M191.278 199.598 C 186.729 200.478,186.981 207.235,191.831 214.382 L 193.816 217.308 188.284 239.483 C 184.158 256.022,182.850 261.839,183.135 262.372 C 183.947 263.888,198.386 277.707,199.434 277.969 C 200.101 278.137,200.837 278.033,201.393 277.693 C 202.818 276.821,217.188 262.870,217.188 262.358 C 217.188 262.103,214.727 252.142,211.719 240.224 C 205.531 215.701,205.810 217.411,207.590 214.934 C 212.396 208.243,213.322 200.699,209.468 199.629 C 207.829 199.173,193.598 199.149,191.278 199.598 M304.827 200.270 C 304.951 200.394,305.513 200.546,306.076 200.608 C 306.640 200.669,306.997 200.617,306.871 200.491 C 306.745 200.365,306.183 200.213,305.622 200.153 C 305.061 200.093,304.703 200.146,304.827 200.270 M307.644 201.607 C 307.762 201.797,308.112 201.953,308.421 201.953 C 308.731 201.953,308.984 202.158,308.984 202.409 C 308.984 202.660,309.088 202.761,309.215 202.633 C 309.590 202.259,308.846 201.372,308.110 201.314 C 307.736 201.284,307.527 201.416,307.644 201.607 M105.078 209.929 C 105.078 215.551,104.926 216.797,104.241 216.797 C 104.041 216.797,102.698 217.703,101.255 218.810 C 94.687 223.853,88.672 223.310,88.672 217.674 C 88.672 213.187,92.683 209.292,101.076 205.627 C 105.367 203.754,105.078 203.443,105.078 209.929 M299.996 205.882 C 308.440 209.138,313.109 214.084,313.064 219.727 C 312.986 229.628,305.968 232.209,300.391 224.389 C 299.639 223.335,298.383 221.835,297.600 221.057 L 296.177 219.642 296.121 212.165 C 296.083 207.081,296.198 204.688,296.482 204.688 C 296.712 204.688,298.293 205.225,299.996 205.882 M320.149 222.213 C 320.034 222.400,320.270 222.850,320.674 223.215 C 321.225 223.715,321.480 223.761,321.701 223.403 C 321.878 223.117,321.833 223.027,321.589 223.178 C 321.365 223.316,320.979 223.184,320.731 222.885 C 320.386 222.470,320.399 222.294,320.784 222.139 C 321.131 222.000,321.143 221.927,320.824 221.906 C 320.568 221.889,320.264 222.027,320.149 222.213 M299.681 232.939 C 299.631 233.116,299.778 233.145,300.007 233.003 C 300.237 232.861,300.637 232.913,300.896 233.118 C 302.878 234.685,308.082 235.233,310.963 234.177 C 311.916 233.828,312.961 233.456,313.286 233.351 C 313.959 233.134,316.216 238.368,315.855 239.308 C 315.689 239.741,313.848 239.844,306.220 239.844 C 297.859 239.844,296.818 239.775,297.024 239.238 C 297.157 238.890,297.092 238.733,296.871 238.870 C 296.624 239.022,296.484 237.352,296.484 234.249 L 296.484 229.389 298.128 231.003 C 299.032 231.891,299.731 232.762,299.681 232.939 M312.784 234.398 C 313.139 234.773,313.150 235.039,312.826 235.430 C 312.177 236.211,312.595 236.304,313.321 235.540 C 313.897 234.934,313.881 234.842,313.126 234.387 C 312.455 233.983,312.392 233.985,312.784 234.398 M327.474 238.477 C 327.474 238.799,327.703 239.063,327.983 239.063 C 328.274 239.063,328.395 238.812,328.266 238.477 C 328.143 238.154,327.914 237.891,327.758 237.891 C 327.602 237.891,327.474 238.154,327.474 238.477 M329.157 246.732 C 331.825 247.998,332.969 254.677,331.037 257.705 C 328.047 262.391,319.731 265.611,318.175 262.685 C 315.628 257.891,308.738 257.683,305.928 262.315 C 304.457 264.740,301.625 264.616,295.142 261.841 C 291.358 260.221,292.005 261.032,290.651 256.216 C 290.022 253.979,288.983 250.921,288.342 249.421 C 287.700 247.920,287.259 246.558,287.361 246.393 C 287.776 245.722,327.710 246.046,329.157 246.732 M100.151 247.732 C 100.195 248.566,101.172 249.273,101.172 248.470 C 101.172 248.237,100.986 248.047,100.758 248.047 C 100.531 248.047,100.446 247.883,100.569 247.683 C 100.693 247.483,100.640 247.224,100.451 247.108 C 100.262 246.991,100.127 247.272,100.151 247.732 M284.641 253.199 C 286.939 260.810,287.110 262.255,287.105 274.105 C 287.103 280.076,286.989 285.640,286.851 286.470 L 286.602 287.979 284.684 287.795 C 281.920 287.529,282.062 288.532,282.016 268.927 C 281.964 246.654,282.213 245.159,284.641 253.199 M331.641 274.569 C 331.363 288.943,333.523 287.655,309.420 287.818 L 291.302 287.940 291.540 284.498 C 291.671 282.604,291.894 277.573,292.035 273.318 C 292.266 266.397,292.359 265.611,292.924 265.863 C 295.656 267.079,299.390 268.046,302.090 268.237 C 305.263 268.461,305.283 268.469,306.206 269.930 C 308.881 274.164,315.008 274.141,317.896 269.886 C 318.757 268.618,318.941 268.542,321.802 268.294 C 325.206 267.999,328.831 266.780,330.390 265.407 C 330.971 264.896,331.533 264.472,331.641 264.465 C 331.748 264.458,331.748 269.005,331.641 274.569 M100.167 266.448 C 100.167 266.809,100.444 267.277,100.783 267.489 C 101.287 267.803,101.396 267.683,101.385 266.833 C 101.376 266.162,101.157 265.792,100.769 265.792 C 100.438 265.792,100.167 266.088,100.167 266.448 M339.262 269.916 C 339.127 270.134,339.159 270.315,339.332 270.318 C 339.506 270.322,339.385 270.495,339.063 270.703 C 338.740 270.911,338.675 271.084,338.917 271.088 C 339.576 271.097,340.348 270.038,339.890 269.755 C 339.679 269.625,339.397 269.697,339.262 269.916 M338.686 271.803 C 338.678 272.086,338.854 272.657,339.076 273.073 C 339.372 273.625,339.354 273.828,339.011 273.828 C 338.753 273.828,338.644 273.930,338.769 274.055 C 339.086 274.373,340.625 273.499,340.625 273.001 C 340.625 272.775,340.405 272.668,340.137 272.762 C 339.868 272.856,339.435 272.563,339.174 272.111 C 338.913 271.659,338.693 271.520,338.686 271.803 M100.469 272.344 C 99.918 272.894,99.837 273.584,100.361 273.260 C 100.560 273.138,100.798 273.259,100.890 273.530 C 100.982 273.802,100.996 273.642,100.920 273.177 C 100.845 272.711,101.002 272.242,101.270 272.133 C 101.538 272.025,101.573 271.923,101.348 271.906 C 101.122 271.889,100.727 272.086,100.469 272.344 M304.879 294.929 C 304.803 295.051,305.257 295.190,305.886 295.238 C 306.516 295.286,307.031 295.148,307.031 294.932 C 307.031 294.531,305.127 294.528,304.879 294.929 M312.312 295.238 C 311.996 296.063,312.204 296.091,312.988 295.327 C 313.533 294.797,313.556 294.661,313.103 294.661 C 312.790 294.661,312.434 294.921,312.312 295.238 M324.026 294.917 C 323.884 295.147,324.060 295.199,324.458 295.046 C 324.910 294.873,325.037 294.937,324.848 295.242 C 324.663 295.542,324.783 295.612,325.208 295.449 C 325.719 295.253,325.743 295.138,325.326 294.873 C 324.639 294.438,324.316 294.449,324.026 294.917 M127.919 322.435 C 130.778 324.764,134.132 327.014,136.621 328.273 C 139.347 329.652,139.241 329.839,133.594 333.615 C 121.459 341.728,112.164 333.619,122.048 323.541 C 125.328 320.197,125.200 320.221,127.919 322.435 M275.260 321.825 C 281.391 326.267,282.660 333.697,277.720 336.230 C 273.783 338.250,267.513 336.301,261.265 331.116 C 259.337 329.516,259.259 329.676,262.988 327.580 C 264.761 326.584,267.705 324.643,269.531 323.266 C 273.412 320.340,273.262 320.378,275.260 321.825 " stroke="none" fill="#08141a" fill-rule="evenodd"></path><path id="path2" d="M194.629 62.787 C 195.649 62.868,197.319 62.868,198.340 62.787 C 199.360 62.707,198.525 62.641,196.484 62.641 C 194.443 62.641,193.608 62.707,194.629 62.787 M200.879 62.769 C 201.255 62.868,201.870 62.868,202.246 62.769 C 202.622 62.671,202.314 62.591,201.563 62.591 C 200.811 62.591,200.503 62.671,200.879 62.769 M185.571 63.680 C 179.552 64.305,174.047 65.224,169.147 66.420 C 166.482 67.071,164.063 67.512,163.771 67.400 C 163.479 67.288,163.332 67.344,163.443 67.525 C 163.714 67.962,160.654 68.862,160.088 68.512 C 159.828 68.352,159.752 68.412,159.904 68.658 C 160.224 69.175,157.627 70.095,156.979 69.694 C 156.703 69.523,156.624 69.579,156.781 69.833 C 157.098 70.345,155.660 70.867,155.021 70.473 C 154.757 70.309,154.671 70.361,154.817 70.597 C 155.138 71.117,152.937 72.046,152.307 71.657 C 151.983 71.457,151.934 71.528,152.152 71.881 C 152.386 72.260,152.292 72.329,151.802 72.141 C 151.350 71.968,151.222 72.032,151.411 72.336 C 151.599 72.641,151.472 72.705,151.020 72.532 C 150.569 72.358,150.441 72.422,150.630 72.727 C 150.818 73.032,150.691 73.096,150.239 72.922 C 149.787 72.749,149.660 72.813,149.848 73.118 C 150.037 73.423,149.910 73.486,149.458 73.313 C 149.076 73.167,148.886 73.215,149.016 73.425 C 149.301 73.886,146.995 75.120,146.463 74.792 C 146.249 74.659,146.123 74.784,146.182 75.069 C 146.243 75.362,145.982 75.561,145.579 75.527 C 145.189 75.495,144.968 75.567,145.089 75.688 C 145.455 76.053,143.781 77.018,143.298 76.720 C 143.027 76.552,142.954 76.613,143.115 76.873 C 143.426 77.377,142.048 78.231,141.590 77.818 C 141.420 77.665,141.402 77.750,141.550 78.008 C 141.858 78.544,140.502 79.419,140.028 78.990 C 139.858 78.837,139.833 78.911,139.972 79.155 C 140.258 79.656,139.417 80.486,138.485 80.623 C 138.146 80.672,137.866 80.878,137.862 81.079 C 137.851 81.619,135.494 83.959,135.053 83.867 C 134.844 83.824,134.622 84.097,134.559 84.473 C 134.496 84.849,133.982 85.706,133.417 86.377 C 132.038 88.016,132.035 88.015,137.761 87.553 C 154.345 86.212,180.415 87.718,179.044 89.937 C 178.887 90.191,178.971 90.241,179.259 90.063 C 179.889 89.673,181.736 90.155,181.441 90.632 C 181.314 90.838,181.474 90.905,181.797 90.781 C 183.063 90.295,189.461 94.742,188.871 95.698 C 188.729 95.926,188.847 96.065,189.131 96.006 C 189.416 95.947,189.625 96.199,189.597 96.567 C 189.568 96.934,189.744 97.198,189.987 97.153 C 190.231 97.107,190.417 97.457,190.401 97.930 C 190.385 98.403,190.502 98.709,190.660 98.611 C 190.819 98.513,191.010 98.615,191.084 98.838 C 191.174 99.108,192.582 99.028,195.309 98.596 C 199.245 97.972,204.207 98.161,207.664 99.067 C 208.317 99.238,208.547 99.067,208.750 98.259 C 208.906 97.636,209.180 97.340,209.447 97.505 C 209.712 97.669,209.778 97.601,209.613 97.334 C 209.237 96.726,210.093 95.227,210.627 95.557 C 210.865 95.704,210.949 95.647,210.815 95.430 C 210.572 95.037,212.385 93.046,212.759 93.294 C 212.867 93.366,213.073 93.294,213.216 93.134 C 213.359 92.974,213.213 92.993,212.891 93.176 C 212.381 93.466,212.376 93.421,212.856 92.831 C 213.159 92.457,213.651 92.246,213.950 92.361 C 214.249 92.475,214.391 92.403,214.265 92.200 C 213.961 91.707,216.322 90.509,217.048 90.788 C 217.362 90.908,217.520 90.847,217.400 90.652 C 217.116 90.193,219.771 89.312,220.544 89.608 C 220.869 89.733,221.043 89.688,220.932 89.508 C 219.599 87.350,246.502 86.241,263.867 87.737 C 266.983 88.006,266.990 88.004,266.292 87.216 C 265.907 86.782,265.644 86.272,265.706 86.084 C 265.769 85.896,265.695 85.742,265.541 85.742 C 264.967 85.742,260.983 81.492,261.211 81.123 C 261.342 80.912,261.275 80.846,261.062 80.978 C 260.514 81.317,258.917 80.113,259.234 79.600 C 259.378 79.367,259.319 79.285,259.103 79.419 C 258.660 79.692,256.010 77.855,256.137 77.363 C 256.182 77.188,255.919 77.068,255.551 77.097 C 255.184 77.125,254.931 76.916,254.990 76.631 C 255.049 76.347,254.925 76.220,254.715 76.350 C 254.218 76.657,250.674 74.456,251.054 74.076 C 251.213 73.917,251.012 73.914,250.608 74.069 C 250.056 74.281,249.952 74.222,250.192 73.834 C 250.395 73.506,250.360 73.411,250.096 73.574 C 249.549 73.911,248.381 73.454,248.655 73.010 C 248.773 72.821,248.567 72.781,248.198 72.922 C 247.747 73.096,247.619 73.032,247.808 72.727 C 247.996 72.422,247.869 72.358,247.417 72.532 C 246.926 72.720,246.832 72.650,247.067 72.272 C 247.281 71.925,247.236 71.847,246.930 72.037 C 246.327 72.409,240.204 69.896,240.510 69.402 C 240.641 69.190,240.545 69.144,240.295 69.298 C 239.737 69.643,234.342 67.948,234.611 67.512 C 234.718 67.339,234.577 67.284,234.298 67.391 C 234.018 67.498,231.597 67.084,228.918 66.471 C 226.239 65.858,224.261 65.285,224.523 65.198 C 224.786 65.111,224.165 65.023,223.145 65.003 C 222.124 64.984,219.268 64.663,216.797 64.291 C 211.608 63.509,191.085 63.108,185.571 63.680 M114.258 76.014 C 112.754 76.561,111.229 77.033,110.869 77.064 C 110.508 77.095,110.294 77.250,110.391 77.408 C 110.603 77.751,109.195 78.567,108.840 78.307 C 108.705 78.207,108.685 78.245,108.796 78.392 C 109.104 78.800,106.572 81.254,106.128 80.979 C 105.914 80.847,105.844 80.909,105.972 81.116 C 106.274 81.604,104.915 83.691,104.540 83.316 C 104.383 83.160,104.383 83.363,104.538 83.767 C 104.733 84.276,104.681 84.417,104.368 84.223 C 104.063 84.035,103.999 84.162,104.172 84.614 C 104.337 85.042,104.278 85.190,104.009 85.024 C 103.737 84.856,103.666 85.062,103.809 85.607 C 103.930 86.071,103.870 86.353,103.675 86.233 C 102.999 85.819,103.013 93.165,103.693 95.504 C 104.041 96.702,104.205 97.880,104.056 98.121 C 103.879 98.407,103.964 98.448,104.303 98.238 C 104.682 98.004,104.751 98.098,104.563 98.589 C 104.410 98.987,104.463 99.162,104.692 99.021 C 104.904 98.889,105.078 98.943,105.078 99.141 C 105.078 99.338,105.790 100.308,106.659 101.296 C 107.529 102.284,108.276 103.228,108.319 103.394 C 108.363 103.560,108.662 103.699,108.984 103.703 C 109.307 103.708,109.539 103.893,109.501 104.116 C 109.462 104.338,109.726 104.533,110.086 104.549 C 110.447 104.565,111.375 104.858,112.149 105.200 L 113.556 105.822 113.362 104.806 C 113.238 104.155,113.316 103.881,113.579 104.044 C 113.839 104.205,113.909 103.990,113.769 103.455 C 113.605 102.827,113.680 102.693,114.061 102.929 C 114.402 103.140,114.480 103.094,114.293 102.791 C 113.898 102.152,114.420 100.715,114.932 101.031 C 115.174 101.180,115.243 101.112,115.094 100.871 C 114.951 100.639,115.043 99.991,115.298 99.430 C 115.706 98.536,115.658 98.339,114.906 97.812 C 114.435 97.482,114.153 97.044,114.280 96.839 C 114.407 96.633,114.280 96.513,113.998 96.572 C 111.747 97.043,110.961 89.352,113.047 87.266 C 114.803 85.510,122.311 85.456,121.228 87.208 C 121.086 87.438,121.158 87.507,121.391 87.362 C 121.621 87.220,122.264 87.276,122.819 87.488 C 123.501 87.747,123.828 87.740,123.828 87.467 C 123.828 87.245,124.031 87.189,124.279 87.342 C 124.558 87.515,124.624 87.449,124.452 87.170 C 124.153 86.688,125.118 85.014,125.484 85.380 C 125.605 85.500,125.677 85.280,125.645 84.889 C 125.612 84.499,125.785 84.217,126.028 84.262 C 126.272 84.307,126.447 84.044,126.419 83.676 C 126.387 83.270,126.597 83.059,126.953 83.138 C 127.275 83.210,127.413 83.143,127.260 82.989 C 126.838 82.567,127.710 81.189,128.205 81.495 C 128.448 81.645,128.527 81.584,128.386 81.356 C 128.081 80.864,129.567 78.885,130.146 79.011 C 131.500 79.306,130.589 77.692,128.966 76.920 C 124.189 74.647,118.912 74.322,114.258 76.014 M275.586 75.402 C 274.941 75.608,274.185 75.692,273.905 75.589 C 273.626 75.485,273.504 75.573,273.636 75.786 C 273.853 76.138,273.230 76.323,271.977 76.278 C 271.711 76.268,271.608 76.446,271.748 76.673 C 271.913 76.940,271.743 76.986,271.267 76.804 C 270.863 76.648,270.657 76.647,270.810 76.800 C 271.148 77.138,269.656 78.248,269.224 77.981 C 269.055 77.877,268.917 78.117,268.917 78.516 C 268.917 78.914,269.040 79.164,269.189 79.072 C 269.622 78.804,271.516 81.273,271.231 81.734 C 271.089 81.965,271.155 82.039,271.380 81.901 C 271.932 81.559,272.795 82.662,272.434 83.246 C 272.262 83.525,272.310 83.612,272.553 83.462 C 273.080 83.137,274.338 85.039,273.979 85.618 C 273.818 85.880,273.882 85.950,274.139 85.792 C 274.673 85.461,275.529 86.961,275.153 87.568 C 274.993 87.827,275.053 87.904,275.297 87.753 C 275.527 87.611,275.789 87.716,275.880 87.986 C 276.010 88.373,276.178 88.366,276.677 87.955 C 277.025 87.668,277.520 87.563,277.778 87.722 C 278.053 87.892,278.144 87.846,277.998 87.610 C 277.757 87.221,279.896 86.271,282.144 85.768 C 284.538 85.233,288.338 87.334,287.749 88.868 C 287.610 89.231,287.671 89.394,287.895 89.255 C 288.132 89.109,288.281 89.864,288.281 91.211 C 288.281 92.558,288.132 93.313,287.895 93.167 C 287.678 93.033,287.606 93.180,287.730 93.504 C 288.013 94.241,287.391 95.389,285.687 97.275 C 284.341 98.765,284.335 98.789,284.966 100.010 C 285.317 100.688,285.505 101.499,285.384 101.813 C 285.264 102.127,285.325 102.286,285.520 102.165 C 285.938 101.907,286.873 104.504,286.609 105.192 C 286.500 105.476,286.782 105.664,287.317 105.664 C 287.806 105.664,288.141 105.558,288.061 105.428 C 287.843 105.076,289.844 104.251,290.273 104.516 C 290.477 104.642,290.596 104.513,290.537 104.228 C 290.476 103.936,290.769 103.711,291.211 103.710 C 291.641 103.710,291.904 103.592,291.797 103.449 C 291.482 103.028,293.431 101.172,293.904 101.442 C 294.142 101.577,294.219 101.558,294.077 101.399 C 293.935 101.240,294.415 99.849,295.146 98.309 C 296.734 94.956,297.297 91.477,296.753 88.360 C 296.540 87.135,296.348 85.754,296.327 85.291 C 296.306 84.828,296.183 84.515,296.053 84.595 C 295.676 84.829,294.885 82.797,295.173 82.332 C 295.328 82.081,295.250 82.023,294.982 82.189 C 294.734 82.343,294.509 82.282,294.482 82.054 C 294.456 81.827,294.412 81.465,294.385 81.250 C 294.358 81.035,294.214 80.903,294.065 80.957 C 293.628 81.114,291.026 78.425,291.255 78.053 C 291.370 77.867,291.319 77.740,291.142 77.771 C 290.310 77.916,289.823 77.693,290.076 77.283 C 290.243 77.014,290.184 76.938,289.931 77.095 C 289.473 77.378,286.660 76.192,286.893 75.815 C 287.220 75.286,277.100 74.916,275.586 75.402 M198.735 107.308 C 199.221 107.401,199.924 107.397,200.298 107.300 C 200.671 107.202,200.273 107.125,199.414 107.130 C 198.555 107.134,198.249 107.214,198.735 107.308 M193.891 108.249 L 191.884 108.639 191.621 111.644 C 191.030 118.401,189.343 126.782,188.659 126.359 C 188.491 126.256,188.453 126.550,188.575 127.014 C 188.739 127.642,188.664 127.776,188.282 127.540 C 187.942 127.329,187.864 127.375,188.051 127.678 C 188.446 128.316,187.923 129.754,187.412 129.438 C 187.169 129.288,187.101 129.357,187.251 129.600 C 187.618 130.195,186.294 132.833,185.775 132.538 C 185.542 132.405,185.488 132.447,185.656 132.631 C 186.145 133.168,187.073 133.172,186.867 132.636 C 186.638 132.039,189.349 129.577,189.877 129.903 C 190.084 130.031,190.205 129.903,190.146 129.619 C 190.087 129.333,190.343 129.125,190.718 129.155 C 191.105 129.186,191.288 129.031,191.143 128.796 C 190.982 128.536,191.136 128.478,191.558 128.640 C 192.009 128.813,192.137 128.750,191.948 128.445 C 191.760 128.140,191.887 128.076,192.339 128.249 C 192.719 128.395,192.911 128.347,192.782 128.139 C 192.414 127.543,196.415 126.563,199.219 126.563 C 202.204 126.563,206.024 127.543,205.615 128.204 C 205.462 128.452,205.525 128.527,205.764 128.379 C 206.283 128.059,207.485 128.488,207.229 128.903 C 207.125 129.071,207.345 129.185,207.719 129.155 C 208.093 129.126,208.357 129.315,208.305 129.576 C 208.254 129.837,208.449 129.959,208.739 129.848 C 209.411 129.590,212.997 133.536,212.727 134.237 C 212.618 134.523,212.720 134.714,212.954 134.663 C 213.187 134.612,213.647 135.361,213.975 136.328 C 214.302 137.295,214.721 138.145,214.905 138.217 C 215.089 138.289,215.123 138.536,214.981 138.766 C 214.824 139.019,214.909 139.069,215.196 138.891 C 215.885 138.465,217.667 138.993,217.338 139.525 C 217.170 139.798,217.243 139.856,217.531 139.678 C 217.855 139.478,217.634 138.980,216.801 138.031 C 216.145 137.284,215.713 136.502,215.841 136.295 C 215.969 136.088,215.841 135.966,215.556 136.025 C 215.270 136.085,215.063 135.829,215.093 135.453 C 215.122 135.080,215.005 134.861,214.833 134.968 C 214.366 135.256,212.790 132.509,213.119 131.978 C 213.309 131.671,213.232 131.625,212.885 131.840 C 212.506 132.074,212.436 131.980,212.624 131.489 C 212.766 131.120,212.721 130.918,212.524 131.040 C 212.059 131.327,211.583 129.833,211.949 129.240 C 212.116 128.970,212.060 128.890,211.812 129.044 C 211.298 129.362,209.985 125.620,210.311 124.770 C 210.456 124.392,210.378 124.277,210.095 124.452 C 209.792 124.639,209.714 124.402,209.848 123.703 C 209.955 123.140,209.907 122.764,209.741 122.867 C 209.395 123.081,209.222 122.345,208.404 117.188 C 208.080 115.146,207.815 112.466,207.814 111.230 C 207.813 109.911,207.642 108.984,207.399 108.984 C 207.171 108.984,207.067 108.853,207.166 108.691 C 207.266 108.530,206.793 108.365,206.115 108.325 C 199.804 107.949,195.571 107.923,193.891 108.249 M282.858 113.405 C 282.833 113.795,282.982 114.431,283.190 114.819 C 283.773 115.909,282.227 125.558,281.537 125.131 C 281.297 124.983,281.246 125.069,281.414 125.340 C 281.828 126.010,281.273 128.185,280.767 127.873 C 280.518 127.719,280.462 127.798,280.629 128.068 C 281.024 128.707,280.502 130.145,279.990 129.828 C 279.737 129.672,279.680 129.749,279.848 130.021 C 280.214 130.614,279.738 132.108,279.273 131.821 C 279.076 131.699,279.031 131.901,279.172 132.270 C 279.346 132.722,279.282 132.849,278.977 132.661 C 278.672 132.472,278.608 132.600,278.782 133.052 C 278.955 133.503,278.891 133.631,278.586 133.442 C 278.282 133.254,278.218 133.381,278.391 133.833 C 278.553 134.255,278.495 134.409,278.235 134.248 C 278.001 134.103,277.846 134.286,277.876 134.672 C 277.906 135.046,277.731 135.315,277.487 135.269 C 277.244 135.224,277.068 135.488,277.097 135.855 C 277.125 136.223,276.916 136.475,276.631 136.416 C 276.337 136.355,276.230 136.496,276.383 136.744 C 277.117 137.931,267.716 144.967,266.182 144.379 C 265.851 144.252,265.688 144.317,265.816 144.524 C 266.111 145.001,264.264 145.483,263.634 145.094 C 263.346 144.916,263.262 144.965,263.419 145.219 C 264.059 146.256,252.428 148.056,245.230 148.035 C 239.310 148.017,230.991 146.830,231.460 146.069 C 231.582 145.873,231.415 145.814,231.090 145.939 C 230.239 146.265,226.498 144.952,226.815 144.438 C 226.969 144.189,226.890 144.134,226.618 144.302 C 226.307 144.494,226.609 145.129,227.568 146.298 C 228.394 147.307,228.854 148.206,228.684 148.481 C 228.511 148.760,228.560 148.847,228.805 148.695 C 229.297 148.391,229.797 149.506,229.433 150.096 C 229.290 150.327,229.359 150.398,229.589 150.256 C 230.247 149.850,230.859 152.215,230.859 155.159 C 230.859 157.100,230.733 157.780,230.408 157.580 C 230.121 157.403,230.064 157.473,230.250 157.774 C 230.639 158.405,230.158 160.251,229.681 159.957 C 229.464 159.823,229.415 160.008,229.563 160.395 C 229.736 160.847,229.673 160.974,229.368 160.786 C 229.089 160.614,228.991 160.704,229.113 161.021 C 229.222 161.305,228.761 162.149,228.089 162.897 C 227.417 163.646,227.106 163.906,227.398 163.477 C 227.885 162.761,227.873 162.740,227.250 163.228 C 226.877 163.521,226.653 163.893,226.753 164.055 C 227.052 164.539,225.481 165.727,224.964 165.408 C 224.686 165.236,224.589 165.277,224.731 165.506 C 225.058 166.034,223.248 166.967,222.633 166.587 C 222.296 166.379,222.243 166.445,222.462 166.798 C 222.698 167.180,222.563 167.254,221.936 167.090 C 221.472 166.969,221.182 167.014,221.290 167.189 C 221.399 167.365,220.828 167.621,220.021 167.759 L 218.555 168.009 218.523 170.040 C 218.482 172.687,218.017 175.076,217.595 174.815 C 217.411 174.701,217.360 174.988,217.481 175.451 C 217.631 176.024,217.558 176.206,217.254 176.017 C 216.954 175.832,216.891 175.963,217.063 176.411 C 217.217 176.811,217.164 176.985,216.932 176.841 C 216.717 176.709,216.557 176.985,216.573 177.461 C 216.589 177.934,216.403 178.283,216.159 178.238 C 215.916 178.193,215.740 178.456,215.769 178.824 C 215.797 179.191,215.588 179.444,215.303 179.385 C 215.018 179.326,214.901 179.464,215.042 179.692 C 215.376 180.233,212.264 183.345,211.723 183.011 C 211.495 182.870,211.357 182.987,211.416 183.272 C 211.475 183.558,211.220 183.765,210.844 183.736 C 210.470 183.706,210.248 183.817,210.350 183.983 C 210.680 184.516,206.746 185.938,204.940 185.938 C 202.935 185.937,201.862 185.621,202.171 185.120 C 202.288 184.930,202.083 184.890,201.714 185.032 C 201.277 185.199,201.137 185.139,201.311 184.857 C 201.501 184.549,201.223 184.527,200.343 184.779 C 199.663 184.974,198.930 185.024,198.712 184.889 C 198.470 184.740,198.440 184.844,198.634 185.157 C 198.870 185.539,198.735 185.614,198.107 185.450 C 197.644 185.328,197.363 185.388,197.483 185.583 C 197.727 185.978,194.438 186.059,193.071 185.692 C 192.590 185.564,192.309 185.275,192.448 185.051 C 192.586 184.827,192.512 184.761,192.281 184.903 C 191.729 185.244,189.735 184.476,190.011 184.029 C 190.129 183.838,189.920 183.706,189.547 183.736 C 189.171 183.765,188.915 183.558,188.975 183.272 C 189.034 182.987,188.897 182.869,188.672 183.008 C 188.099 183.362,185.417 180.604,185.773 180.028 C 185.941 179.756,185.891 179.670,185.650 179.819 C 185.124 180.144,183.866 178.243,184.224 177.663 C 184.402 177.374,184.318 177.333,183.978 177.543 C 183.600 177.777,183.530 177.683,183.718 177.192 C 183.860 176.824,183.816 176.621,183.621 176.741 C 183.162 177.025,182.281 174.369,182.577 173.596 C 182.702 173.272,182.653 173.099,182.469 173.213 C 182.159 173.404,181.605 170.619,181.668 169.184 C 181.689 168.708,181.777 168.745,182.031 169.336 C 182.358 170.096,182.368 170.094,182.394 169.280 C 182.424 168.376,181.748 167.969,180.218 167.969 C 179.686 167.969,179.349 167.809,179.470 167.615 C 179.590 167.420,179.343 167.351,178.921 167.461 C 177.941 167.717,174.519 166.088,174.864 165.529 C 175.010 165.293,174.937 165.227,174.693 165.378 C 174.112 165.737,171.394 163.298,171.646 162.642 C 171.756 162.354,171.633 162.161,171.373 162.212 C 171.112 162.263,170.923 161.999,170.952 161.625 C 170.981 161.252,170.868 161.031,170.700 161.135 C 170.285 161.391,169.855 160.189,170.176 159.670 C 170.339 159.407,170.245 159.371,169.921 159.571 C 169.539 159.807,169.464 159.673,169.629 159.045 C 169.770 158.505,169.700 158.294,169.434 158.459 C 169.154 158.631,169.102 158.281,169.274 157.385 C 169.467 156.384,169.427 156.200,169.112 156.641 C 168.804 157.071,168.738 156.480,168.864 154.410 C 169.047 151.373,170.762 147.015,171.575 147.517 C 171.807 147.660,171.888 147.603,171.756 147.390 C 171.465 146.919,172.586 145.223,173.014 145.487 C 173.181 145.591,173.799 145.174,174.386 144.560 C 175.205 143.706,175.333 143.375,174.934 143.144 C 174.648 142.979,174.546 142.989,174.708 143.167 C 175.296 143.815,173.798 144.933,172.951 144.480 C 172.416 144.194,172.251 144.192,172.425 144.473 C 172.717 144.945,169.181 146.118,164.348 147.151 C 157.805 148.550,137.907 147.647,138.927 145.997 C 139.080 145.750,138.997 145.697,138.723 145.867 C 138.136 146.229,135.864 145.747,136.130 145.317 C 136.240 145.140,135.950 145.094,135.486 145.215 C 134.858 145.379,134.724 145.305,134.960 144.923 C 135.171 144.582,135.125 144.505,134.822 144.691 C 134.229 145.058,132.735 144.581,133.022 144.117 C 133.144 143.920,132.943 143.874,132.573 144.016 C 132.122 144.190,131.994 144.126,132.183 143.821 C 132.371 143.516,132.244 143.452,131.792 143.626 C 131.340 143.799,131.213 143.735,131.402 143.430 C 131.590 143.125,131.463 143.062,131.011 143.235 C 130.589 143.397,130.435 143.339,130.596 143.079 C 130.741 142.844,130.558 142.689,130.172 142.720 C 129.798 142.749,129.529 142.574,129.575 142.331 C 129.620 142.088,129.356 141.912,128.989 141.940 C 128.621 141.969,128.369 141.759,128.428 141.475 C 128.487 141.190,128.365 141.062,128.158 141.191 C 127.637 141.513,124.943 139.081,125.257 138.572 C 125.397 138.346,125.332 138.271,125.113 138.407 C 124.553 138.753,123.295 137.265,123.655 136.683 C 123.831 136.397,123.786 136.308,123.541 136.460 C 123.014 136.785,121.756 134.883,122.114 134.304 C 122.264 134.062,122.216 133.969,122.007 134.098 C 121.491 134.417,120.189 132.136,120.469 131.405 C 120.593 131.082,120.533 130.918,120.336 131.040 C 119.872 131.327,119.395 129.833,119.762 129.240 C 119.949 128.938,119.871 128.892,119.530 129.102 C 119.148 129.338,119.074 129.204,119.238 128.576 C 119.379 128.036,119.309 127.826,119.043 127.990 C 118.776 128.155,118.706 127.944,118.847 127.404 C 118.987 126.870,118.917 126.654,118.657 126.815 C 118.393 126.978,118.316 126.703,118.442 126.046 C 118.549 125.484,118.487 125.117,118.303 125.230 C 118.119 125.344,117.966 125.295,117.962 125.121 C 117.958 124.947,117.697 123.135,117.383 121.094 C 117.068 119.053,116.794 116.680,116.773 115.820 C 116.752 114.961,116.646 114.479,116.537 114.749 C 116.429 115.018,116.195 115.150,116.019 115.041 C 115.842 114.932,115.797 115.222,115.918 115.686 C 116.082 116.313,116.008 116.448,115.626 116.212 C 115.288 116.003,115.208 116.047,115.391 116.343 C 115.543 116.590,115.220 118.594,114.673 120.798 C 111.349 134.185,111.138 137.967,111.123 184.375 C 111.114 213.283,110.974 226.196,110.631 229.688 C 109.139 244.912,108.904 248.962,108.848 260.435 C 108.816 267.141,108.893 272.332,109.019 271.972 C 109.253 271.305,110.292 278.705,110.331 281.310 C 110.342 282.096,110.468 282.666,110.610 282.578 C 110.991 282.343,111.441 285.439,111.104 285.984 C 110.931 286.264,110.983 286.346,111.236 286.190 C 111.741 285.877,112.297 288.053,111.883 288.723 C 111.722 288.983,111.765 289.080,111.983 288.945 C 112.464 288.648,113.816 292.811,113.437 293.423 C 113.255 293.718,113.335 293.763,113.673 293.554 C 114.055 293.318,114.129 293.452,113.965 294.080 C 113.823 294.626,113.893 294.831,114.165 294.663 C 114.441 294.493,114.489 294.656,114.304 295.139 C 114.148 295.544,114.153 295.743,114.314 295.582 C 114.712 295.184,118.050 301.897,117.720 302.431 C 117.567 302.678,117.638 302.743,117.892 302.587 C 118.398 302.274,119.642 304.431,119.223 304.896 C 119.070 305.065,119.165 305.077,119.434 304.922 C 119.880 304.666,120.108 305.128,119.958 305.986 C 119.928 306.163,120.063 306.209,120.259 306.088 C 120.773 305.770,121.605 306.911,121.262 307.465 C 121.091 307.743,121.138 307.831,121.380 307.682 C 121.860 307.385,122.670 308.261,122.838 309.258 C 122.902 309.645,123.122 309.927,123.326 309.885 C 123.726 309.803,128.816 314.783,128.994 315.430 C 129.053 315.645,129.248 315.771,129.428 315.712 C 129.845 315.572,132.421 317.818,132.198 318.127 C 132.106 318.255,132.142 318.278,132.278 318.178 C 132.737 317.840,134.010 318.782,133.737 319.258 C 133.589 319.516,133.607 319.602,133.776 319.449 C 134.177 319.087,136.416 320.244,136.150 320.676 C 136.038 320.857,136.252 320.981,136.625 320.952 C 137.001 320.922,137.257 321.130,137.197 321.416 C 137.138 321.700,137.270 321.822,137.490 321.686 C 137.984 321.381,140.266 322.680,139.998 323.114 C 139.891 323.287,140.105 323.313,140.473 323.171 C 140.925 322.998,141.053 323.062,140.864 323.367 C 140.676 323.672,140.803 323.735,141.255 323.562 C 141.746 323.374,141.839 323.443,141.605 323.822 C 141.402 324.151,141.437 324.246,141.701 324.083 C 142.291 323.718,143.406 324.218,143.101 324.711 C 142.947 324.960,143.038 325.004,143.333 324.821 C 143.888 324.478,146.950 325.735,146.669 326.190 C 146.567 326.355,146.863 326.390,147.326 326.269 C 147.954 326.105,148.088 326.180,147.852 326.561 C 147.642 326.902,147.688 326.980,147.990 326.793 C 148.560 326.441,150.082 326.894,149.810 327.335 C 149.699 327.515,149.988 327.562,150.451 327.441 C 150.991 327.300,151.202 327.370,151.037 327.636 C 150.872 327.903,151.083 327.973,151.623 327.832 C 152.163 327.690,152.374 327.761,152.209 328.027 C 152.044 328.293,152.255 328.364,152.795 328.222 C 153.423 328.058,153.557 328.133,153.321 328.514 C 153.113 328.851,153.157 328.933,153.449 328.752 C 153.693 328.601,156.050 329.013,158.685 329.667 C 179.141 334.748,212.496 335.501,232.422 331.334 C 235.107 330.772,237.861 330.304,238.542 330.293 C 239.222 330.282,239.702 330.197,239.608 330.103 C 239.325 329.820,249.765 326.559,250.313 326.759 C 250.593 326.861,250.725 326.788,250.607 326.596 C 250.336 326.157,252.682 325.312,253.230 325.651 C 253.454 325.789,253.532 325.732,253.404 325.525 C 253.104 325.041,258.892 322.162,259.459 322.513 C 259.735 322.683,259.773 322.594,259.567 322.260 C 259.332 321.881,259.426 321.811,259.917 321.999 C 260.296 322.145,260.489 322.097,260.361 321.890 C 260.075 321.428,261.598 320.583,262.127 320.909 C 262.343 321.043,262.471 320.919,262.412 320.635 C 262.353 320.350,262.605 320.140,262.973 320.169 C 263.341 320.197,263.604 320.022,263.559 319.778 C 263.514 319.535,263.782 319.360,264.156 319.389 C 264.530 319.419,264.744 319.296,264.633 319.116 C 264.367 318.685,265.823 317.915,266.222 318.275 C 266.392 318.429,266.411 318.344,266.263 318.086 C 265.955 317.550,267.310 316.675,267.785 317.104 C 267.955 317.257,267.973 317.172,267.825 316.914 C 267.566 316.462,269.006 315.366,269.629 315.542 C 269.790 315.588,269.878 315.482,269.824 315.307 C 269.686 314.859,276.178 308.375,276.635 308.506 C 276.842 308.565,276.916 308.459,276.800 308.271 C 276.555 307.875,278.423 305.236,278.868 305.349 C 279.032 305.391,279.171 305.215,279.175 304.959 C 279.192 304.082,280.935 301.563,281.349 301.819 C 281.582 301.963,281.647 301.889,281.498 301.647 C 281.175 301.126,283.219 296.839,283.660 297.112 C 283.834 297.219,283.860 297.005,283.718 296.636 C 283.554 296.208,283.613 296.060,283.882 296.226 C 284.154 296.394,284.224 296.188,284.082 295.643 C 283.911 294.992,283.986 294.875,284.411 295.131 C 284.880 295.413,284.882 295.365,284.425 294.802 C 284.130 294.438,283.497 294.141,283.018 294.141 C 281.733 294.141,279.655 293.337,279.904 292.935 C 280.022 292.744,279.871 292.682,279.567 292.799 C 278.875 293.064,276.720 291.282,275.963 289.817 C 274.679 287.334,275.271 246.663,276.579 247.471 C 276.784 247.598,276.832 247.404,276.687 247.027 C 276.514 246.575,276.577 246.447,276.882 246.636 C 277.176 246.817,277.255 246.707,277.107 246.321 C 276.494 244.724,282.481 240.348,286.627 239.363 L 288.616 238.891 288.937 235.559 C 289.994 224.584,288.821 143.397,287.454 132.895 C 287.222 131.115,287.143 129.181,287.278 128.599 C 287.424 127.968,287.390 127.739,287.192 128.033 C 286.854 128.537,285.842 123.675,285.776 121.229 C 285.757 120.551,285.635 120.063,285.504 120.144 C 285.373 120.224,284.953 119.109,284.570 117.665 C 284.187 116.221,283.741 114.863,283.580 114.648 C 283.419 114.434,283.201 113.906,283.095 113.477 C 282.929 112.802,282.897 112.792,282.858 113.405 M185.203 133.496 C 185.336 134.341,185.107 134.784,184.668 134.531 C 184.399 134.376,184.305 134.389,184.459 134.559 C 184.833 134.973,184.204 136.083,182.569 137.892 C 181.631 138.931,181.361 139.476,181.685 139.676 C 182.000 139.871,182.049 139.798,181.835 139.452 C 181.599 139.070,181.733 138.996,182.361 139.160 C 182.825 139.281,183.106 139.221,182.985 139.026 C 182.865 138.831,182.962 138.672,183.200 138.672 C 183.439 138.672,183.818 138.145,184.043 137.500 C 184.267 136.856,184.608 136.426,184.799 136.544 C 184.991 136.663,185.032 136.458,184.890 136.089 C 184.717 135.637,184.780 135.510,185.085 135.698 C 185.390 135.887,185.454 135.759,185.281 135.308 C 185.107 134.856,185.171 134.729,185.476 134.917 C 185.781 135.106,185.845 134.978,185.671 134.527 C 185.477 134.020,185.549 133.938,185.969 134.191 C 186.442 134.476,186.445 134.428,185.987 133.864 C 185.413 133.157,185.128 133.023,185.203 133.496 M289.188 158.594 C 289.188 159.990,289.258 160.562,289.345 159.863 C 289.432 159.165,289.432 158.022,289.345 157.324 C 289.258 156.626,289.188 157.197,289.188 158.594 M110.668 192.773 C 110.670 194.063,110.743 194.543,110.830 193.841 C 110.917 193.139,110.915 192.084,110.826 191.497 C 110.737 190.910,110.666 191.484,110.668 192.773 M289.544 197.266 C 289.544 198.018,289.624 198.325,289.722 197.949 C 289.821 197.573,289.821 196.958,289.722 196.582 C 289.624 196.206,289.544 196.514,289.544 197.266 M209.884 199.048 C 210.246 199.187,210.446 199.456,210.329 199.646 C 210.212 199.836,210.389 199.886,210.724 199.758 C 211.738 199.369,212.605 202.060,212.433 205.062 C 212.276 207.794,210.043 213.108,209.255 212.621 C 209.028 212.481,208.986 212.577,209.154 212.849 C 209.322 213.120,208.866 214.178,208.076 215.351 C 206.929 217.056,205.469 220.380,206.543 218.844 C 206.974 218.226,208.395 223.982,207.978 224.658 C 207.809 224.932,207.859 225.018,208.100 224.868 C 208.585 224.568,209.154 227.144,208.748 227.801 C 208.568 228.092,208.649 228.137,208.981 227.932 C 209.363 227.696,209.440 227.871,209.293 228.641 C 209.185 229.204,209.230 229.582,209.393 229.481 C 209.796 229.232,210.684 233.064,210.396 233.814 C 210.269 234.145,210.322 234.319,210.513 234.201 C 210.953 233.929,211.877 237.695,211.568 238.501 C 211.441 238.832,211.502 239.001,211.703 238.877 C 212.168 238.590,212.678 241.193,212.283 241.832 C 212.100 242.128,212.152 242.208,212.420 242.042 C 212.941 241.720,213.501 244.251,213.064 244.957 C 212.888 245.242,212.933 245.333,213.176 245.182 C 213.687 244.866,217.000 257.949,216.581 258.627 C 216.397 258.925,216.448 259.005,216.717 258.839 C 217.155 258.568,217.765 260.777,217.666 262.276 C 217.605 263.205,212.119 268.802,211.590 268.475 C 211.379 268.345,211.323 268.426,211.464 268.654 C 211.812 269.216,202.067 278.242,201.495 277.888 C 201.238 277.729,201.158 277.787,201.305 278.024 C 201.444 278.249,201.281 278.540,200.942 278.670 C 200.031 279.020,199.142 278.957,199.387 278.560 C 199.505 278.369,199.295 278.237,198.922 278.267 C 198.546 278.296,198.290 278.089,198.350 277.803 C 198.410 277.511,198.269 277.402,198.025 277.552 C 197.775 277.707,194.853 275.052,191.082 271.244 C 187.501 267.628,185.889 265.895,187.500 267.393 L 190.430 270.117 187.725 267.304 C 186.237 265.757,184.885 264.574,184.721 264.676 C 184.085 265.069,182.422 262.704,182.422 261.407 C 182.422 260.526,182.567 260.200,182.873 260.389 C 183.157 260.565,183.218 260.496,183.036 260.202 C 182.610 259.513,183.188 256.585,183.689 256.895 C 183.942 257.051,183.990 256.966,183.811 256.676 C 183.442 256.079,183.911 253.424,184.338 253.688 C 184.511 253.795,184.565 253.422,184.457 252.860 C 184.338 252.234,184.413 251.931,184.653 252.079 C 184.892 252.226,184.968 251.923,184.848 251.297 C 184.728 250.671,184.804 250.368,185.043 250.516 C 185.282 250.664,185.358 250.361,185.238 249.735 C 185.119 249.109,185.195 248.806,185.434 248.954 C 185.673 249.101,185.749 248.798,185.629 248.172 C 185.509 247.546,185.585 247.243,185.824 247.391 C 186.064 247.539,186.139 247.236,186.020 246.610 C 185.873 245.840,185.950 245.665,186.332 245.901 C 186.669 246.109,186.745 246.061,186.557 245.758 C 186.221 245.214,187.105 240.967,187.503 241.213 C 187.654 241.306,187.690 240.922,187.582 240.360 C 187.435 239.590,187.512 239.415,187.894 239.651 C 188.239 239.864,188.307 239.811,188.108 239.488 C 187.671 238.782,188.231 236.251,188.752 236.573 C 189.020 236.739,189.072 236.660,188.889 236.363 C 188.452 235.657,189.012 233.126,189.533 233.448 C 189.808 233.617,189.853 233.534,189.657 233.218 C 189.306 232.649,190.210 228.454,190.628 228.713 C 190.779 228.806,190.815 228.422,190.707 227.860 C 190.560 227.090,190.637 226.915,191.019 227.151 C 191.351 227.356,191.432 227.311,191.252 227.020 C 190.846 226.362,191.415 223.787,191.900 224.087 C 192.141 224.236,192.191 224.150,192.022 223.876 C 191.645 223.266,193.000 217.551,193.455 217.832 C 193.648 217.952,193.178 217.226,192.409 216.218 C 191.640 215.211,191.127 214.199,191.269 213.969 C 191.411 213.739,191.356 213.657,191.148 213.786 C 190.642 214.098,189.332 211.841,189.686 211.267 C 189.852 210.999,189.793 210.923,189.542 211.078 C 189.030 211.395,188.508 209.957,188.902 209.318 C 189.089 209.016,189.012 208.970,188.671 209.180 C 188.289 209.416,188.214 209.282,188.379 208.654 C 188.500 208.191,188.460 207.898,188.289 208.003 C 188.119 208.108,187.874 207.801,187.745 207.320 C 187.375 205.941,187.461 201.883,187.854 202.126 C 188.049 202.246,188.127 202.033,188.027 201.652 C 187.642 200.179,189.602 199.072,193.084 198.796 C 196.834 198.499,208.926 198.681,209.884 199.048 M110.638 216.016 C 110.638 216.768,110.718 217.075,110.816 216.699 C 110.914 216.323,110.914 215.708,110.816 215.332 C 110.718 214.956,110.638 215.264,110.638 216.016 M289.934 225.000 C 289.934 225.752,290.015 226.060,290.113 225.684 C 290.211 225.308,290.211 224.692,290.113 224.316 C 290.015 223.940,289.934 224.248,289.934 225.000 M215.405 264.551 L 214.258 265.820 215.527 264.673 C 216.226 264.042,216.797 263.471,216.797 263.403 C 216.797 263.102,216.475 263.367,215.405 264.551 M204.785 334.644 C 205.161 334.743,205.776 334.743,206.152 334.644 C 206.528 334.546,206.221 334.466,205.469 334.466 C 204.717 334.466,204.409 334.546,204.785 334.644 " stroke="none" fill="#5cd1e3" fill-rule="evenodd"></path><path id="path3" d="M104.799 214.258 C 104.802 215.332,104.878 215.725,104.968 215.131 C 105.058 214.538,105.055 213.659,104.962 213.178 C 104.870 212.698,104.796 213.184,104.799 214.258 M296.192 215.820 C 296.197 216.680,296.277 216.985,296.370 216.499 C 296.463 216.013,296.460 215.310,296.362 214.937 C 296.264 214.563,296.188 214.961,296.192 215.820 M287.695 247.131 C 287.695 247.594,287.809 247.902,287.947 247.817 C 288.296 247.601,288.725 248.817,288.455 249.254 C 288.334 249.449,288.440 249.609,288.691 249.609 C 288.942 249.609,289.042 249.881,288.913 250.216 C 288.761 250.612,288.838 250.725,289.133 250.542 C 289.436 250.355,289.503 250.478,289.336 250.912 C 289.199 251.270,289.276 251.563,289.507 251.563 C 289.738 251.563,289.826 251.826,289.702 252.148 C 289.579 252.471,289.667 252.734,289.898 252.734 C 290.129 252.734,290.213 253.007,290.085 253.341 C 289.936 253.731,290.011 253.849,290.296 253.673 C 290.607 253.481,290.659 253.717,290.471 254.467 C 290.281 255.222,290.334 255.453,290.651 255.257 C 290.961 255.066,291.018 255.237,290.836 255.810 C 290.668 256.338,290.741 256.641,291.035 256.641 C 291.305 256.641,291.412 256.965,291.293 257.422 C 291.181 257.852,291.267 258.203,291.485 258.203 C 291.702 258.203,291.778 258.471,291.652 258.798 C 291.375 259.519,292.618 260.859,293.341 260.618 C 293.647 260.516,293.748 260.624,293.589 260.882 C 293.422 261.152,293.532 261.238,293.875 261.106 C 294.180 260.989,294.674 261.137,294.973 261.435 C 295.271 261.733,295.757 261.896,296.054 261.797 C 296.378 261.689,296.485 261.792,296.323 262.054 C 296.151 262.332,296.273 262.407,296.659 262.258 C 296.993 262.130,297.266 262.215,297.266 262.446 C 297.266 262.677,297.558 262.754,297.916 262.617 C 298.378 262.439,298.477 262.511,298.257 262.866 C 298.029 263.236,298.164 263.297,298.779 263.101 C 299.263 262.948,299.609 263.008,299.609 263.245 C 299.609 263.494,300.090 263.556,300.842 263.406 C 301.723 263.230,301.995 263.288,301.795 263.611 C 301.602 263.925,302.007 264.063,303.125 264.063 C 304.098 264.063,304.638 263.908,304.492 263.672 C 304.359 263.457,304.535 263.281,304.883 263.281 C 305.230 263.281,305.413 263.116,305.288 262.914 C 305.010 262.464,307.377 259.692,307.811 259.960 C 307.982 260.065,308.229 259.871,308.361 259.528 C 308.497 259.172,308.851 258.999,309.183 259.127 C 309.503 259.250,309.766 259.215,309.766 259.049 C 309.766 258.883,310.732 258.757,311.914 258.768 C 313.095 258.780,314.062 258.883,314.062 258.999 C 314.062 259.114,314.447 259.238,314.916 259.273 C 315.386 259.308,316.396 259.984,317.162 260.775 C 317.928 261.566,318.291 262.087,317.969 261.932 C 317.646 261.777,317.804 261.994,318.318 262.413 C 318.837 262.835,319.131 263.372,318.978 263.618 C 318.793 263.919,319.161 264.063,320.117 264.063 C 321.088 264.063,321.443 263.921,321.251 263.610 C 321.060 263.301,321.237 263.228,321.814 263.378 C 322.277 263.500,322.656 263.421,322.656 263.203 C 322.656 262.985,322.920 262.908,323.242 263.032 C 323.564 263.156,323.828 263.068,323.828 262.837 C 323.828 262.605,324.101 262.521,324.434 262.649 C 324.830 262.801,324.944 262.725,324.761 262.429 C 324.572 262.124,324.700 262.060,325.152 262.234 C 325.520 262.375,325.726 262.336,325.608 262.146 C 325.491 261.956,325.667 261.696,325.999 261.569 C 326.397 261.416,326.518 261.502,326.354 261.821 C 326.216 262.087,326.486 261.865,326.953 261.328 C 327.420 260.791,327.677 260.615,327.524 260.938 C 327.371 261.260,327.809 260.863,328.498 260.055 C 329.187 259.247,329.939 258.703,330.170 258.846 C 330.420 259.000,330.476 258.921,330.309 258.651 C 330.152 258.398,330.297 258.095,330.637 257.964 C 330.972 257.836,331.148 257.573,331.029 257.381 C 330.911 257.189,330.955 257.031,331.129 257.032 C 331.544 257.032,331.541 249.485,331.126 249.180 C 330.951 249.051,330.758 248.611,330.699 248.203 C 330.639 247.795,330.387 247.439,330.139 247.412 C 329.890 247.385,329.501 247.341,329.274 247.314 C 329.046 247.288,328.959 247.106,329.079 246.911 C 329.199 246.717,328.919 246.656,328.455 246.778 C 327.992 246.899,327.711 246.839,327.831 246.644 C 327.961 246.433,319.854 246.289,307.873 246.289 L 287.695 246.289 287.695 247.131 M282.891 249.688 C 282.108 250.470,282.224 287.551,283.008 287.251 C 283.330 287.127,283.594 287.220,283.594 287.458 C 283.594 287.696,284.209 287.891,284.961 287.891 C 286.225 287.891,286.328 287.801,286.328 286.696 C 286.328 286.038,286.460 285.582,286.621 285.682 C 286.782 285.782,286.914 280.624,286.914 274.220 C 286.914 267.362,286.769 262.665,286.560 262.794 C 286.358 262.919,286.306 262.396,286.439 261.575 C 286.599 260.591,286.539 260.221,286.248 260.401 C 285.960 260.579,285.910 260.321,286.091 259.596 C 286.286 258.822,286.232 258.607,285.896 258.815 C 285.560 259.022,285.507 258.807,285.701 258.033 C 285.895 257.260,285.841 257.045,285.506 257.252 C 285.170 257.460,285.116 257.244,285.310 256.471 C 285.506 255.692,285.452 255.481,285.110 255.692 C 284.782 255.895,284.708 255.731,284.863 255.139 C 284.984 254.676,284.903 254.297,284.683 254.297 C 284.464 254.297,284.376 253.945,284.488 253.515 C 284.617 253.023,284.539 252.828,284.277 252.990 C 284.011 253.155,283.940 252.945,284.082 252.405 C 284.203 251.942,284.124 251.563,283.906 251.563 C 283.688 251.563,283.611 251.299,283.735 250.977 C 283.859 250.654,283.771 250.391,283.540 250.391 C 283.309 250.391,283.221 250.127,283.344 249.805 C 283.616 249.096,283.509 249.069,282.891 249.688 M330.664 265.234 C 330.531 265.449,330.565 265.631,330.739 265.639 C 330.912 265.646,330.617 265.895,330.083 266.191 C 329.549 266.486,328.977 266.645,328.813 266.544 C 328.650 266.443,328.516 266.557,328.516 266.797 C 328.516 267.037,328.340 267.125,328.125 266.992 C 327.910 266.859,327.734 266.956,327.734 267.206 C 327.734 267.457,327.462 267.557,327.128 267.429 C 326.735 267.278,326.619 267.354,326.799 267.644 C 326.987 267.949,326.806 268.021,326.232 267.871 C 325.716 267.736,325.484 267.804,325.634 268.047 C 325.793 268.304,325.433 268.345,324.609 268.164 C 323.722 267.969,323.420 268.015,323.607 268.318 C 323.834 268.684,320.072 269.038,318.623 268.787 C 318.446 268.756,318.420 268.923,318.566 269.159 C 318.973 269.817,315.383 273.080,314.589 272.775 C 314.213 272.630,314.033 272.683,314.167 272.900 C 314.765 273.868,308.940 273.240,308.135 272.249 C 307.705 271.721,307.486 271.553,307.646 271.875 C 307.807 272.197,307.471 272.035,306.899 271.514 C 305.806 270.518,305.505 269.979,306.366 270.558 C 306.645 270.745,306.447 270.522,305.926 270.063 C 305.405 269.603,305.073 269.076,305.188 268.891 C 305.303 268.706,304.250 268.615,302.849 268.688 C 300.944 268.787,300.374 268.703,300.590 268.353 C 300.803 268.009,300.557 267.956,299.658 268.153 C 298.869 268.327,298.438 268.270,298.438 267.992 C 298.438 267.723,298.052 267.660,297.403 267.823 C 296.722 267.994,296.455 267.942,296.622 267.672 C 296.783 267.411,296.568 267.341,296.033 267.481 C 295.460 267.631,295.279 267.558,295.467 267.254 C 295.646 266.963,295.530 266.888,295.137 267.038 C 294.804 267.166,294.531 267.082,294.531 266.851 C 294.531 266.620,294.239 266.543,293.881 266.680 C 293.447 266.847,293.324 266.779,293.511 266.477 C 293.694 266.181,293.580 266.105,293.184 266.257 C 292.690 266.447,292.577 267.254,292.572 270.647 C 292.568 273.465,292.445 274.616,292.189 274.219 C 291.943 273.836,291.888 275.593,292.032 279.297 C 292.200 283.647,292.146 284.825,291.796 284.375 C 291.437 283.912,291.388 284.116,291.565 285.352 C 291.688 286.211,291.790 287.134,291.793 287.402 C 291.798 288.049,325.201 288.122,325.600 287.477 C 325.750 287.234,326.344 287.171,327.039 287.324 C 327.859 287.504,328.141 287.450,327.956 287.151 C 327.721 286.771,328.521 286.540,329.117 286.816 C 329.233 286.870,329.690 286.343,330.132 285.645 C 330.574 284.946,331.105 284.375,331.311 284.375 C 331.518 284.375,331.594 284.225,331.480 284.041 C 331.367 283.858,331.257 279.463,331.236 274.276 C 331.215 269.088,331.133 264.844,331.052 264.844 C 330.971 264.844,330.797 265.020,330.664 265.234 " stroke="none" fill="#8b673d" fill-rule="evenodd"></path><path id="path4" d="M192.383 62.941 C 167.127 63.737,144.409 72.299,133.984 84.950 C 131.109 88.440,130.895 88.844,132.079 88.556 C 134.803 87.894,146.692 87.421,155.965 87.606 C 177.270 88.029,186.622 90.832,190.040 97.818 L 191.040 99.863 193.469 99.347 C 196.408 98.724,202.927 98.648,205.815 99.204 C 208.532 99.727,208.984 99.715,208.984 99.115 C 208.984 90.205,231.867 85.409,261.719 88.063 C 265.049 88.359,267.819 88.557,267.874 88.504 C 268.174 88.212,262.638 82.303,260.324 80.443 C 244.567 67.786,222.125 62.005,192.383 62.941 M211.133 63.690 C 228.717 65.194,244.308 69.979,255.244 77.229 C 259.050 79.752,267.178 87.250,266.664 87.764 C 266.533 87.894,263.917 87.768,260.850 87.485 C 248.171 86.314,229.363 87.084,221.369 89.101 C 215.131 90.675,210.636 93.757,209.107 97.508 C 208.538 98.904,208.245 99.209,207.617 99.057 C 203.042 97.945,197.930 97.955,192.179 99.087 C 191.330 99.254,191.096 99.061,190.492 97.692 C 186.565 88.791,163.623 84.693,134.817 87.748 C 131.812 88.066,131.837 87.930,135.534 83.897 C 149.161 69.028,179.313 60.969,211.133 63.690 M117.960 74.611 C 106.009 76.093,99.237 88.077,104.422 98.568 C 106.477 102.726,112.611 107.536,113.328 105.552 C 113.461 105.184,114.140 103.415,114.838 101.620 L 116.106 98.358 114.718 97.010 C 112.021 94.390,111.248 89.359,113.238 87.370 C 114.935 85.673,119.185 86.157,123.926 88.587 C 124.087 88.669,124.219 88.450,124.219 88.100 C 124.219 87.244,126.561 83.607,129.203 80.360 C 130.388 78.903,131.289 77.650,131.206 77.575 C 128.964 75.546,122.349 74.066,117.960 74.611 M277.475 74.624 C 276.111 74.806,273.825 75.537,272.202 76.309 C 267.916 78.348,268.014 78.207,269.685 79.943 C 271.323 81.645,275.391 87.551,275.391 88.227 C 275.391 88.889,275.892 88.781,278.191 87.623 C 286.499 83.442,291.721 90.785,285.017 97.224 L 283.637 98.549 284.538 100.349 C 285.033 101.339,285.737 103.058,286.101 104.170 L 286.762 106.192 288.205 105.592 C 297.573 101.700,300.452 88.970,293.850 80.637 C 290.235 76.075,283.936 73.762,277.475 74.624 M125.426 75.528 C 126.373 75.818,127.994 76.457,129.028 76.949 L 130.907 77.843 129.780 79.058 C 128.097 80.871,126.423 83.134,124.936 85.605 L 123.608 87.812 121.472 86.890 C 115.962 84.513,111.710 86.254,111.727 90.879 C 111.738 93.640,112.686 95.914,114.444 97.394 L 115.719 98.466 114.695 100.747 C 114.132 102.001,113.562 103.577,113.428 104.248 C 112.821 107.281,106.219 102.314,104.222 97.323 C 99.135 84.610,111.979 71.408,125.426 75.528 M287.743 76.511 C 296.028 80.361,299.210 89.531,295.247 98.131 C 293.306 102.341,286.749 107.451,286.708 104.785 C 286.702 104.409,286.181 102.891,285.550 101.411 L 284.403 98.721 285.932 96.984 C 292.051 90.033,286.646 83.080,278.275 87.134 C 277.011 87.746,275.921 88.088,275.853 87.894 C 275.539 86.995,272.384 82.405,270.791 80.530 C 268.880 78.281,268.865 78.388,271.289 77.067 C 275.936 74.535,282.978 74.297,287.743 76.511 M193.496 107.883 L 191.483 108.250 191.213 111.449 C 189.060 136.926,178.053 147.430,153.516 147.422 C 129.084 147.414,117.402 136.758,117.158 114.258 L 117.128 111.523 115.777 115.430 C 111.192 128.689,110.753 134.576,110.715 183.203 C 110.694 210.373,110.534 225.945,110.246 228.906 C 107.680 255.331,107.708 269.046,110.357 282.250 C 116.777 314.243,140.228 330.728,183.943 333.973 C 235.030 337.766,271.814 324.369,283.443 297.735 C 285.109 293.919,285.106 293.890,283.026 293.655 C 280.772 293.401,277.795 291.897,276.778 290.499 C 275.660 288.961,275.317 252.188,276.387 248.508 C 277.573 244.426,282.678 240.410,287.748 239.569 L 288.974 239.365 289.444 234.429 C 290.093 227.621,290.117 215.980,289.560 178.711 C 289.007 141.665,288.897 139.258,287.257 128.125 C 286.491 122.922,283.618 111.719,283.051 111.719 C 283.027 111.719,282.966 113.074,282.914 114.730 C 282.269 135.551,272.423 145.588,250.931 147.335 C 223.952 149.529,210.169 138.206,208.352 112.356 L 208.090 108.631 205.433 108.026 C 202.529 107.366,196.706 107.296,193.496 107.883 M204.297 108.216 C 205.264 108.427,206.450 108.690,206.934 108.800 C 207.717 108.978,207.813 109.238,207.813 111.191 C 207.813 119.803,211.487 131.461,215.927 136.938 L 217.847 139.306 216.203 138.765 C 214.776 138.295,214.495 138.010,214.073 136.601 C 210.993 126.319,195.899 123.204,187.902 131.202 L 185.953 133.151 187.071 130.931 C 189.343 126.421,190.902 119.811,191.620 111.644 L 191.884 108.639 193.891 108.272 C 196.609 107.775,202.144 107.745,204.297 108.216 M117.401 121.059 C 119.000 132.219,123.846 139.849,131.836 143.785 C 142.441 149.009,161.446 149.442,172.795 144.718 C 173.291 144.511,173.056 145.021,172.052 146.329 C 167.116 152.762,167.989 160.896,174.101 165.411 C 176.398 167.109,182.422 168.953,182.422 167.959 C 182.422 167.750,181.813 167.578,181.069 167.578 C 178.834 167.578,175.391 166.047,173.364 164.152 C 165.376 156.679,169.549 144.659,181.869 139.651 C 183.938 138.810,184.124 138.622,184.991 136.489 C 186.210 133.489,185.942 133.341,184.622 136.284 C 183.794 138.128,183.327 138.688,182.330 139.036 L 181.078 139.472 182.282 138.193 C 182.945 137.490,183.952 136.211,184.521 135.352 C 185.091 134.492,185.686 133.777,185.845 133.762 C 186.003 133.746,187.200 132.672,188.504 131.374 C 196.046 123.869,210.451 126.761,213.486 136.391 C 214.129 138.429,214.290 138.615,215.780 139.045 C 221.042 140.565,228.126 146.511,229.717 150.744 C 232.457 158.037,227.573 166.118,219.664 167.376 L 218.039 167.635 218.015 170.243 C 217.926 179.729,208.728 187.975,201.758 184.819 C 200.236 184.130,200.157 184.131,198.706 184.881 C 192.658 188.008,182.555 179.733,182.394 171.521 C 182.379 170.749,182.202 169.766,182.001 169.336 C 181.752 168.803,181.709 169.283,181.867 170.842 C 182.870 180.780,191.592 188.201,198.854 185.295 C 200.343 184.700,200.556 184.700,201.805 185.295 C 208.509 188.492,218.069 180.172,218.448 170.811 L 218.555 168.164 221.006 167.479 C 230.739 164.760,234.020 154.173,227.570 146.302 L 226.255 144.697 229.018 145.624 C 240.446 149.456,258.279 148.556,268.359 143.637 C 276.434 139.697,281.109 131.944,282.974 119.402 C 283.288 117.291,283.442 115.269,283.317 114.910 C 283.166 114.480,283.219 114.391,283.472 114.648 C 285.073 116.278,287.508 130.302,288.254 142.188 C 289.028 154.531,289.573 228.955,288.937 235.559 L 288.616 238.891 286.627 239.363 C 282.268 240.399,278.719 242.976,276.745 246.541 L 275.586 248.633 275.472 268.359 C 275.410 279.209,275.454 288.468,275.570 288.935 C 276.123 291.159,280.298 294.127,282.887 294.137 C 284.546 294.143,284.499 294.603,282.413 298.771 C 270.619 322.330,243.963 333.762,200.781 333.782 C 129.237 333.814,103.555 307.874,109.519 241.602 C 109.867 237.734,110.367 232.373,110.631 229.688 C 110.974 226.193,111.114 213.307,111.123 184.375 C 111.136 142.954,111.224 140.013,112.737 130.469 C 114.071 122.053,116.475 113.048,116.700 115.625 C 116.765 116.377,117.081 118.822,117.401 121.059 M193.061 198.798 C 186.193 199.340,185.403 205.833,191.163 214.392 L 193.176 217.383 187.997 238.086 C 185.148 249.473,182.713 259.668,182.584 260.742 L 182.351 262.695 189.542 269.840 C 200.604 280.830,199.356 280.553,206.733 273.666 C 218.051 263.099,218.328 262.719,217.231 259.264 C 217.011 258.573,214.530 248.882,211.716 237.728 L 206.600 217.449 207.954 215.463 C 212.924 208.173,214.029 201.215,210.506 199.393 C 209.197 198.716,198.646 198.356,193.061 198.798 M209.954 199.607 C 213.520 200.962,212.489 208.132,207.759 214.874 L 206.121 217.211 207.161 221.398 C 207.733 223.702,210.223 233.584,212.693 243.359 C 215.164 253.135,217.185 261.541,217.186 262.039 C 217.187 262.860,208.983 271.267,202.913 276.665 C 199.892 279.352,200.299 279.557,191.048 270.697 C 184.171 264.111,182.813 262.630,182.813 261.718 C 182.813 261.117,185.268 250.831,188.269 238.860 L 193.726 217.094 192.439 215.481 C 187.586 209.397,186.307 201.380,189.938 199.802 C 191.470 199.137,208.286 198.972,209.954 199.607 " stroke="none" fill="#9bfbfb" fill-rule="evenodd"></path><path id="path5" d="M195.996 56.150 C 197.983 56.221,201.235 56.221,203.223 56.150 C 205.210 56.080,203.584 56.022,199.609 56.022 C 195.635 56.022,194.009 56.080,195.996 56.150 M187.207 56.519 C 187.583 56.618,188.198 56.618,188.574 56.519 C 188.950 56.421,188.643 56.341,187.891 56.341 C 187.139 56.341,186.831 56.421,187.207 56.519 M119.050 67.861 C 119.752 67.948,120.807 67.946,121.394 67.857 C 121.981 67.768,121.406 67.697,120.117 67.699 C 118.828 67.701,118.348 67.774,119.050 67.861 M280.181 67.858 C 280.775 67.948,281.654 67.946,282.134 67.853 C 282.615 67.760,282.129 67.687,281.055 67.690 C 279.980 67.693,279.587 67.769,280.181 67.858 M298.047 75.195 C 298.776 75.947,299.460 76.563,299.567 76.563 C 299.675 76.563,299.166 75.947,298.438 75.195 C 297.709 74.443,297.024 73.828,296.917 73.828 C 296.810 73.828,297.318 74.443,298.047 75.195 M95.834 91.016 C 95.834 92.627,95.903 93.286,95.988 92.480 C 96.072 91.675,96.072 90.356,95.988 89.551 C 95.903 88.745,95.834 89.404,95.834 91.016 M102.442 91.211 C 102.447 92.070,102.527 92.376,102.620 91.890 C 102.713 91.404,102.710 90.701,102.612 90.327 C 102.514 89.954,102.438 90.352,102.442 91.211 M104.388 140.234 C 104.388 140.986,104.468 141.294,104.566 140.918 C 104.664 140.542,104.664 139.927,104.566 139.551 C 104.468 139.175,104.388 139.482,104.388 140.234 M103.606 141.797 C 103.606 142.549,103.687 142.856,103.785 142.480 C 103.883 142.104,103.883 141.489,103.785 141.113 C 103.687 140.737,103.606 141.045,103.606 141.797 M104.043 148.828 C 104.043 150.654,104.110 151.401,104.192 150.488 C 104.275 149.575,104.275 148.081,104.192 147.168 C 104.110 146.255,104.043 147.002,104.043 148.828 M296.205 148.242 C 296.208 149.316,296.284 149.709,296.374 149.116 C 296.464 148.522,296.461 147.643,296.369 147.163 C 296.276 146.682,296.203 147.168,296.205 148.242 M289.169 154.688 C 289.169 155.654,289.245 156.050,289.338 155.566 C 289.431 155.083,289.431 154.292,289.338 153.809 C 289.245 153.325,289.169 153.721,289.169 154.688 M104.059 173.828 C 104.059 176.729,104.121 177.915,104.196 176.465 C 104.271 175.015,104.271 172.642,104.196 171.191 C 104.121 169.741,104.059 170.928,104.059 173.828 M296.253 184.375 C 296.253 187.920,296.312 189.370,296.384 187.598 C 296.457 185.825,296.457 182.925,296.384 181.152 C 296.312 179.380,296.253 180.830,296.253 184.375 M104.433 191.797 C 104.433 193.623,104.501 194.370,104.583 193.457 C 104.665 192.544,104.665 191.050,104.583 190.137 C 104.501 189.224,104.433 189.971,104.433 191.797 M110.675 197.461 C 110.677 198.965,110.747 199.532,110.832 198.722 C 110.917 197.911,110.915 196.681,110.829 195.987 C 110.743 195.294,110.673 195.957,110.675 197.461 M110.638 213.672 C 110.638 214.424,110.718 214.731,110.816 214.355 C 110.914 213.979,110.914 213.364,110.816 212.988 C 110.718 212.612,110.638 212.920,110.638 213.672 M81.594 217.102 C 81.466 217.878,81.523 218.243,81.740 218.026 C 81.936 217.829,82.032 217.252,81.952 216.744 C 81.829 215.962,81.774 216.017,81.594 217.102 M101.482 258.437 C 101.419 262.219,101.496 265.515,101.654 265.762 C 101.812 266.009,101.944 262.915,101.947 258.887 C 101.950 254.858,101.873 251.563,101.775 251.563 C 101.677 251.563,101.546 254.656,101.482 258.437 M275.922 270.703 C 275.922 272.744,275.988 273.579,276.068 272.559 C 276.149 271.538,276.149 269.868,276.068 268.848 C 275.988 267.827,275.922 268.662,275.922 270.703 M101.922 271.582 C 101.806 272.421,101.866 272.900,102.062 272.703 C 102.251 272.515,102.342 271.856,102.265 271.239 C 102.136 270.206,102.109 270.234,101.922 271.582 M184.673 341.292 C 185.158 341.385,185.862 341.382,186.235 341.284 C 186.608 341.186,186.211 341.110,185.352 341.114 C 184.492 341.118,184.187 341.198,184.673 341.292 M193.272 341.693 C 194.191 341.775,195.597 341.774,196.397 341.690 C 197.197 341.606,196.445 341.539,194.727 341.540 C 193.008 341.542,192.353 341.610,193.272 341.693 M204.797 341.694 C 205.824 341.775,207.406 341.774,208.313 341.692 C 209.219 341.610,208.379 341.544,206.445 341.545 C 204.512 341.546,203.770 341.613,204.797 341.694 " stroke="none" fill="#477f8e" fill-rule="evenodd"></path><path id="path6" d="M104.051 155.859 C 104.051 158.115,104.115 159.038,104.194 157.910 C 104.273 156.782,104.273 154.937,104.194 153.809 C 104.115 152.681,104.051 153.604,104.051 155.859 M104.023 162.891 C 104.023 164.072,104.097 164.556,104.186 163.965 C 104.276 163.374,104.276 162.407,104.186 161.816 C 104.097 161.226,104.023 161.709,104.023 162.891 M104.018 166.992 C 104.021 168.066,104.097 168.459,104.187 167.866 C 104.276 167.272,104.274 166.393,104.181 165.913 C 104.089 165.432,104.015 165.918,104.018 166.992 M296.205 176.367 C 296.208 177.441,296.284 177.834,296.374 177.241 C 296.464 176.647,296.461 175.768,296.369 175.288 C 296.276 174.807,296.203 175.293,296.205 176.367 M275.902 265.039 C 275.904 266.328,275.977 266.808,276.064 266.106 C 276.151 265.404,276.149 264.350,276.060 263.763 C 275.971 263.176,275.900 263.750,275.902 265.039 M275.880 275.586 C 275.884 276.445,275.964 276.751,276.058 276.265 C 276.151 275.779,276.147 275.076,276.050 274.702 C 275.952 274.329,275.875 274.727,275.880 275.586 M275.872 278.906 C 275.872 279.658,275.952 279.966,276.051 279.590 C 276.149 279.214,276.149 278.599,276.051 278.223 C 275.952 277.847,275.872 278.154,275.872 278.906 M198.926 341.691 C 199.731 341.775,201.050 341.775,201.855 341.691 C 202.661 341.607,202.002 341.538,200.391 341.538 C 198.779 341.538,198.120 341.607,198.926 341.691 " stroke="none" fill="#23697d" fill-rule="evenodd"></path><path id="path7" d="M123.919 112.500 C 123.919 113.252,123.999 113.560,124.097 113.184 C 124.196 112.808,124.196 112.192,124.097 111.816 C 123.999 111.440,123.919 111.748,123.919 112.500 M107.223 116.803 C 107.088 117.022,106.814 117.099,106.614 116.976 C 106.056 116.631,106.182 117.035,106.788 117.539 C 107.211 117.889,107.371 117.816,107.533 117.196 C 107.756 116.343,107.616 116.166,107.223 116.803 M211.002 143.486 C 210.533 143.985,210.259 144.504,210.393 144.638 C 210.846 145.091,207.022 147.181,204.487 147.868 C 199.578 149.196,189.686 147.212,190.146 144.990 C 190.206 144.703,190.065 144.590,189.829 144.736 C 189.595 144.880,189.067 144.693,188.654 144.320 C 187.584 143.352,184.909 143.805,181.729 145.493 C 180.326 146.238,178.985 146.738,178.749 146.603 C 178.513 146.469,178.449 146.501,178.606 146.675 C 178.764 146.849,178.263 147.688,177.493 148.540 C 171.427 155.255,175.458 163.137,184.564 162.367 C 188.055 162.072,193.747 160.238,197.688 158.138 C 201.057 156.343,200.314 156.266,205.078 158.910 C 217.053 165.556,228.588 161.256,224.272 151.756 C 222.460 147.767,212.855 141.986,211.549 144.099 C 211.402 144.337,211.086 144.531,210.846 144.531 C 210.607 144.531,210.824 144.092,211.328 143.555 C 211.833 143.018,212.158 142.578,212.050 142.578 C 211.943 142.578,211.471 142.987,211.002 143.486 M198.926 147.936 C 199.517 148.026,200.483 148.026,201.074 147.936 C 201.665 147.847,201.182 147.773,200.000 147.773 C 198.818 147.773,198.335 147.847,198.926 147.936 M182.520 163.160 C 182.896 163.258,183.511 163.258,183.887 163.160 C 184.263 163.062,183.955 162.981,183.203 162.981 C 182.451 162.981,182.144 163.062,182.520 163.160 M104.832 208.594 C 104.832 210.850,104.897 211.772,104.975 210.645 C 105.054 209.517,105.054 207.671,104.975 206.543 C 104.897 205.415,104.832 206.338,104.832 208.594 M100.118 206.811 C 98.141 207.756,95.723 209.080,94.743 209.754 C 93.764 210.428,92.761 210.855,92.514 210.703 C 92.259 210.545,92.173 210.598,92.313 210.825 C 92.557 211.219,91.168 212.756,90.682 212.630 C 90.543 212.594,90.342 212.667,90.234 212.790 C 90.127 212.914,90.259 212.889,90.527 212.735 C 91.207 212.344,91.140 212.668,90.236 214.151 C 89.398 215.524,89.134 219.288,89.844 219.727 C 90.059 219.859,90.234 220.144,90.234 220.359 C 90.234 220.573,90.015 220.617,89.746 220.456 C 89.414 220.257,89.430 220.374,89.794 220.823 C 90.404 221.576,90.814 221.716,90.389 221.027 C 90.188 220.702,90.322 220.665,90.854 220.898 C 93.659 222.129,96.648 221.435,100.238 218.718 C 101.621 217.671,103.099 216.629,103.524 216.402 C 104.317 215.977,104.780 205.065,104.004 205.086 C 103.843 205.090,102.094 205.867,100.118 206.811 M296.795 212.373 C 296.886 217.777,297.037 219.454,297.480 219.943 C 297.793 220.288,297.916 220.717,297.755 220.895 C 297.593 221.073,297.667 221.101,297.918 220.957 C 298.500 220.624,300.098 222.618,299.824 223.334 C 299.711 223.628,299.762 223.780,299.937 223.672 C 300.311 223.441,303.371 226.987,303.213 227.467 C 303.154 227.646,303.282 227.683,303.498 227.550 C 303.714 227.417,304.272 227.512,304.738 227.762 C 305.976 228.424,308.499 228.279,309.700 227.476 C 310.273 227.093,310.853 226.812,310.989 226.851 C 311.125 226.890,311.219 226.710,311.199 226.450 C 311.179 226.189,311.484 224.935,311.879 223.661 C 312.785 220.735,312.568 217.052,311.370 215.022 C 310.912 214.246,310.656 213.406,310.800 213.154 C 310.945 212.902,310.915 212.830,310.734 212.994 C 310.302 213.386,308.159 211.324,308.473 210.817 C 308.612 210.591,308.517 210.548,308.246 210.715 C 307.725 211.037,306.542 210.241,306.836 209.765 C 306.939 209.599,306.717 209.487,306.343 209.517 C 305.968 209.546,305.712 209.339,305.771 209.053 C 305.830 208.768,305.709 208.640,305.502 208.768 C 305.086 209.026,299.963 206.626,300.180 206.275 C 300.255 206.154,299.937 206.040,299.474 206.023 C 299.012 206.005,298.193 205.865,297.656 205.712 L 296.680 205.432 296.795 212.373 M312.981 219.531 C 312.981 220.283,313.062 220.591,313.160 220.215 C 313.258 219.839,313.258 219.224,313.160 218.848 C 313.062 218.472,312.981 218.779,312.981 219.531 M312.923 236.093 C 312.609 236.473,312.592 236.730,312.872 236.902 C 313.099 237.043,313.284 236.841,313.287 236.449 C 313.292 235.861,313.354 235.839,313.657 236.317 C 313.856 236.633,314.122 236.790,314.246 236.665 C 314.370 236.541,314.227 236.236,313.928 235.988 C 313.512 235.642,313.277 235.667,312.923 236.093 M309.109 237.754 C 309.248 237.894,309.087 238.211,308.749 238.457 C 308.227 238.839,308.282 238.906,309.118 238.906 C 309.943 238.906,310.040 238.794,309.724 238.203 C 309.517 237.816,309.237 237.500,309.101 237.500 C 308.965 237.500,308.969 237.614,309.109 237.754 M323.656 238.098 C 322.971 238.616,322.964 238.672,323.581 238.672 C 323.998 238.672,324.156 238.848,323.986 239.123 C 323.819 239.393,323.878 239.468,324.134 239.310 C 324.368 239.166,324.533 238.699,324.501 238.274 C 324.469 237.848,324.437 237.506,324.429 237.512 C 324.421 237.519,324.073 237.783,323.656 238.098 M287.635 246.393 C 287.310 246.600,287.399 247.062,287.952 248.047 C 288.374 248.799,288.601 249.063,288.456 248.633 C 287.665 246.289,285.846 246.502,307.670 246.387 L 327.539 246.282 307.813 246.194 C 296.963 246.145,287.883 246.235,287.635 246.393 M328.758 247.046 C 329.429 247.338,330.264 247.985,330.614 248.484 C 330.964 248.984,331.250 249.193,331.250 248.950 C 331.250 248.312,328.965 246.482,328.193 246.500 C 327.833 246.508,328.088 246.754,328.758 247.046 M282.465 249.528 C 282.150 250.117,282.054 255.652,282.129 268.829 L 282.234 287.305 282.328 268.675 C 282.388 256.780,282.563 249.959,282.813 249.805 C 283.027 249.672,283.203 249.779,283.203 250.042 C 283.203 250.305,283.307 250.417,283.434 250.290 C 283.561 250.163,283.495 249.754,283.286 249.381 C 282.937 248.756,282.872 248.768,282.465 249.528 M331.391 253.125 C 331.391 255.166,331.457 256.001,331.537 254.980 C 331.618 253.960,331.618 252.290,331.537 251.270 C 331.457 250.249,331.391 251.084,331.391 253.125 M284.039 252.344 C 284.039 252.666,284.190 253.281,284.375 253.711 C 284.587 254.203,284.711 254.276,284.711 253.906 C 284.711 253.584,284.560 252.969,284.375 252.539 C 284.163 252.047,284.039 251.974,284.039 252.344 M100.391 253.828 C 100.391 254.301,100.610 254.690,100.879 254.693 C 101.210 254.698,101.178 254.833,100.781 255.114 C 100.260 255.482,100.260 255.510,100.781 255.360 C 101.391 255.186,101.372 253.986,100.749 253.340 C 100.528 253.111,100.391 253.298,100.391 253.828 M329.276 259.277 L 327.930 260.742 329.395 259.396 C 330.200 258.656,330.859 257.996,330.859 257.931 C 330.859 257.633,330.529 257.914,329.276 259.277 M315.271 259.473 C 315.363 259.526,316.139 260.186,316.996 260.938 L 318.555 262.305 317.209 260.840 C 316.468 260.034,315.692 259.375,315.483 259.375 C 315.275 259.375,315.179 259.419,315.271 259.473 M306.290 261.146 C 305.624 261.906,305.078 262.644,305.078 262.787 C 305.078 262.930,305.211 262.880,305.374 262.676 C 305.537 262.472,306.185 261.733,306.814 261.035 C 307.444 260.337,307.856 259.766,307.731 259.766 C 307.605 259.766,306.957 260.387,306.290 261.146 M293.750 261.133 C 294.287 261.440,294.902 261.691,295.117 261.691 C 295.332 261.691,295.068 261.440,294.531 261.133 C 293.994 260.826,293.379 260.575,293.164 260.575 C 292.949 260.575,293.213 260.826,293.750 261.133 M325.000 262.109 C 324.248 262.521,323.773 262.865,323.945 262.874 C 324.359 262.896,326.563 261.750,326.563 261.513 C 326.563 261.258,326.540 261.266,325.000 262.109 M286.889 273.438 C 286.889 278.916,286.943 281.157,287.011 278.418 C 287.078 275.679,287.078 271.196,287.011 268.457 C 286.943 265.718,286.889 267.959,286.889 273.438 M330.825 265.169 C 330.484 265.527,329.869 266.043,329.458 266.314 C 329.047 266.586,329.279 266.539,329.973 266.210 L 331.236 265.612 331.348 274.896 L 331.460 284.180 331.550 274.316 C 331.600 268.892,331.597 264.468,331.543 264.486 C 331.489 264.504,331.166 264.811,330.825 265.169 M292.270 270.201 L 292.353 274.805 292.479 270.583 C 292.603 266.430,292.619 266.366,293.470 266.628 C 294.479 266.938,294.314 266.704,293.066 266.055 L 292.188 265.598 292.270 270.201 M295.508 267.397 C 296.152 267.692,296.943 267.928,297.266 267.921 C 297.588 267.915,297.236 267.672,296.484 267.383 C 294.701 266.696,293.999 266.706,295.508 267.397 M325.781 267.773 C 325.029 268.063,324.678 268.305,325.000 268.312 C 325.322 268.319,326.113 268.083,326.758 267.788 C 328.266 267.097,327.565 267.087,325.781 267.773 M302.512 268.650 C 304.085 268.747,305.001 269.006,305.365 269.455 C 305.840 270.040,305.853 270.015,305.477 269.238 C 305.096 268.453,304.792 268.367,302.623 268.433 L 300.195 268.507 302.512 268.650 M318.257 269.631 L 317.570 270.898 318.453 269.846 C 319.196 268.959,319.707 268.770,321.680 268.650 L 324.023 268.507 321.484 268.436 C 318.994 268.366,318.932 268.389,318.257 269.631 M101.035 269.622 C 100.909 270.102,100.933 270.620,101.087 270.773 C 101.241 270.927,101.404 270.534,101.449 269.901 C 101.546 268.535,101.353 268.405,101.035 269.622 M308.766 272.823 C 309.183 273.161,309.886 273.422,310.329 273.404 C 310.974 273.377,310.927 273.308,310.089 273.055 C 309.515 272.882,308.812 272.620,308.527 272.474 C 308.241 272.328,308.349 272.484,308.766 272.823 M291.940 281.055 C 291.941 283.203,292.006 284.032,292.085 282.897 C 292.164 281.762,292.164 280.004,292.083 278.991 C 292.003 277.978,291.939 278.906,291.940 281.055 M286.419 286.719 C 286.419 287.471,286.499 287.778,286.597 287.402 C 286.696 287.026,286.696 286.411,286.597 286.035 C 286.499 285.659,286.419 285.967,286.419 286.719 M272.610 320.996 C 272.585 321.157,272.582 321.414,272.605 321.566 C 272.685 322.106,269.953 323.894,269.488 323.606 C 269.194 323.424,269.122 323.482,269.295 323.763 C 269.642 324.324,263.749 328.238,262.994 327.948 C 262.700 327.836,262.566 327.916,262.697 328.128 C 262.828 328.339,262.485 328.717,261.936 328.967 C 260.519 329.613,260.642 329.861,263.379 331.885 C 264.722 332.877,265.772 333.857,265.713 334.061 C 265.654 334.266,265.767 334.333,265.964 334.211 C 266.162 334.089,267.353 334.470,268.611 335.058 C 270.696 336.032,278.784 336.857,277.936 336.009 C 277.819 335.892,278.209 335.289,278.803 334.670 C 279.980 333.442,280.408 326.072,279.261 326.780 C 278.915 326.994,277.277 324.644,277.509 324.267 C 277.620 324.088,277.248 323.521,276.683 323.006 C 276.118 322.491,275.782 322.290,275.937 322.559 C 276.350 323.275,275.846 323.155,274.716 322.266 C 274.170 321.836,273.472 321.484,273.166 321.484 C 272.860 321.484,272.719 321.309,272.852 321.094 C 272.984 320.879,272.995 320.703,272.875 320.703 C 272.755 320.703,272.635 320.835,272.610 320.996 M125.167 321.722 C 124.538 322.046,123.310 323.007,122.437 323.859 C 121.565 324.711,120.702 325.272,120.519 325.106 C 120.337 324.940,120.295 324.994,120.426 325.225 C 120.558 325.456,120.221 326.511,119.678 327.569 C 116.309 334.133,122.256 338.510,129.827 335.039 C 131.086 334.462,132.299 334.104,132.524 334.243 C 132.749 334.382,132.820 334.312,132.681 334.087 C 132.356 333.561,134.257 332.303,134.837 332.661 C 135.089 332.817,135.169 332.759,135.026 332.526 C 134.677 331.963,135.790 331.117,136.409 331.474 C 136.687 331.635,136.782 331.620,136.620 331.442 C 136.459 331.264,136.634 330.771,137.011 330.346 C 137.487 329.809,137.553 329.524,137.230 329.410 C 135.841 328.923,130.290 325.064,130.381 324.649 C 130.440 324.380,130.300 324.277,130.071 324.419 C 129.523 324.757,128.451 323.858,128.776 323.333 C 128.926 323.089,128.836 323.044,128.551 323.220 C 128.023 323.546,126.466 322.346,126.773 321.850 C 127.162 321.220,126.279 321.150,125.167 321.722 M234.973 339.200 C 234.293 339.698,234.312 339.741,235.293 339.928 C 236.075 340.078,236.238 340.010,235.944 339.657 C 235.729 339.398,235.669 339.070,235.811 338.929 C 236.262 338.478,235.722 338.653,234.973 339.200 " stroke="none" fill="#a59f88" fill-rule="evenodd"></path><path id="path8" d="M225.391 57.227 C 224.981 57.720,225.050 57.808,225.831 57.782 C 226.341 57.765,226.537 57.662,226.267 57.553 C 225.997 57.444,225.876 57.194,225.997 56.998 C 226.352 56.425,225.922 56.587,225.391 57.227 M171.094 57.818 C 170.682 58.088,170.913 58.128,171.875 57.951 C 173.560 57.642,173.877 57.420,172.624 57.428 C 172.104 57.431,171.416 57.607,171.094 57.818 M103.379 132.214 C 103.258 132.529,103.327 132.891,103.533 133.018 C 103.738 133.145,103.906 132.981,103.906 132.653 C 103.906 132.261,104.141 132.131,104.590 132.276 C 105.167 132.461,105.182 132.430,104.688 132.074 C 103.900 131.507,103.640 131.535,103.379 132.214 M152.246 147.541 C 152.729 147.634,153.521 147.634,154.004 147.541 C 154.487 147.448,154.092 147.372,153.125 147.372 C 152.158 147.372,151.763 147.448,152.246 147.541 M296.192 153.320 C 296.197 154.180,296.277 154.485,296.370 153.999 C 296.463 153.513,296.460 152.810,296.362 152.437 C 296.264 152.063,296.188 152.461,296.192 153.320 M110.326 162.695 C 110.325 168.066,110.380 170.318,110.448 167.699 C 110.515 165.079,110.516 160.685,110.448 157.933 C 110.381 155.181,110.326 157.324,110.326 162.695 M202.078 168.750 C 202.078 170.146,202.149 170.718,202.236 170.020 C 202.322 169.321,202.322 168.179,202.236 167.480 C 202.149 166.782,202.078 167.354,202.078 168.750 M296.228 171.680 C 296.229 173.398,296.298 174.053,296.380 173.134 C 296.463 172.215,296.462 170.809,296.378 170.009 C 296.294 169.209,296.226 169.961,296.228 171.680 M289.544 191.406 C 289.544 192.158,289.624 192.466,289.722 192.090 C 289.821 191.714,289.821 191.099,289.722 190.723 C 289.624 190.347,289.544 190.654,289.544 191.406 M110.678 204.688 C 110.678 206.299,110.747 206.958,110.831 206.152 C 110.916 205.347,110.916 204.028,110.831 203.223 C 110.747 202.417,110.678 203.076,110.678 204.688 M110.659 209.961 C 110.662 211.035,110.737 211.428,110.827 210.834 C 110.917 210.241,110.915 209.362,110.822 208.881 C 110.729 208.401,110.656 208.887,110.659 209.961 M301.465 239.745 C 304.097 239.813,308.403 239.813,311.035 239.745 C 313.667 239.677,311.514 239.622,306.250 239.622 C 300.986 239.622,298.833 239.677,301.465 239.745 M324.322 239.733 C 324.916 239.823,325.794 239.821,326.275 239.728 C 326.755 239.635,326.270 239.562,325.195 239.565 C 324.121 239.568,323.728 239.644,324.322 239.733 M275.893 261.133 C 275.896 262.207,275.972 262.600,276.062 262.006 C 276.151 261.413,276.149 260.534,276.056 260.053 C 275.964 259.573,275.890 260.059,275.893 261.133 M275.872 281.250 C 275.872 282.002,275.952 282.310,276.051 281.934 C 276.149 281.558,276.149 280.942,276.051 280.566 C 275.952 280.190,275.872 280.498,275.872 281.250 M256.836 335.938 C 257.675 336.797,258.450 337.500,258.557 337.500 C 258.664 337.500,258.066 336.797,257.227 335.938 C 256.387 335.078,255.613 334.375,255.506 334.375 C 255.398 334.375,255.997 335.078,256.836 335.938 M272.954 343.636 C 273.440 343.729,274.143 343.726,274.516 343.628 C 274.890 343.530,274.492 343.454,273.633 343.458 C 272.773 343.462,272.468 343.542,272.954 343.636 " stroke="none" fill="#1c5c7c" fill-rule="evenodd"></path></g></svg>